<svg version="1.1" id="Capa_1" xmlns="http://www.w3.org/2000/svg" x="0" y="0" viewBox="0 0 512 512" xml:space="preserve"><path d="M453.475 443.844l-66.881-114.882a7.5 7.5 0 0 0-6.481-3.727h-42.532a7.5 7.5 0 0 0-6.762 10.744l55.104 114.882a7.499 7.499 0 0 0 6.762 4.256h54.31a7.498 7.498 0 1 0 6.48-11.273zM271.916 325.235h-42.532a7.497 7.497 0 0 0-6.481 3.727l-66.882 114.882a7.502 7.502 0 0 0 6.481 11.274h54.31a7.5 7.5 0 0 0 6.762-4.256l55.104-114.882a7.5 7.5 0 0 0-6.762-10.745z" fill="#d39053"/><path d="M271.916 325.235h-42.532a7.497 7.497 0 0 0-6.481 3.727l-29.886 51.335a189.56 189.56 0 0 0 51.649 26.592l34.012-70.91a7.5 7.5 0 0 0-6.762-10.744zm114.678 3.727a7.5 7.5 0 0 0-6.481-3.727h-42.532a7.5 7.5 0 0 0-6.762 10.744l34.012 70.91a189.545 189.545 0 0 0 51.649-26.592l-29.886-51.335z" fill="#af713e"/><circle cx="304.75" cy="226.432" r="169.55" fill="#5c9cee"/><path d="M381.603 75.27c43.937 30.637 72.693 81.538 72.693 139.163 0 93.638-75.909 169.547-169.547 169.547-27.667 0-53.784-6.63-76.854-18.383 27.458 19.146 60.842 30.383 96.854 30.383 93.638 0 169.547-75.909 169.547-169.547-.001-65.971-37.682-123.138-92.693-151.163z" fill="#3580d3"/><circle cx="304.75" cy="226.432" r="128.78" fill="#ebeef2"/><circle cx="304.75" cy="226.432" r="82.975" fill="#f2df33"/><circle cx="304.75" cy="226.432" r="34.994" fill="#ed5575"/><path d="M304.748 233.934H49.377a7.5 7.5 0 0 1 0-15h255.371a7.5 7.5 0 0 1 0 15z" fill="#1b3d66"/><path d="M115.863 220.419L79.72 193.504a7.498 7.498 0 0 0-4.479-1.485H7.5a7.5 7.5 0 0 0-5.21 12.895c5.898 5.696 9.147 13.338 9.147 21.52s-3.249 15.824-9.146 21.519A7.5 7.5 0 0 0 7.5 260.849h67.741a7.498 7.498 0 0 0 4.479-1.485l36.143-26.915c1.9-1.415 3.021-3.646 3.021-6.015s-1.121-4.6-3.021-6.015z" fill="#f29f5c"/><path d="M2.291 247.953A7.5 7.5 0 0 0 7.5 260.849h67.741a7.498 7.498 0 0 0 4.479-1.485l36.143-26.915a7.502 7.502 0 0 0 3.021-6.015H11.437c0 8.181-3.248 15.824-9.146 21.519z" fill="#d37d42"/><path d="M175.704 354.314c-16.637-12.003-26.399-24.006-33.131-36.009-14.911 12.169-26.71 24.337-31.386 36.506-.9 2.341-4.154 2.578-5.311.353-23.621-45.41 52.469-90.82 19.986-136.23h76.195c31.452 43.968-38.883 87.936-21.941 131.904 1.051 2.726-2.042 5.186-4.412 3.476z" fill="#9fd479"/><path d="M202.057 218.934h-12.269c27.499 43.77-33.584 87.539-19.456 131.309a147.528 147.528 0 0 0 5.373 4.071c2.37 1.71 5.462-.75 4.411-3.477-16.942-43.968 53.393-87.935 21.941-131.903z" fill="#7db24f"/><path d="M504.5 455.117H104.997a7.5 7.5 0 0 1 0-15H504.5a7.5 7.5 0 0 1 0 15z" fill="#1b3d66"/></svg>