<svg height="512pt" viewBox="0 0 512 512" width="512pt" xmlns="http://www.w3.org/2000/svg"><path d="m512 256c0 141.386719-114.613281 256-256 256s-256-114.613281-256-256 114.613281-256 256-256 256 114.613281 256 256zm0 0" fill="#525468"/><g fill="#3e4151"><path d="m90.246094 255.945312c0-99.792968 78.085937-181.339843 176.488281-186.90625-107.972656-6.097656-197.953125 79.71875-197.953125 186.90625 0 107.25 90.042969 193.007813 197.953125 186.90625-98.402344-5.5625-176.488281-87.109374-176.488281-186.90625zm0 0"/><path d="m20.605469 256c0-137.933594 109.089843-250.367188 245.699219-255.777344-145.945313-5.785156-266.304688 110.871094-266.304688 255.777344 0 144.871094 120.316406 261.554688 266.304688 255.777344-136.609376-5.410156-245.699219-117.84375-245.699219-255.777344zm0 0"/><path d="m370.210938 331.648438c-3.683594-2.15625-4.921876-6.886719-2.765626-10.574219 23.5625-40.261719 23.703126-88.589844.371094-129.277344-49.574218-86.453125-174.046875-86.507813-223.628906-.046875-23.339844 40.707031-23.203125 89.054688.367188 129.324219 2.15625 3.683593.917968 8.417969-2.765626 10.574219-3.683593 2.15625-8.417968.917968-10.570312-2.765626-26.402344-45.113281-26.566406-99.25-.4375-144.820312 55.480469-96.75 194.878906-96.851562 250.441406.042969 26.117188 45.554687 25.953125 99.675781-.441406 144.777343-2.152344 3.683594-6.886719 4.921876-10.570312 2.765626zm0 0"/></g><path d="m267.78125 283.777344c2.632812 0 5.066406-1.40625 6.382812-3.6875l11.78125-20.40625c1.316407-2.28125 1.316407-5.089844 0-7.367188l-3.253906-5.636718 72.972656 65.402343c1.230469 1.101563.003907 3.226563-1.566406 2.714844l-94.726562-31.019531zm0 0" fill="#e4e3e1"/><path d="m282.691406 246.679688 3.253906 5.636718c1.316407 2.277344 1.316407 5.085938 0 7.367188l-11.78125 20.40625c-1.316406 2.28125-3.75 3.6875-6.382812 3.6875h-8.410156l30.894531 10.117187c.796875-1.023437 1.53125-2.105469 2.1875-3.242187l11.78125-20.40625c.554687-.957032 1.035156-1.941406 1.46875-2.945313zm0 0" fill="#d1d0cf"/><path d="m256 69.910156v-26.605468c-38.25 0-74.632812 10.113281-106.359375 28.472656l13.304687 23.042968c27.753907-16.058593 59.585938-24.910156 93.054688-24.910156zm0 0" fill="#9ad14b"/><path d="m94.820312 162.941406-23.042968-13.304687c-18.105469 31.289062-28.472656 67.617187-28.472656 106.363281h26.605468c0-33.902344 9.070313-65.683594 24.910156-93.058594zm0 0" fill="#b4e1f9"/><path d="m417.179688 162.941406 23.042968-13.304687c-18.671875-32.273438-45.585937-59.1875-77.859375-77.859375l-13.304687 23.042968c28.238281 16.339844 51.78125 39.882813 68.121094 68.121094zm0 0" fill="#ffc964"/><path d="m417.179688 349.058594 23.042968 13.304687c18.105469-31.289062 28.472656-67.613281 28.472656-106.363281h-26.605468c0 33.902344-9.070313 65.683594-24.910156 93.058594zm0 0" fill="#ed5454"/><path d="m94.820312 349.058594c-15.839843-27.375-24.910156-59.15625-24.910156-93.058594h-26.605468c0 38.746094 10.367187 75.074219 28.472656 106.363281zm0 0" fill="#72bdf6"/><path d="m94.820312 349.058594-23.042968 13.304687c81.945312 141.628907 286.472656 141.671875 368.445312 0l-23.042968-13.304687c-71.695313 123.910156-250.640626 123.949218-322.359376 0zm0 0" fill="#e4e3e1"/><path d="m442.089844 256h26.605468c0-38.746094-10.367187-75.074219-28.472656-106.363281l-23.042968 13.304687c15.839843 27.375 24.910156 59.15625 24.910156 93.058594zm0 0" fill="#f3a334"/><path d="m349.058594 94.820312 13.304687-23.042968c-31.289062-18.101563-67.613281-28.46875-106.363281-28.46875v26.605468c33.902344-.003906 65.683594 9.066407 93.058594 24.90625zm0 0" fill="#ffe183"/><path d="m162.941406 94.820312-13.304687-23.042968c-32.273438 18.675781-59.1875 45.585937-77.859375 77.863281l23.042968 13.304687c16.339844-28.242187 39.882813-51.785156 68.121094-68.125zm0 0" fill="#76ab29"/><path d="m172.351562 68.125c18.265626-10.570312 38.222657-18.546875 59.355469-23.441406-29.628906 3.371094-57.414062 12.828125-82.066406 27.09375l4.640625 8.039062c5.816406-4.183594 11.84375-8.085937 18.070312-11.691406zm0 0" fill="#76ab29"/><path d="m92.945312 147.53125c15.441407-26.691406 36.410157-49.777344 61.335938-67.714844l-4.640625-8.039062c-32.277344 18.671875-59.1875 45.585937-77.863281 77.859375l15.269531 8.816406c1.863281-3.699219 3.828125-7.347656 5.898437-10.921875zm0 0" fill="#6b9b18"/><path d="m71.777344 149.640625c-18.105469 31.285156-28.472656 67.613281-28.472656 106.359375h20.605468c0-35.085938 8.34375-68.222656 23.132813-97.546875zm0 0" fill="#72bdf6"/><path d="m63.910156 256h-20.605468c0 38.746094 10.367187 75.074219 28.472656 106.363281l15.265625-8.816406c-14.789063-29.324219-23.132813-62.460937-23.132813-97.546875zm0 0" fill="#4b98d4"/><path d="m92.945312 364.46875c-2.066406-3.574219-4.035156-7.222656-5.898437-10.921875l-15.269531 8.816406c32.9375 56.925781 91.5 97.164063 159.917968 104.949219-59.214843-13.710938-109.136718-51.664062-138.75-102.84375zm0 0" fill="#d1d0cf"/><path d="m286.390625 252.058594-11.78125-20.40625c-1.402344-2.433594-4.019531-3.941406-6.828125-3.941406h-23.5625c-2.808594 0-5.421875 1.511718-6.828125 3.941406l-11.78125 20.40625c-1.40625 2.429687-1.40625 5.453125 0 7.882812l11.78125 20.40625c1.40625 2.433594 4.019531 3.945313 6.828125 3.945313h23.5625c2.808594 0 5.425781-1.511719 6.828125-3.945313l11.78125-20.40625c1.40625-2.429687 1.40625-5.453125 0-7.882812zm0 0" fill="#ed5454"/><path d="m257.996094 280.347656-11.78125-20.40625c-1.40625-2.429687-1.40625-5.453125 0-7.882812l11.78125-20.40625c1.402344-2.433594 4.019531-3.941406 6.828125-3.941406h-20.605469c-2.808594 0-5.421875 1.511718-6.828125 3.941406l-11.78125 20.40625c-1.40625 2.429687-1.40625 5.453125 0 7.882812l11.78125 20.40625c1.40625 2.433594 4.019531 3.945313 6.828125 3.945313h20.605469c-2.808594 0-5.425781-1.511719-6.828125-3.945313zm0 0" fill="#ea3f3f"/></svg>