<svg height="512pt" viewBox="0 0 512 512" width="512pt" xmlns="http://www.w3.org/2000/svg"><path d="M512 256c0 141.387-114.613 256-256 256S0 397.387 0 256 114.613 0 256 0s256 114.613 256 256zm0 0" fill="#525468"/><g fill="#3e4151"><path d="M90.246 255.945c0-99.793 78.086-181.34 176.488-186.906-107.972-6.098-197.953 79.719-197.953 186.906 0 107.25 90.043 193.008 197.953 186.907-98.402-5.563-176.488-87.11-176.488-186.907zm0 0"/><path d="M20.605 256c0-137.934 109.09-250.367 245.7-255.777C120.359-5.562 0 111.093 0 256c0 144.871 120.316 261.555 266.305 255.777-136.61-5.41-245.7-117.843-245.7-255.777zm0 0"/><path d="M370.21 331.648a7.728 7.728 0 0 1-2.765-10.574c23.563-40.262 23.703-88.59.371-129.277-49.574-86.453-174.046-86.508-223.628-.047-23.34 40.707-23.204 89.055.367 129.324a7.729 7.729 0 0 1-2.766 10.574 7.723 7.723 0 0 1-10.57-2.765c-26.403-45.113-26.567-99.25-.438-144.82 55.48-96.75 194.88-96.852 250.442.042 26.117 45.555 25.953 99.676-.442 144.778a7.723 7.723 0 0 1-10.57 2.765zm0 0"/></g><path d="M267.781 283.777a7.37 7.37 0 0 0 6.383-3.687l11.781-20.406a7.365 7.365 0 0 0 0-7.368l-3.254-5.636 72.973 65.402c1.23 1.102.004 3.227-1.566 2.715l-94.727-31.02zm0 0" fill="#e4e3e1"/><path d="M282.691 246.68l3.254 5.636a7.365 7.365 0 0 1 0 7.368l-11.78 20.406a7.37 7.37 0 0 1-6.384 3.687h-8.41l30.895 10.118a28.372 28.372 0 0 0 2.187-3.243l11.781-20.406a27.952 27.952 0 0 0 1.47-2.945zm0 0" fill="#d1d0cf"/><path d="M256 69.91V43.305c-38.25 0-74.633 10.113-106.36 28.472l13.305 23.043C190.7 78.762 222.531 69.91 256 69.91zm0 0" fill="#9ad14b"/><path d="M94.82 162.941l-23.043-13.304C53.672 180.926 43.305 217.254 43.305 256H69.91c0-33.902 9.07-65.684 24.91-93.059zm0 0" fill="#b4e1f9"/><path d="M417.18 162.941l23.043-13.304a213.707 213.707 0 0 0-77.86-77.86L349.06 94.82a187.006 187.006 0 0 1 68.12 68.121zm0 0" fill="#ffc964"/><path d="M417.18 349.059l23.043 13.304c18.105-31.289 28.472-67.613 28.472-106.363H442.09c0 33.902-9.07 65.684-24.91 93.059zm0 0" fill="#ed5454"/><path d="M94.82 349.059C78.98 321.684 69.91 289.902 69.91 256H43.305c0 38.746 10.367 75.074 28.472 106.363zm0 0" fill="#72bdf6"/><path d="M94.82 349.059l-23.043 13.304c81.946 141.63 286.473 141.672 368.446 0L417.18 349.06c-71.696 123.91-250.64 123.949-322.36 0zm0 0" fill="#e4e3e1"/><path d="M442.09 256h26.605c0-38.746-10.367-75.074-28.472-106.363L417.18 162.94c15.84 27.375 24.91 59.157 24.91 93.059zm0 0" fill="#f3a334"/><path d="M349.059 94.82l13.304-23.043C331.074 53.676 294.75 43.31 256 43.31v26.605c33.902-.004 65.684 9.066 93.059 24.906zm0 0" fill="#ffe183"/><path d="M162.941 94.82l-13.304-23.043a213.718 213.718 0 0 0-77.86 77.864l23.043 13.304a186.987 186.987 0 0 1 68.121-68.125zm9.411-26.695a215.562 215.562 0 0 1 59.355-23.441 211.324 211.324 0 0 0-82.066 27.093l4.64 8.04a218.164 218.164 0 0 1 18.07-11.692zm0 0" fill="#76ab29"/><path d="M92.945 147.531c15.442-26.691 36.41-49.777 61.336-67.715l-4.64-8.039a213.718 213.718 0 0 0-77.864 77.86l15.27 8.816a212.66 212.66 0 0 1 5.898-10.922zm0 0" fill="#6b9b18"/><path d="M71.777 149.64C53.672 180.927 43.305 217.255 43.305 256H63.91c0-35.086 8.344-68.223 23.133-97.547zm0 0" fill="#72bdf6"/><path d="M63.91 256H43.305c0 38.746 10.367 75.074 28.472 106.363l15.266-8.816C72.253 324.223 63.91 291.086 63.91 256zm0 0" fill="#4b98d4"/><path d="M92.945 364.469a215.728 215.728 0 0 1-5.898-10.922l-15.27 8.816c32.938 56.926 91.5 97.164 159.918 104.95-59.215-13.711-109.136-51.665-138.75-102.844zm0 0" fill="#d1d0cf"/><path d="M286.39 252.059l-11.78-20.407a7.899 7.899 0 0 0-6.829-3.941H244.22a7.912 7.912 0 0 0-6.828 3.941l-11.782 20.407a7.892 7.892 0 0 0 0 7.882l11.782 20.407a7.907 7.907 0 0 0 6.828 3.945h23.562a7.902 7.902 0 0 0 6.828-3.945l11.782-20.407a7.892 7.892 0 0 0 0-7.882zm0 0" fill="#ed5454"/><path d="M257.996 280.348l-11.781-20.407a7.892 7.892 0 0 1 0-7.882l11.781-20.407a7.899 7.899 0 0 1 6.828-3.941H244.22a7.912 7.912 0 0 0-6.828 3.941l-11.782 20.407a7.892 7.892 0 0 0 0 7.882l11.782 20.407a7.907 7.907 0 0 0 6.828 3.945h20.605a7.902 7.902 0 0 1-6.828-3.945zm0 0" fill="#ea3f3f"/></svg>