<?xml version="1.0" encoding="iso-8859-1"?>
<!-- Generator: Adobe Illustrator 19.0.0, SVG Export Plug-In . SVG Version: 6.00 Build 0)  -->
<svg version="1.1" id="Layer_1" xmlns="http://www.w3.org/2000/svg" xmlns:xlink="http://www.w3.org/1999/xlink" x="0px" y="0px"
	 viewBox="0 0 505 505" style="enable-background:new 0 0 505 505;" xml:space="preserve">
<circle style="fill:#90DFAA;" cx="252.5" cy="252.5" r="252.5"/>
<g>
	<rect x="96.1" y="119.1" style="fill:#FFFFFF;" width="28.7" height="15.8"/>
	<rect x="96.1" y="174.7" style="fill:#FFFFFF;" width="28.7" height="15.8"/>
	<rect x="96.1" y="230.2" style="fill:#FFFFFF;" width="28.7" height="15.8"/>
	<rect x="96.1" y="285.8" style="fill:#FFFFFF;" width="28.7" height="15.8"/>
	<rect x="96.1" y="341.4" style="fill:#FFFFFF;" width="28.7" height="15.8"/>
	<rect x="369.9" y="380" style="fill:#FFFFFF;" width="15.8" height="28.7"/>
	<rect x="314.3" y="380" style="fill:#FFFFFF;" width="15.8" height="28.7"/>
	<rect x="258.7" y="380" style="fill:#FFFFFF;" width="15.8" height="28.7"/>
	<rect x="203.1" y="380" style="fill:#FFFFFF;" width="15.8" height="28.7"/>
	<rect x="147.5" y="380" style="fill:#FFFFFF;" width="15.8" height="28.7"/>
</g>
<polygon style="fill:#324A5E;" points="184,153.8 253.5,318.2 377.4,218.1 408.9,238.2 408.9,252.3 378.2,232.6 248.7,337.2 
	173.1,158.4 "/>
<g>
	<circle style="fill:#FFD05B;" cx="377.8" cy="225.4" r="23.1"/>
	<circle style="fill:#FFD05B;" cx="251.1" cy="327.7" r="23.1"/>
</g>
<rect x="103.639" y="190.025" transform="matrix(0.5592 -0.829 0.829 0.5592 -95.5646 212.1131)" style="fill:#324A5E;" width="96.097" height="11.8"/>
<circle style="fill:#FFD05B;" cx="178.5" cy="156.1" r="23.1"/>
<polygon style="fill:#2B3B4E;" points="174.2,276.8 264.5,137.7 348.8,326.3 408.9,314.4 408.9,326.4 341.8,339.7 262.6,162.4 
	182.9,285.1 128.3,325 121.3,315.5 "/>
<g>
	<circle style="fill:#FF7058;" cx="345.3" cy="333" r="23.1"/>
	<circle style="fill:#FF7058;" cx="263.5" cy="150.1" r="23.1"/>
	<circle style="fill:#FF7058;" cx="178.5" cy="280.9" r="23.1"/>
</g>
<polygon style="fill:#FFFFFF;" points="116.9,387.8 408.4,387.8 408.4,372.1 132.7,372.1 132.7,96.3 116.9,96.3 "/>
<g>
</g>
<g>
</g>
<g>
</g>
<g>
</g>
<g>
</g>
<g>
</g>
<g>
</g>
<g>
</g>
<g>
</g>
<g>
</g>
<g>
</g>
<g>
</g>
<g>
</g>
<g>
</g>
<g>
</g>
</svg>
