<svg version="1.1" id="Layer_1" xmlns="http://www.w3.org/2000/svg" x="0" y="0" viewBox="0 0 505 505" xml:space="preserve"><circle cx="252.5" cy="252.5" r="252.5" fill="#90dfaa"/><path d="M96.1 119.1h28.7v15.8H96.1zm0 55.6h28.7v15.8H96.1zm0 55.5h28.7V246H96.1zm0 55.6h28.7v15.8H96.1zm0 55.6h28.7v15.8H96.1zM369.9 380h15.8v28.7h-15.8zm-55.6 0h15.8v28.7h-15.8zm-55.6 0h15.8v28.7h-15.8zm-55.6 0h15.8v28.7h-15.8zm-55.6 0h15.8v28.7h-15.8z" fill="#fff"/><path fill="#324a5e" d="M184 153.8l69.5 164.4 123.9-100.1 31.5 20.1v14.1l-30.7-19.7-129.5 104.6-75.6-178.8z"/><g fill="#ffd05b"><circle cx="377.8" cy="225.4" r="23.1"/><circle cx="251.1" cy="327.7" r="23.1"/></g><path transform="rotate(-55.998 151.692 195.93)" fill="#324a5e" d="M103.639 190.025h96.097v11.8h-96.097z"/><circle cx="178.5" cy="156.1" r="23.1" fill="#ffd05b"/><path fill="#2b3b4e" d="M174.2 276.8l90.3-139.1 84.3 188.6 60.1-11.9v12l-67.1 13.3-79.2-177.3-79.7 122.7-54.6 39.9-7-9.5z"/><g fill="#ff7058"><circle cx="345.3" cy="333" r="23.1"/><circle cx="263.5" cy="150.1" r="23.1"/><circle cx="178.5" cy="280.9" r="23.1"/></g><path fill="#fff" d="M116.9 387.8h291.5v-15.7H132.7V96.3h-15.8z"/></svg>