<svg version="1.1" id="Layer_1" xmlns="http://www.w3.org/2000/svg" x="0" y="0" viewBox="0 0 505 505" xml:space="preserve"><circle cx="252.5" cy="252.5" r="252.5" fill="#90dfaa"/><path fill="#fff" d="M179.4 418.9v-53.6h-53.5V86.1h253.2v332.8z"/><path fill="#e6e9ee" d="M179.4 418.9l-53.5-53.6h53.5z"/><path d="M194 112.2h9.1v40.7H194l-19.4-25.5v25.5h-9.1v-40.7h8.5l20 26.2v-26.2zm48.4 0v8.1h-20.2v8.4h18.2v7.7h-18.2v8.4h20.9v8h-30v-40.7h29.3v.1zm21.4 23.4l7.2-23.4h9.5l7.2 23.4 8.1-23.4h9.8l-14.2 40.7h-6.8l-8.9-28.3-8.8 28.3h-6.7L246 112.2h9.8l8 23.4zm55.8-15.3c-.9.7-1.3 1.7-1.3 2.8s.5 2.1 1.6 2.8 3.5 1.5 7.4 2.5 6.9 2.4 9 4.3c2.1 1.9 3.2 4.7 3.2 8.3s-1.4 6.6-4.1 8.9c-2.7 2.3-6.3 3.4-10.8 3.4-6.4 0-12.2-2.4-17.4-7.2l5.4-6.6c4.4 3.8 8.4 5.8 12.2 5.8 1.7 0 3-.4 3.9-1.1 1-.7 1.4-1.7 1.4-2.9s-.5-2.2-1.5-2.9-3-1.4-6-2.2c-4.7-1.1-8.2-2.6-10.4-4.4-2.2-1.8-3.3-4.6-3.3-8.5s1.4-6.8 4.2-8.9c2.8-2.1 6.2-3.1 10.4-3.1 2.7 0 5.4.5 8.1 1.4s5.1 2.2 7.1 4l-4.6 6.6c-3.5-2.7-7.2-4-10.9-4-1.5-.1-2.7.3-3.6 1z" fill="#ff7058"/><path d="M148.7 175.9h207.6v3.8H148.7zm0-7.7h207.6v3.8H148.7z" fill="#e6e9ee"/><path fill="#acb3ba" d="M148.7 191.5h92.5v65.8h-92.5z"/><path d="M148.7 270.8h92.5v11.5h-92.5zm0 22.5h92.5v11.5h-92.5zm0 22.5h92.5v11.5h-92.5zm0 22.5h92.5v11.5h-92.5z" fill="#e6e9ee"/><path fill="#acb3ba" d="M263.8 284h92.5v65.8h-92.5z"/><path d="M263.8 258.9h92.5v11.5h-92.5zm0-22.5h92.5v11.5h-92.5zm0-22.5h92.5v11.5h-92.5zm0-22.4h92.5V203h-92.5z" fill="#e6e9ee"/></svg>