<svg version="1.1" id="Layer_1" xmlns="http://www.w3.org/2000/svg" x="0" y="0" viewBox="0 0 509.287 509.287" xml:space="preserve"><circle cx="254.644" cy="254.644" r="254.644" fill="#fbd303"/><path d="M374.676 43.401H134.612a12.156 12.156 0 0 0-12.207 12.207v398.75a12.156 12.156 0 0 0 12.207 12.207h239.724a12.156 12.156 0 0 0 12.207-12.207V55.269c0-6.443-5.425-11.868-11.867-11.868z" fill="#646b79"/><path fill="#6eb1e1" d="M130.543 79.343h247.862v333.648H130.543z"/><g fill="#4f5565"><path d="M271.597 60.016H237.69a3.04 3.04 0 0 0-3.052 3.052 3.04 3.04 0 0 0 3.052 3.052h34.246a3.04 3.04 0 0 0 3.052-3.052c-.339-1.696-1.695-3.052-3.391-3.052z"/><circle cx="254.644" cy="438.76" r="17.632"/></g><path fill="#fcfcfd" d="M330.596 304.487l-10.85-5.086 21.7-45.775H196.662V241.42h164.451z"/><circle cx="308.556" cy="355.009" r="16.954" fill="#4f5565"/><circle cx="308.556" cy="355.009" r="8.138" fill="#f1f3f7"/><circle cx="247.523" cy="355.009" r="16.954" fill="#4f5565"/><circle cx="247.523" cy="355.009" r="8.138" fill="#f1f3f7"/><path d="M154.278 203.105a6.078 6.078 0 0 0-6.103 6.103 6.078 6.078 0 0 0 6.103 6.103h17.632v-12.207h-17.632z" fill="#f0582f"/><path d="M327.544 295.672H225.823l-41.706-89.176c-1.017-2.034-3.052-3.391-5.425-3.391h-6.781v12.207h2.713l42.045 89.176c1.017 2.034 3.052 3.391 5.425 3.391h105.452c3.73 0 7.121 3.052 7.121 7.121 0 3.73-3.052 7.121-7.121 7.121H223.11c-3.391 0-6.103 2.713-6.103 6.103s2.713 6.103 6.103 6.103h104.434c10.511 0 19.327-8.477 19.327-19.327.001-10.513-8.815-19.328-19.327-19.328z" fill="#fcfcfd"/><path d="M130.543 79.343v68.154c0 13.563 11.189 24.752 24.752 24.752s24.752-11.189 24.752-24.752V79.343h-49.504z" fill="#f0582f"/><path d="M180.387 79.343v68.154c0 13.563 11.189 24.752 24.752 24.752s24.752-11.189 24.752-24.752V79.343h-49.504z" fill="#f1f3f7"/><path d="M229.891 79.343v68.154c0 13.563 11.189 24.752 24.752 24.752 13.563 0 24.752-11.189 24.752-24.752V79.343h-49.504zm99.01 0v68.154c0 13.563 11.189 24.752 24.752 24.752 13.563 0 24.752-11.189 24.752-24.752V79.343h-49.504z" fill="#f0582f"/><path d="M279.396 79.343v68.154c0 13.563 11.189 24.752 24.752 24.752 13.563 0 24.752-11.189 24.752-24.752V79.343h-49.504z" fill="#f1f3f7"/></svg>