<svg version="1.1" id="Capa_1" xmlns="http://www.w3.org/2000/svg" x="0" y="0" viewBox="0 0 512.149 512.149" xml:space="preserve"><path d="M496.159 375.754h-31.977c8.83 0 15.988-7.15 15.988-15.988 0-8.822-7.158-15.988-15.988-15.988h-31.977c8.83 0 15.988-7.151 15.988-15.988 0-8.822-7.158-15.989-15.988-15.989h-47.967c8.83 0 15.99-7.151 15.99-15.988 0-8.822-7.16-15.989-15.99-15.989h87.938c8.83 0 15.988-7.15 15.988-15.984 0-8.829-7.158-15.988-15.988-15.988h-39.971c8.83 0 15.988-7.159 15.988-15.988 0-8.83-7.158-15.989-15.988-15.989h-15.988c8.828 0 15.988-7.159 15.988-15.988s-7.16-15.988-15.988-15.988h79.941c8.83 0 15.99-7.159 15.99-15.989s-7.16-15.989-15.99-15.989h-31.977c8.83 0 15.988-7.159 15.988-15.988 0-8.83-7.158-15.989-15.988-15.989h-31.977c8.83 0 15.988-7.159 15.988-15.989s-7.158-15.988-15.988-15.988h-23.982c8.828 0 15.988-7.159 15.988-15.989s-7.16-15.989-15.988-15.989H168.395c-8.829 0-15.988 7.159-15.988 15.989s7.159 15.989 15.988 15.989h-55.96c-8.829 0-15.988 7.159-15.988 15.988 0 8.83 7.159 15.989 15.988 15.989H96.447c-8.83 0-15.988 7.159-15.988 15.989 0 8.829 7.158 15.988 15.988 15.988h47.966c-8.83 0-15.989 7.159-15.989 15.989s7.159 15.989 15.989 15.989H56.475c-8.829 0-15.988 7.159-15.988 15.988s7.159 15.988 15.988 15.988h39.972c-8.83 0-15.988 7.159-15.988 15.989 0 8.829 7.158 15.988 15.988 15.988H56.475c-8.829 0-15.988 7.159-15.988 15.988 0 8.834 7.159 15.984 15.988 15.984H40.487c-8.83 0-15.989 7.167-15.989 15.989 0 8.837 7.159 15.988 15.989 15.988h39.972c-8.83 0-15.989 7.167-15.989 15.989 0 8.837 7.159 15.988 15.989 15.988h-15.99c-8.829 0-15.988 7.166-15.988 15.988 0 8.838 7.159 15.988 15.988 15.988h79.943c-8.83 0-15.989 7.167-15.989 15.989 0 8.837 7.159 15.988 15.989 15.988h-31.977c-8.829 0-15.988 7.167-15.988 15.989 0 8.837 7.159 15.988 15.988 15.988h271.804c8.83 0 15.99-7.151 15.99-15.988 0-8.822-7.16-15.989-15.99-15.989h111.92c8.83 0 15.99-7.151 15.99-15.988 0-8.822-7.16-15.989-15.99-15.989z" fill="#656d78"/><path d="M427.218 423.766c0-4.396-3.598-7.994-7.994-7.994-4.395 0-7.994 3.599-7.994 7.994s3.6 7.995 7.994 7.995c4.396.001 7.994-3.598 7.994-7.995zm-19.985-23.982c19.906 0 35.973 16.066 35.973 35.974 0 19.83-16.066 35.975-35.973 35.975-19.83 0-35.975-16.066-35.975-35.975.001-19.908 16.067-35.974 35.975-35.974z" fill="#a0d468"/><path d="M379.253 443.753c0-19.908 16.066-35.975 35.975-35.975 7.908 0 15.145 2.607 21.07 6.909-6.535-9.002-17.066-14.903-29.064-14.903-19.908 0-35.975 16.066-35.975 35.974 0 11.984 5.918 22.5 14.902 29.035-4.301-5.918-6.908-13.147-6.908-21.04z" fill="#fff" opacity=".5"/><path d="M435.751 428.138c.008 19.908-16.059 35.975-35.967 35.967-7.916.008-15.152-2.607-21.07-6.901 6.527 9.001 17.066 14.903 29.064 14.903 19.908 0 35.975-16.066 35.975-35.975 0-11.991-5.918-22.499-14.902-29.033 4.3 5.917 6.908 13.147 6.9 21.039z" opacity=".2"/><path d="M117.026 127.549a22.766 22.766 0 0 1 3.436 4.396c-3.115 5.199-8.236 11.757-14.709 18.229-6.472 6.472-13.029 11.594-18.229 14.708a22.752 22.752 0 0 1-4.396-3.435c-9.353-9.353-9.353-24.545 0-33.897s24.545-9.354 33.898-.001z" fill="#ac92ec"/><path d="M91.122 135.543c7.947-7.947 20.071-9.071 29.284-3.521l.055-.078a22.757 22.757 0 0 0-3.436-4.396c-9.353-9.353-24.545-9.353-33.897 0s-9.353 24.545 0 33.897a22.722 22.722 0 0 0 4.396 3.435l.078-.054c-5.551-9.212-4.427-21.336 3.52-29.283z" fill="#fff" opacity=".3"/><path d="M120.461 131.944c5.753 9.274 4.559 21.508-3.436 29.502s-20.228 9.189-29.502 3.435c5.199-3.115 11.757-8.236 18.229-14.708 6.473-6.472 11.594-13.03 14.709-18.229z" fill="#ac92ec"/><path d="M126.316 389.431c4.724 4.638 4.638 12.227 0 16.957-4.715 4.638-51.877 44.203-56.514 39.565-4.716-4.716 34.85-51.885 39.573-56.522 4.637-4.714 12.226-4.714 16.941 0z" fill="#ffce54"/><path d="M126.316 406.388c4.638-4.73 4.724-12.319 0-16.957-4.715-4.715-12.304-4.715-16.94 0-4.724 4.638-44.289 51.807-39.573 56.522 4.636 4.639 51.798-34.927 56.513-39.565zm-79.139 62.19c-14.068-14.067 31.173-82.097 45.249-96.087 13.99-14.068 36.771-14.068 50.839 0 14.076 14.067 14.076 36.771 0 50.839-14.068 14.068-82.02 59.238-96.088 45.248z" fill="#fc6e51"/><path d="M143.265 372.491c-8.057-8.057-18.963-11.352-29.448-10.165 7.831.875 15.442 4.153 21.454 10.165 14.075 14.067 14.075 36.771 0 50.839-11.43 11.429-58.404 43.375-83.175 47.466 20.626 4.044 78.318-34.616 91.169-47.466 14.076-14.068 14.076-36.771 0-50.839z" opacity=".3"/><path d="M55.171 468.578c-14.067-14.067 31.174-82.097 45.249-96.087 5.98-6.012 13.576-9.29 21.392-10.165-10.485-1.187-21.376 2.108-29.386 10.165-14.076 13.99-59.317 82.02-45.249 96.087 2.639 2.624 7.183 3.17 12.913 2.218-1.96-.391-3.701-1.015-4.919-2.218z" fill="#fff" opacity=".5"/><path d="M179.512 262.71l-16.948 16.949-16.949 16.948c-.156-16.785-48.044-25.419-48.044-25.419 56.515-56.526 98.891-25.427 98.891-25.427l-16.95 16.949zm90.413 56.6c1.678 2.232 29.58 43.813-25.419 98.805 0 0-8.635-47.639-25.342-48.045l5.598-5.589 16.941-16.957 16.949-16.94 11.273-11.274z" fill="#ccd1d9"/><path d="M145.615 330.585l39.573 39.564s-11.272 11.273-31.103-8.47c-19.744-19.822-8.47-31.094-8.47-31.094z" fill="#656d78"/><path fill="#aab2bd" d="M202.137 240.086l-5.676 5.675-16.949 16.949-16.948 16.949-16.949 16.948-5.676 5.668V324.9l5.676 5.685 39.573 39.563 5.676 5.606h22.625l5.674-5.684 5.598-5.588 16.941-16.957 16.949-16.94 11.274-11.275 5.675-5.675z"/><path d="M275.6 313.635l-73.463-73.549 12.71-12.632c-21.984-51.085-12.07-112.4 29.736-154.128 54.679-54.762 143.015-54.762 197.781 0 54.758 54.68 54.758 143.097 0 197.777-41.729 41.806-102.967 51.721-154.055 29.814L275.6 313.635z" fill="#ffce54"/><g fill="#3a3847"><path d="M403.751 459.928c-2.209 0-4.037-1.788-4.037-3.997s1.75-3.997 3.959-3.997h.078c2.209 0 3.996 1.788 3.996 3.997s-1.787 3.997-3.996 3.997zM75.985 12.248c-2.209 0-4.036-1.788-4.036-3.997s1.749-3.997 3.958-3.997h.078a3.994 3.994 0 0 1 3.997 3.997 3.994 3.994 0 0 1-3.997 3.997zm151.891 15.989c-2.209 0-4.036-1.788-4.036-3.997s1.749-3.998 3.958-3.998h.078c2.209 0 3.997 1.788 3.997 3.998s-1.788 3.997-3.997 3.997zM4.036 108.179c-2.21 0-4.036-1.788-4.036-3.997s1.748-3.997 3.958-3.997h.078c2.209 0 3.997 1.788 3.997 3.997s-1.788 3.997-3.997 3.997zm55.96 231.834c-2.21 0-4.036-1.787-4.036-3.996 0-2.21 1.748-3.998 3.958-3.998h.078a3.995 3.995 0 0 1 3.997 3.998 3.994 3.994 0 0 1-3.997 3.996zm199.436 167.882c-2.211 0-4.037-1.788-4.037-3.997 0-2.21 1.748-3.997 3.958-3.997h.078a3.994 3.994 0 0 1 3.996 3.997 3.992 3.992 0 0 1-3.995 3.997zm72.37-143.898c-2.209 0-4.035-1.788-4.035-3.997s1.748-3.997 3.957-3.997h.078c2.209 0 3.998 1.788 3.998 3.997s-1.789 3.997-3.998 3.997zm135.904-23.984c-2.211 0-4.037-1.787-4.037-3.996 0-2.21 1.748-3.998 3.959-3.998h.078a3.994 3.994 0 0 1 3.996 3.998 3.993 3.993 0 0 1-3.996 3.996zm-79.943 95.932c-2.209 0-4.037-1.787-4.037-3.996 0-2.21 1.75-3.998 3.959-3.998h.078a3.994 3.994 0 0 1 3.996 3.998 3.993 3.993 0 0 1-3.996 3.996z"/><path d="M407.507 475.917c-22.039 0-39.973-17.933-39.973-39.972s17.934-39.971 39.973-39.971c22.037 0 39.971 17.932 39.971 39.971s-17.934 39.972-39.971 39.972zm0-71.948c-17.629 0-31.979 14.349-31.979 31.977 0 17.629 14.35 31.978 31.979 31.978 17.635 0 31.977-14.349 31.977-31.978-.001-17.628-14.343-31.977-31.977-31.977z"/><path d="M419.497 435.945c-6.611 0-11.99-5.379-11.99-11.991s5.379-11.991 11.99-11.991c6.613 0 11.992 5.379 11.992 11.991s-5.379 11.991-11.992 11.991zm0-15.988a4.004 4.004 0 0 0-3.996 3.997 4.004 4.004 0 0 0 3.996 3.997 4 4 0 0 0 3.998-3.997 4.001 4.001 0 0 0-3.998-3.997zm-111.92 47.966a3.994 3.994 0 0 1-3.996-3.997v-31.977c0-2.21 1.787-3.998 3.996-3.998s3.998 1.788 3.998 3.998v31.977a3.996 3.996 0 0 1-3.998 3.997z"/><path d="M315.571 451.934h-15.988a3.996 3.996 0 0 1-3.998-3.997 3.995 3.995 0 0 1 3.998-3.997h15.988a3.995 3.995 0 0 1 3.998 3.997 3.996 3.996 0 0 1-3.998 3.997zM171.674 499.9a3.995 3.995 0 0 1-3.997-3.997v-31.978a3.995 3.995 0 0 1 3.997-3.997 3.994 3.994 0 0 1 3.997 3.997v31.978a3.994 3.994 0 0 1-3.997 3.997z"/><path d="M179.668 483.913H163.68a3.995 3.995 0 0 1-3.997-3.998 3.995 3.995 0 0 1 3.997-3.997h15.988a3.994 3.994 0 0 1 3.997 3.997 3.995 3.995 0 0 1-3.997 3.998zm-7.994-407.711a3.995 3.995 0 0 1-3.997-3.998V40.228a3.994 3.994 0 0 1 3.997-3.997 3.994 3.994 0 0 1 3.997 3.997v31.977a3.994 3.994 0 0 1-3.997 3.997z"/><path d="M179.668 60.214H163.68a3.995 3.995 0 0 1-3.997-3.997 3.995 3.995 0 0 1 3.997-3.997h15.988c2.21 0 3.997 1.788 3.997 3.997s-1.787 3.997-3.997 3.997zM27.777 260.072a3.995 3.995 0 0 1-3.997-3.997v-31.978a3.995 3.995 0 0 1 3.997-3.997 3.994 3.994 0 0 1 3.997 3.997v31.978a3.994 3.994 0 0 1-3.997 3.997z"/><path d="M35.772 244.083H19.783a3.995 3.995 0 0 1-3.997-3.997 3.995 3.995 0 0 1 3.997-3.998h15.989a3.995 3.995 0 0 1 3.997 3.998 3.995 3.995 0 0 1-3.997 3.997zm63.954-71.949c-7.472 0-14.498-2.912-19.783-8.197s-8.197-12.312-8.197-19.786c0-7.472 2.912-14.498 8.197-19.779 10.563-10.57 29.003-10.57 39.565 0 5.285 5.281 8.197 12.308 8.197 19.779 0 7.475-2.912 14.501-8.197 19.786-5.277 5.285-12.304 8.197-19.782 8.197zm0-47.966a19.874 19.874 0 0 0-14.131 5.855c-3.771 3.774-5.855 8.791-5.855 14.127 0 5.34 2.085 10.359 5.855 14.134 7.55 7.549 20.712 7.549 28.261 0a19.84 19.84 0 0 0 5.855-14.134 19.83 19.83 0 0 0-5.855-14.127 19.845 19.845 0 0 0-14.13-5.855z"/><path d="M79.076 171.431c-1.858 0-3.498-.551-4.786-1.843a3.994 3.994 0 0 1 0-5.652 4 4 0 0 1 5.091-.468c2.561-.148 11.655-4.974 23.171-16.488 11.515-11.52 16.34-20.614 16.488-23.175a4.01 4.01 0 0 1 .468-5.094 3.996 3.996 0 0 1 5.652 0c8.072 8.069-12.71 29.675-16.956 33.921-3.568 3.568-19.377 18.799-29.128 18.799z"/></g><path fill="#fff" d="M252.992 291.003l-28.247-28.284 39.582-39.582 25.428 2.798 2.873 25.501zm66.921-129.998c0 8.841-7.168 16.008-16.014 16.008-8.836 0-16.012-7.167-16.012-16.008s7.176-16.012 16.012-16.012c8.846 0 16.014 7.171 16.014 16.012zm50.76 50.753c0 8.842-7.174 16.009-16.012 16.009-8.846 0-16.012-7.167-16.012-16.009 0-8.841 7.166-16.012 16.012-16.012 8.838 0 16.012 7.171 16.012 16.012z" opacity=".6"/><path d="M189.036 241.865c-14.458-6.116-49.004-13.26-91.583 29.323 0 0 8.627 1.562 18.558 4.63 26.684-23.737 49.776-28.359 66.117-27.036l6.908-6.917z" fill="#fff" opacity=".5"/><path d="M156.81 341.887l-11.305-11.303s-11.272 11.272 8.471 31.095a59.232 59.232 0 0 0 6.043 5.262c-12.132-16.044-3.209-25.054-3.209-25.054z" fill="#fff" opacity=".4"/><path d="M174.266 359.344l11.305 11.305s-11.273 11.273-31.103-8.479a59.999 59.999 0 0 1-5.262-6.042c16.051 12.139 25.06 3.216 25.06 3.216z" opacity=".2"/><path fill="#fff" d="M156.81 307.913l16.949-16.949 16.948-16.95 16.95-16.949 5.668-5.668-11.305-11.311-5.668 5.675-16.948 16.949-16.95 16.949-16.949 16.948-5.676 5.668V324.9l5.676 5.685 5.629 5.621v-22.625z" opacity=".4"/><path d="M207.742 358.837l16.941-16.95 16.949-16.94 16.949-16.957 5.668-5.668 11.312 11.306-5.675 5.668-16.949 16.955-16.949 16.942-16.941 16.948-5.676 5.683-22.625-.008-5.675-5.668-5.629-5.636h22.625z" opacity=".2"/><path d="M214.738 227.454c-2.343-67.448 4.887-95.443 46.693-137.172 51.838-51.916 133.873-54.523 188.928-8.006-2.584-3.057-5.223-6.078-8.104-8.955-54.766-54.762-143.102-54.762-197.781 0-41.814 41.729-51.721 103.048-29.736 154.133z" fill="#fff" opacity=".5"/><path d="M288.122 300.84c67.445 2.343 95.439-4.887 137.168-46.697 51.916-51.838 54.523-133.873 8.01-188.923 3.053 2.58 6.074 5.223 8.955 8.104 54.758 54.762 54.758 143.097 0 197.773-41.729 41.812-103.053 51.726-154.133 29.743zm-146.231-11.828c2.186 2.318 3.591 4.832 3.614 7.596l16.949-16.948 16.949-16.949 16.948-16.949s-2.6-1.889-7.323-3.888l-47.137 47.138zm84.721 84.712c-2.318-2.186-4.832-3.584-7.596-3.607l16.94-16.948 16.957-16.949 16.941-16.948s1.889 2.592 3.895 7.314l-47.137 47.138zm48.856-60.065l-73.511-73.507 5.723-5.719 73.502 73.51z" opacity=".2"/><path d="M273.71 326.539c6.113 14.459 13.258 48.997-29.314 91.576 0 0-1.569-8.619-4.638-18.55 23.733-26.685 28.354-49.776 27.036-66.116l6.916-6.91z" opacity=".2"/><g fill="#3a3847"><path d="M343.583 316.336c-19.119 0-38.434-3.849-56.85-11.742a4.002 4.002 0 0 1-2.094-5.254 3.99 3.99 0 0 1 5.248-2.092c51.354 22.016 110.1 10.664 149.643-28.964 25.738-25.7 39.908-59.816 39.908-96.068 0-36.255-14.17-70.371-39.9-96.06-25.732-25.736-59.855-39.905-96.096-39.905-36.232 0-70.34 14.169-96.025 39.901-39.667 39.585-51.011 98.352-28.901 149.721a3.997 3.997 0 0 1-2.093 5.254c-2.029.851-4.379-.074-5.254-2.092-23.405-54.399-11.397-116.628 30.596-158.54 27.191-27.234 63.306-42.239 101.677-42.239s74.51 15.001 101.748 42.243c27.238 27.2 42.242 63.322 42.242 101.716 0 38.391-15.004 74.514-42.242 101.721-27.691 27.738-64.275 42.4-101.607 42.4zm-130.094 63.417h-22.625a4.025 4.025 0 0 1-2.811-1.156l-50.94-50.869a3.998 3.998 0 0 1-1.171-2.826v-22.625c0-1.062.422-2.076 1.171-2.826l62.198-62.189a3.992 3.992 0 0 1 5.652 0l73.463 73.549a3.996 3.996 0 0 1 0 5.652l-62.112 62.119a3.994 3.994 0 0 1-2.825 1.171zm-20.986-7.995h19.33l58.115-58.123-67.811-67.893-58.201 58.189v19.314l48.567 48.513z"/><path d="M241.702 351.521a3.98 3.98 0 0 1-2.6-.96l-79.146-67.866a4.003 4.003 0 0 1-.43-5.637 4.005 4.005 0 0 1 5.637-.437l79.146 67.873a4.003 4.003 0 0 1 .43 5.637 3.985 3.985 0 0 1-3.037 1.39zm16.949-16.94a3.979 3.979 0 0 1-2.6-.968l-79.146-67.873a3.999 3.999 0 0 1-.429-5.633 4.003 4.003 0 0 1 5.637-.43l79.146 67.87a4.001 4.001 0 1 1-2.608 7.034zm-33.89 33.897c-.921 0-1.85-.32-2.607-.969l-79.139-67.873a3.996 3.996 0 0 1-.43-5.637 4.012 4.012 0 0 1 5.637-.43l79.139 67.874a3.996 3.996 0 0 1 .43 5.637 3.974 3.974 0 0 1-3.03 1.398zm-48.816 8.931c-6.183 0-14.544-2.811-24.678-12.896-22.313-22.406-9.056-36.186-8.479-36.755a3.994 3.994 0 0 1 5.652 0 3.995 3.995 0 0 1 .047 5.605c-.422.468-7.885 9.118 8.432 25.497 16.793 16.722 25.349 8.548 25.442 8.463 1.562-1.562 4.091-1.562 5.652 0s1.562 4.091 0 5.651c-.319.322-4.589 4.435-12.068 4.435z"/><path d="M244.505 422.111a3.986 3.986 0 0 1-3.934-3.279c-3.35-18.456-12.241-44.546-21.508-44.765-2.187-.055-3.967-1.858-3.936-4.044.023-2.187 1.765-3.95 3.959-3.95 15.684.374 24.318 28.814 27.784 43.797 46.716-51.011 20.142-87.781 19.861-88.156a4.014 4.014 0 0 1-.805-2.404c0-2.21 1.789-4.036 3.998-4.036a3.99 3.99 0 0 1 3.605 2.225c3.615 5.48 28.824 48.427-26.199 103.442a3.992 3.992 0 0 1-2.825 1.17zm-98.89-121.506a4.004 4.004 0 0 1-3.997-3.967c-.086-9.29-26.224-18.174-44.757-21.516-1.468-.266-2.662-1.327-3.107-2.748s-.063-2.967.991-4.013c58.279-58.279 103.63-26.146 104.082-25.825 1.772 1.304 2.155 3.794.859 5.574s-3.795 2.17-5.582.882c-1.562-1.136-37.856-26.383-88.281 19.814 15.052 3.458 43.641 12.101 43.789 27.753a3.997 3.997 0 0 1-3.997 4.046z"/><path d="M202.137 244.083a3.983 3.983 0 0 1-2.834-1.179 3.987 3.987 0 0 1 .016-5.652l12.71-12.632c1.562-1.565 4.091-1.55 5.652.016a4.003 4.003 0 0 1-.016 5.652l-12.71 12.631a3.987 3.987 0 0 1-2.818 1.164zm73.463 73.55a3.983 3.983 0 0 1-2.826-1.171 3.993 3.993 0 0 1 0-5.652l12.709-12.718a3.997 3.997 0 0 1 5.652 5.652l-12.709 12.718a3.993 3.993 0 0 1-2.826 1.171zm-39.573-62.199a3.984 3.984 0 0 1-2.826-1.171 3.994 3.994 0 0 1 0-5.652l28.3-28.3a3.996 3.996 0 1 1 5.652 5.652l-28.3 28.3a3.983 3.983 0 0 1-2.826 1.171zm28.3 28.222a3.962 3.962 0 0 1-2.826-1.179 3.985 3.985 0 0 1 .008-5.652l28.301-28.218a3.992 3.992 0 0 1 5.65.008 4 4 0 0 1-.008 5.652l-28.299 28.227a4.015 4.015 0 0 1-2.826 1.162z"/><path d="M289.755 229.932c-.141 0-.289-.008-.438-.023l-25.428-2.799a4 4 0 0 1-3.537-4.411c.242-2.193 2.156-3.81 4.412-3.536l25.426 2.799a3.998 3.998 0 0 1-.435 7.97z"/><path d="M292.628 255.434a4.007 4.007 0 0 1-3.975-3.548l-2.873-25.501a3.998 3.998 0 0 1 3.521-4.423c2.201-.23 4.176 1.331 4.426 3.524l2.873 25.502a3.996 3.996 0 0 1-3.972 4.446zm-16.785-39.812a3.98 3.98 0 0 1-2.826-1.171 3.993 3.993 0 0 1 0-5.652l39.33-39.332a3.996 3.996 0 0 1 5.652 0 3.993 3.993 0 0 1 0 5.652l-39.33 39.331a3.983 3.983 0 0 1-2.826 1.172z"/><path d="M315.173 176.291a3.983 3.983 0 0 1-2.842-1.19 3.99 3.99 0 0 1 .039-5.652 11.804 11.804 0 0 0 3.545-8.462c0-3.205-1.258-6.21-3.553-8.47-4.676-4.673-12.256-4.677-16.91-.02a3.994 3.994 0 0 1-5.65 0 3.993 3.993 0 0 1 0-5.652c7.775-7.768 20.422-7.768 28.197 0 3.811 3.755 5.91 8.786 5.91 14.142 0 5.355-2.107 10.383-5.926 14.154a3.993 3.993 0 0 1-2.81 1.15z"/><path d="M292.628 176.291a3.956 3.956 0 0 1-2.803-1.151 19.768 19.768 0 0 1-5.934-14.154c0-5.356 2.107-10.387 5.926-14.162a4.01 4.01 0 0 1 5.658.035 4.006 4.006 0 0 1-.039 5.656c-2.287 2.26-3.551 5.266-3.551 8.47a11.84 11.84 0 0 0 3.551 8.462 4 4 0 0 1-2.808 6.844zm11.513 67.554a3.996 3.996 0 0 1-2.826-6.823l39.332-39.335a3.996 3.996 0 1 1 5.652 5.652l-39.331 39.335a3.986 3.986 0 0 1-2.827 1.171z"/><path d="M366.098 227.134a3.98 3.98 0 0 1-2.826-1.171 3.993 3.993 0 0 1 0-5.652 11.932 11.932 0 0 0 3.504-8.486c0-3.208-1.248-6.222-3.504-8.486-4.686-4.68-12.297-4.672-16.973 0a3.996 3.996 0 1 1-5.652-5.652c7.791-7.795 20.477-7.803 28.277 0 3.77 3.771 5.846 8.794 5.846 14.138 0 5.348-2.076 10.368-5.846 14.139a3.992 3.992 0 0 1-2.826 1.17z"/><path d="M354.786 231.814a19.864 19.864 0 0 1-14.139-5.852 3.996 3.996 0 1 1 5.652-5.652c4.527 4.521 12.451 4.528 16.973 0a3.996 3.996 0 1 1 5.652 5.652 19.86 19.86 0 0 1-14.138 5.852zm-33.938-27.304a3.978 3.978 0 0 1-2.803-1.152l-5.676-5.594a3.99 3.99 0 0 1-.039-5.652 3.988 3.988 0 0 1 5.652-.039l5.676 5.594a4 4 0 0 1 .039 5.652 3.98 3.98 0 0 1-2.849 1.191zM70.496 450.796c-2.006 0-3.263-.844-3.974-1.546-.718-.719-1.569-1.999-1.562-4.044.047-11.328 39.121-56.155 41.158-58.154 5.887-6.004 16.496-6.065 22.578.023 6.175 6.176 6.19 16.301.023 22.578-.436.429-46.707 41.143-58.223 41.143zm46.873-60.443a7.78 7.78 0 0 0-5.598 2.35c-5.715 5.613-30.541 36.17-37.185 48.442 12.257-6.651 42.688-31.353 48.458-37.13 3.075-3.123 3.083-8.197 0-11.289-1.529-1.529-3.544-2.373-5.675-2.373z"/><path d="M54.821 475.699c-4.692 0-8.361-1.289-10.914-3.826-17.722-17.722 34.132-90.639 45.24-101.748 7.511-7.557 17.535-11.726 28.215-11.726s20.72 4.161 28.284 11.726c7.558 7.558 11.719 17.59 11.719 28.254 0 10.648-4.161 20.688-11.719 28.245-12.234 12.225-65.938 49.075-90.825 49.075zm62.541-109.306c-8.533 0-16.543 3.334-22.555 9.376C78.725 391.853 39.23 455.9 49.55 466.22c.992.984 2.764 1.483 5.271 1.483 20.977 0 72.37-33.937 85.173-46.731 6.051-6.059 9.376-14.076 9.376-22.594 0-8.525-3.325-16.551-9.376-22.602-6.05-6.048-14.091-9.383-22.632-9.383z"/></g></svg>