<?xml version="1.0" encoding="iso-8859-1"?>
<!-- Generator: Adobe Illustrator 19.0.0, SVG Export Plug-In . SVG Version: 6.00 Build 0)  -->
<svg version="1.1" id="Capa_1" xmlns="http://www.w3.org/2000/svg" xmlns:xlink="http://www.w3.org/1999/xlink" x="0px" y="0px"
	 viewBox="0 0 511.912 511.912" style="enable-background:new 0 0 511.912 511.912;" xml:space="preserve">
<path style="fill:#FFD15C;" d="M433.495,149.719l12.401,25.071c0.739,1.493,2.163,2.527,3.812,2.764l27.683,3.998
	c4.151,0.599,5.812,5.698,2.812,8.627l-20.012,19.541c-1.191,1.164-1.734,2.838-1.451,4.48l4.753,27.563
	c0.712,4.133-3.623,7.288-7.336,5.34l-24.769-12.994c-1.474-0.774-3.235-0.772-4.708,0.004l-24.746,13.037
	c-3.71,1.955-8.051-1.193-7.345-5.327l4.704-27.572c0.28-1.641-0.265-3.316-1.459-4.477l-20.047-19.505
	c-3.005-2.924-1.353-8.025,2.797-8.632l27.676-4.047c1.647-0.241,3.071-1.277,3.807-2.772l12.356-25.093
	C426.273,145.965,431.635,145.96,433.495,149.719z"/>
<path style="fill:#E8B44D;" d="M458.628,214.104l4.802,27.85c0.689,3.999-3.506,7.053-7.099,5.168l-19.444-10.201
	c-1.349-0.707-2.292-2.003-2.55-3.504l-2.438-14.135c-0.274-1.588,0.251-3.209,1.405-4.335l14.678-14.333
	c2.903-2.835,1.295-7.768-2.72-8.349l-20.307-2.936c-1.594-0.231-2.973-1.23-3.687-2.673l-6.416-12.962
	c-0.676-1.366-0.678-2.968-0.004-4.335l9.714-19.724c1.793-3.641,6.982-3.645,8.781-0.007l12.53,25.333
	c0.714,1.444,2.094,2.445,3.688,2.675l27.971,4.04c4.016,0.58,5.624,5.514,2.721,8.349l-20.22,19.744
	C458.879,210.895,458.353,212.516,458.628,214.104z"/>
<path d="M458.528,255.286c-2.01,0.002-4.03-0.482-5.897-1.461l-23.592-12.377l-23.569,12.419c-4.29,2.261-9.395,1.895-13.322-0.952
	c-3.926-2.847-5.858-7.585-5.043-12.365l4.481-26.262l-19.092-18.577c-3.477-3.383-4.707-8.35-3.213-12.964
	c1.495-4.614,5.405-7.916,10.204-8.617l26.359-3.854l11.768-23.9c2.143-4.351,6.486-7.056,11.336-7.061s9.198,2.694,11.349,7.041
	l0,0l11.811,23.879l26.367,3.808c4.799,0.692,8.715,3.988,10.218,8.599c1.503,4.611,0.28,9.582-3.19,12.969l-19.06,18.612
	l4.527,26.253c0.824,4.78-1.1,9.521-5.021,12.375C463.734,254.462,461.14,255.283,458.528,255.286z M386.752,188.405l16.372,15.93
	c2.984,2.904,4.348,7.088,3.647,11.194l-3.842,22.518l20.211-10.649c3.684-1.94,8.085-1.944,11.771-0.01L455.141,238l-3.882-22.513
	c-0.707-4.103,0.649-8.289,3.628-11.2l16.344-15.96l-22.61-3.264c-4.122-0.597-7.683-3.18-9.529-6.91l-10.129-20.478l-10.092,20.495
	c-1.84,3.734-5.396,6.323-9.515,6.927L386.752,188.405z M452.698,171.425h0.01H452.698z"/>
<path style="fill:#FFD15C;" d="M260.338,10.407l35.099,70.96c0.739,1.493,2.163,2.527,3.812,2.765l78.353,11.315
	c4.151,0.599,5.812,5.698,2.812,8.627l-56.641,55.309c-1.191,1.164-1.734,2.838-1.451,4.48l13.451,78.014
	c0.712,4.133-3.623,7.288-7.336,5.34l-70.105-36.777c-1.474-0.774-3.235-0.772-4.708,0.004l-70.039,36.901
	c-3.71,1.955-8.051-1.193-7.345-5.327l13.314-78.038c0.28-1.641-0.265-3.316-1.459-4.477l-56.738-55.208
	c-3.005-2.924-1.353-8.025,2.797-8.632l78.333-11.454c1.647-0.241,3.071-1.277,3.807-2.772l34.973-71.022
	C253.116,6.653,258.478,6.648,260.338,10.407z"/>
<path style="fill:#E8B44D;" d="M322.019,163.892l13.54,78.537c0.693,4.019-3.523,7.087-7.135,5.193l-46.668-24.484
	c-1.355-0.711-2.303-2.013-2.563-3.52l-7.229-41.902c-0.247-1.431,0.151-2.897,1.086-4.007l42.316-50.216
	c2.324-2.757,0.99-6.996-2.495-7.925l-64.446-17.175c-1.369-0.365-2.515-1.302-3.143-2.573l-17.264-34.903
	c-0.679-1.372-0.68-2.982-0.004-4.355l22.954-46.612c1.801-3.659,7.017-3.663,8.825-0.008l35.335,71.432
	c0.718,1.451,2.104,2.457,3.707,2.689l78.886,11.396c4.036,0.583,5.651,5.541,2.734,8.39l-57.025,55.689
	C322.271,160.667,321.743,162.296,322.019,163.892z"/>
<path style="fill:#FFD15C;" d="M87.427,150.025l12.401,25.071c0.739,1.493,2.163,2.527,3.812,2.764l27.683,3.998
	c4.151,0.599,5.812,5.698,2.812,8.627l-20.012,19.541c-1.191,1.164-1.734,2.838-1.451,4.48l4.753,27.563
	c0.712,4.133-3.623,7.289-7.336,5.34l-24.769-12.994c-1.474-0.774-3.235-0.772-4.708,0.004l-24.747,13.039
	c-3.71,1.955-8.051-1.193-7.345-5.327l4.704-27.572c0.28-1.641-0.265-3.316-1.459-4.477l-20.047-19.505
	c-3.005-2.924-1.353-8.025,2.797-8.632l27.676-4.047c1.647-0.241,3.071-1.277,3.807-2.772l12.356-25.093
	C80.205,146.271,85.567,146.266,87.427,150.025z"/>
<path style="fill:#E8B44D;" d="M112.709,214.411l4.802,27.85c0.689,3.999-3.506,7.053-7.099,5.168l-19.444-10.201
	c-1.349-0.707-2.292-2.003-2.55-3.504l-2.438-14.135c-0.274-1.588,0.251-3.209,1.405-4.335l14.678-14.333
	c2.903-2.835,1.295-7.768-2.72-8.349l-20.307-2.936c-1.594-0.231-2.973-1.23-3.687-2.673L68.932,174
	c-0.676-1.366-0.678-2.968-0.004-4.335l9.714-19.724c1.793-3.641,6.982-3.645,8.781-0.007l12.53,25.333
	c0.714,1.444,2.094,2.445,3.688,2.675l27.971,4.039c4.016,0.58,5.624,5.514,2.721,8.349l-20.22,19.744
	C112.96,211.201,112.435,212.822,112.709,214.411z"/>
<path d="M330.809,255.398c-2.01,0.002-4.029-0.482-5.897-1.461l-68.928-36.16l-68.863,36.282c-4.291,2.26-9.396,1.895-13.322-0.951
	c-3.926-2.847-5.858-7.586-5.042-12.366l13.09-76.728l-55.785-54.28c-3.477-3.383-4.707-8.35-3.213-12.964
	c1.495-4.614,5.405-7.916,10.204-8.617L210.07,76.89l34.385-69.829c2.143-4.351,6.486-7.056,11.336-7.061s9.198,2.694,11.349,7.041
	l0,0l34.509,69.767l77.037,11.125c4.799,0.692,8.715,3.988,10.218,8.599c1.503,4.611,0.28,9.582-3.19,12.969l-55.689,54.378
	l13.225,76.705c0.824,4.779-1.099,9.521-5.02,12.375C336.015,254.575,333.422,255.395,330.809,255.398z M255.97,202.272
	c2.022-0.002,4.044,0.481,5.887,1.447l65.566,34.396l-12.581-72.964c-0.707-4.1,0.648-8.286,3.626-11.197l52.975-51.73
	l-73.279-10.581c-4.124-0.597-7.685-3.181-9.53-6.912l-32.826-66.365L223.099,84.79c-1.839,3.733-5.394,6.323-9.515,6.927
	l-73.263,10.712l53.064,51.633c2.985,2.907,4.348,7.091,3.648,11.194l-12.451,72.985l65.504-34.512
	C251.928,202.76,253.948,202.273,255.97,202.272z M302.239,78.002h0.01H302.239z"/>
<path d="M112.46,255.592c-2.01,0.002-4.03-0.482-5.897-1.461L82.97,241.754l-23.569,12.419c-4.291,2.261-9.395,1.895-13.322-0.952
	c-3.926-2.847-5.858-7.585-5.043-12.365l4.481-26.262l-19.092-18.577c-3.477-3.383-4.707-8.35-3.213-12.964
	c1.495-4.614,5.405-7.916,10.204-8.617l26.359-3.854l11.768-23.9c2.143-4.351,6.486-7.056,11.336-7.061
	c4.85-0.004,9.198,2.694,11.349,7.041l0,0l11.811,23.879l26.367,3.808c4.799,0.692,8.715,3.988,10.218,8.599
	c1.503,4.611,0.28,9.582-3.189,12.969l-19.06,18.612l4.527,26.253c0.824,4.78-1.1,9.521-5.021,12.375
	C117.666,254.768,115.072,255.589,112.46,255.592z M40.683,188.711l16.372,15.93c2.984,2.904,4.348,7.088,3.648,11.194
	l-3.842,22.518l20.211-10.649c3.684-1.94,8.085-1.944,11.771-0.01l20.23,10.613l-3.882-22.513c-0.707-4.103,0.649-8.289,3.628-11.2
	l16.344-15.96l-22.61-3.264c-4.122-0.597-7.683-3.18-9.529-6.91l-10.129-20.478l-10.092,20.495c-1.84,3.734-5.396,6.323-9.515,6.927
	L40.683,188.711z M106.63,171.732h0.01H106.63z"/>
<g>
	
		<line style="fill:none;stroke:#000000;stroke-width:15;stroke-linecap:round;stroke-linejoin:round;stroke-miterlimit:10;" x1="170.016" y1="272.607" x2="170.228" y2="504.412"/>
	
		<line style="fill:none;stroke:#000000;stroke-width:15;stroke-linecap:round;stroke-linejoin:round;stroke-miterlimit:10;" x1="204.42" y1="272.576" x2="204.633" y2="504.381"/>
	
		<line style="fill:none;stroke:#000000;stroke-width:15;stroke-linecap:round;stroke-linejoin:round;stroke-miterlimit:10;" x1="238.825" y1="272.546" x2="239.037" y2="504.351"/>
	
		<line style="fill:none;stroke:#000000;stroke-width:15;stroke-linecap:round;stroke-linejoin:round;stroke-miterlimit:10;" x1="273.411" y1="467.376" x2="273.442" y2="504.321"/>
	
		<line style="fill:none;stroke:#000000;stroke-width:15;stroke-linecap:round;stroke-linejoin:round;stroke-miterlimit:10;" x1="273.229" y1="272.516" x2="273.361" y2="421.335"/>
	
		<line style="fill:none;stroke:#000000;stroke-width:15;stroke-linecap:round;stroke-linejoin:round;stroke-miterlimit:10;" x1="307.634" y1="272.485" x2="307.846" y2="504.29"/>
	
		<line style="fill:none;stroke:#000000;stroke-width:15;stroke-linecap:round;stroke-linejoin:round;stroke-miterlimit:10;" x1="342.038" y1="272.455" x2="342.251" y2="504.26"/>
</g>
<g>
</g>
<g>
</g>
<g>
</g>
<g>
</g>
<g>
</g>
<g>
</g>
<g>
</g>
<g>
</g>
<g>
</g>
<g>
</g>
<g>
</g>
<g>
</g>
<g>
</g>
<g>
</g>
<g>
</g>
</svg>
