<svg version="1.1" id="Capa_1" xmlns="http://www.w3.org/2000/svg" x="0" y="0" viewBox="0 0 511.912 511.912" xml:space="preserve"><path d="M433.495 149.719l12.401 25.071a5.056 5.056 0 0 0 3.812 2.764l27.683 3.998c4.151.599 5.812 5.698 2.812 8.627l-20.012 19.541a5.06 5.06 0 0 0-1.451 4.48l4.753 27.563c.712 4.133-3.623 7.288-7.336 5.34l-24.769-12.994a5.057 5.057 0 0 0-4.708.004l-24.746 13.037c-3.71 1.955-8.051-1.193-7.345-5.327l4.704-27.572a5.058 5.058 0 0 0-1.459-4.477l-20.047-19.505c-3.005-2.924-1.353-8.025 2.797-8.632l27.676-4.047a5.06 5.06 0 0 0 3.807-2.772l12.356-25.093c1.85-3.76 7.212-3.765 9.072-.006z" fill="#ffd15c"/><path d="M458.628 214.104l4.802 27.85c.689 3.999-3.506 7.053-7.099 5.168l-19.444-10.201a4.892 4.892 0 0 1-2.55-3.504l-2.438-14.135a4.893 4.893 0 0 1 1.405-4.335l14.678-14.333c2.903-2.835 1.295-7.768-2.72-8.349l-20.307-2.936a4.896 4.896 0 0 1-3.687-2.673l-6.416-12.962a4.893 4.893 0 0 1-.004-4.335l9.714-19.724c1.793-3.641 6.982-3.645 8.781-.007l12.53 25.333a4.896 4.896 0 0 0 3.688 2.675l27.971 4.04c4.016.58 5.624 5.514 2.721 8.349l-20.22 19.744a4.89 4.89 0 0 0-1.405 4.335z" fill="#e8b44d"/><path d="M458.528 255.286c-2.01.002-4.03-.482-5.897-1.461l-23.592-12.377-23.569 12.419c-4.29 2.261-9.395 1.895-13.322-.952a12.57 12.57 0 0 1-5.043-12.365l4.481-26.262-19.092-18.577a12.571 12.571 0 0 1-3.213-12.964 12.57 12.57 0 0 1 10.204-8.617l26.359-3.854 11.768-23.9c2.143-4.351 6.486-7.056 11.336-7.061s9.198 2.694 11.349 7.041l11.811 23.879 26.367 3.808a12.57 12.57 0 0 1 10.218 8.599 12.57 12.57 0 0 1-3.19 12.969l-19.06 18.612 4.527 26.253a12.57 12.57 0 0 1-5.021 12.375 12.62 12.62 0 0 1-7.421 2.435zm-71.776-66.881l16.372 15.93a12.647 12.647 0 0 1 3.647 11.194l-3.842 22.518 20.211-10.649a12.648 12.648 0 0 1 11.771-.01L455.141 238l-3.882-22.513a12.652 12.652 0 0 1 3.628-11.2l16.344-15.96-22.61-3.264a12.652 12.652 0 0 1-9.529-6.91l-10.129-20.478-10.092 20.495a12.651 12.651 0 0 1-9.515 6.927l-22.604 3.308zm65.946-16.98h.01-.01z"/><path d="M260.338 10.407l35.099 70.96a5.06 5.06 0 0 0 3.812 2.765l78.353 11.315c4.151.599 5.812 5.698 2.812 8.627l-56.641 55.309a5.06 5.06 0 0 0-1.451 4.48l13.451 78.014c.712 4.133-3.623 7.288-7.336 5.34l-70.105-36.777a5.057 5.057 0 0 0-4.708.004l-70.039 36.901c-3.71 1.955-8.051-1.193-7.345-5.327l13.314-78.038a5.058 5.058 0 0 0-1.459-4.477l-56.738-55.208c-3.005-2.924-1.353-8.025 2.797-8.632l78.333-11.454a5.06 5.06 0 0 0 3.807-2.772l34.973-71.022c1.849-3.762 7.211-3.767 9.071-.008z" fill="#ffd15c"/><path d="M322.019 163.892l13.54 78.537c.693 4.019-3.523 7.087-7.135 5.193l-46.668-24.484a4.922 4.922 0 0 1-2.563-3.52l-7.229-41.902a4.92 4.92 0 0 1 1.086-4.007l42.316-50.216c2.324-2.757.99-6.996-2.495-7.925l-64.446-17.175a4.918 4.918 0 0 1-3.143-2.573l-17.264-34.903a4.92 4.92 0 0 1-.004-4.355L250.968 9.95c1.801-3.659 7.017-3.663 8.825-.008l35.335 71.432a4.923 4.923 0 0 0 3.707 2.689l78.886 11.396c4.036.583 5.651 5.541 2.734 8.39l-57.025 55.689a4.91 4.91 0 0 0-1.411 4.354z" fill="#e8b44d"/><path d="M87.427 150.025l12.401 25.071a5.056 5.056 0 0 0 3.812 2.764l27.683 3.998c4.151.599 5.812 5.698 2.812 8.627l-20.012 19.541a5.06 5.06 0 0 0-1.451 4.48l4.753 27.563c.712 4.133-3.623 7.289-7.336 5.34L85.32 234.415a5.057 5.057 0 0 0-4.708.004l-24.747 13.039c-3.71 1.955-8.051-1.193-7.345-5.327l4.704-27.572a5.058 5.058 0 0 0-1.459-4.477l-20.047-19.505c-3.005-2.924-1.353-8.025 2.797-8.632l27.676-4.047a5.06 5.06 0 0 0 3.807-2.772l12.356-25.093c1.851-3.762 7.213-3.767 9.073-.008z" fill="#ffd15c"/><path d="M112.709 214.411l4.802 27.85c.689 3.999-3.506 7.053-7.099 5.168l-19.444-10.201a4.892 4.892 0 0 1-2.55-3.504l-2.438-14.135a4.893 4.893 0 0 1 1.405-4.335l14.678-14.333c2.903-2.835 1.295-7.768-2.72-8.349l-20.307-2.936a4.896 4.896 0 0 1-3.687-2.673L68.932 174a4.893 4.893 0 0 1-.004-4.335l9.714-19.724c1.793-3.641 6.982-3.645 8.781-.007l12.53 25.333a4.896 4.896 0 0 0 3.688 2.675l27.971 4.039c4.016.58 5.624 5.514 2.721 8.349l-20.22 19.744a4.9 4.9 0 0 0-1.404 4.337z" fill="#e8b44d"/><path d="M330.809 255.398a12.656 12.656 0 0 1-5.897-1.461l-68.928-36.16-68.863 36.282a12.575 12.575 0 0 1-13.322-.951 12.569 12.569 0 0 1-5.042-12.366l13.09-76.728-55.785-54.28a12.571 12.571 0 0 1-3.213-12.964 12.57 12.57 0 0 1 10.204-8.617L210.07 76.89l34.385-69.829C246.598 2.71 250.941.005 255.791 0s9.198 2.694 11.349 7.041l34.509 69.767 77.037 11.125a12.57 12.57 0 0 1 10.218 8.599 12.57 12.57 0 0 1-3.19 12.969l-55.689 54.378 13.225 76.705a12.57 12.57 0 0 1-5.02 12.375 12.587 12.587 0 0 1-7.421 2.439zm-74.839-53.126a12.649 12.649 0 0 1 5.887 1.447l65.566 34.396-12.581-72.964a12.65 12.65 0 0 1 3.626-11.197l52.975-51.73-73.279-10.581a12.649 12.649 0 0 1-9.53-6.912l-32.826-66.365-32.709 66.424a12.649 12.649 0 0 1-9.515 6.927l-73.263 10.712 53.064 51.633a12.653 12.653 0 0 1 3.648 11.194l-12.451 72.985 65.504-34.512a12.645 12.645 0 0 1 5.884-1.457zm46.269-124.27h.01-.01zM112.46 255.592c-2.01.002-4.03-.482-5.897-1.461L82.97 241.754l-23.569 12.419c-4.291 2.261-9.395 1.895-13.322-.952a12.57 12.57 0 0 1-5.043-12.365l4.481-26.262-19.092-18.577a12.571 12.571 0 0 1-3.213-12.964 12.57 12.57 0 0 1 10.204-8.617l26.359-3.854 11.768-23.9a12.572 12.572 0 0 1 11.336-7.061 12.573 12.573 0 0 1 11.349 7.041l11.811 23.879 26.367 3.808a12.57 12.57 0 0 1 10.218 8.599 12.571 12.571 0 0 1-3.189 12.969l-19.06 18.612 4.527 26.253a12.57 12.57 0 0 1-5.021 12.375 12.62 12.62 0 0 1-7.421 2.435zm-71.777-66.881l16.372 15.93a12.65 12.65 0 0 1 3.648 11.194l-3.842 22.518 20.211-10.649a12.648 12.648 0 0 1 11.771-.01l20.23 10.613-3.882-22.513a12.652 12.652 0 0 1 3.628-11.2l16.344-15.96-22.61-3.264a12.652 12.652 0 0 1-9.529-6.91l-10.129-20.478-10.092 20.495a12.651 12.651 0 0 1-9.515 6.927l-22.605 3.307zm65.947-16.979h.01-.01z"/><path d="M170.016 272.607l.212 231.805m34.192-231.836l.213 231.805m34.192-231.835l.212 231.805m34.374-36.975l.031 36.945m-.213-231.805l.132 148.819m34.273-148.85l.212 231.805m34.192-231.835l.213 231.805" fill="none" stroke="#000" stroke-width="15" stroke-linecap="round" stroke-linejoin="round" stroke-miterlimit="10"/></svg>