<svg version="1.1" id="Capa_1" xmlns="http://www.w3.org/2000/svg" x="0" y="0" viewBox="0 0 58 58" xml:space="preserve"><path fill="#ecf0f1" d="M0 0h58v58H0z"/><path fill="#546a79" d="M0 0h58v12H0z"/><circle cx="6" cy="6" r="3" fill="#ed7161"/><circle cx="15" cy="6" r="3" fill="#f0c419"/><circle cx="24" cy="6" r="3" fill="#4fba6f"/><path fill="#95a5a5" d="M0 12h7v46H0z"/><path d="M3 18h1a1 1 0 1 0 0-2H3a1 1 0 1 0 0 2zm1 2H3a1 1 0 1 0 0 2h1a1 1 0 1 0 0-2zm0 4H3a1 1 0 1 0 0 2h1a1 1 0 1 0 0-2zm0 4H3a1 1 0 1 0 0 2h1a1 1 0 1 0 0-2zm0 4H3a1 1 0 1 0 0 2h1a1 1 0 1 0 0-2zm0 4H3a1 1 0 1 0 0 2h1a1 1 0 1 0 0-2zm0 4H3a1 1 0 1 0 0 2h1a1 1 0 1 0 0-2zm0 4H3a1 1 0 1 0 0 2h1a1 1 0 1 0 0-2zm0 4H3a1 1 0 1 0 0 2h1a1 1 0 1 0 0-2zm0 4H3a1 1 0 1 0 0 2h1a1 1 0 1 0 0-2z" fill="#bdc3c7"/><path d="M25 18H12a1 1 0 1 1 0-2h13a1 1 0 1 1 0 2z" fill="#8697cb"/><path d="M39 18H29a1 1 0 1 1 0-2h10a1 1 0 1 1 0 2z" fill="#f0c419"/><path d="M45 18h-2a1 1 0 1 1 0-2h2a1 1 0 1 1 0 2z" fill="#4fba6f"/><path d="M50 22H35a1 1 0 1 1 0-2h15a1 1 0 1 1 0 2z" fill="#8697cb"/><path d="M31 22H17a1 1 0 1 1 0-2h14a1 1 0 1 1 0 2zm-18 0h-1a1 1 0 1 1 0-2h1a1 1 0 1 1 0 2z" fill="#e64c3c"/><path d="M21 26h-9a1 1 0 1 1 0-2h9a1 1 0 1 1 0 2z" fill="#8697cb"/><path d="M27 26h-2a1 1 0 1 1 0-2h2a1 1 0 1 1 0 2z" fill="#f0c419"/><path d="M45 26H31a1 1 0 1 1 0-2h14a1 1 0 1 1 0 2z" fill="#4fba6f"/><path d="M25 30H12a1 1 0 1 1 0-2h13a1 1 0 1 1 0 2z" fill="#f0c419"/><path d="M39 30H29a1 1 0 1 1 0-2h10a1 1 0 1 1 0 2z" fill="#4fba6f"/><path d="M43 34h-8a1 1 0 1 1 0-2h8a1 1 0 1 1 0 2z" fill="#f0c419"/><path d="M31 34H17a1 1 0 1 1 0-2h14a1 1 0 1 1 0 2z" fill="#8697cb"/><path d="M13 34h-1a1 1 0 1 1 0-2h1a1 1 0 1 1 0 2z" fill="#4fba6f"/><path d="M21 38h-9a1 1 0 1 1 0-2h9a1 1 0 1 1 0 2z" fill="#f0c419"/><path d="M27 38h-2a1 1 0 1 1 0-2h2a1 1 0 1 1 0 2z" fill="#8697cb"/><path d="M46 38H31a1 1 0 1 1 0-2h15a1 1 0 1 1 0 2z" fill="#e64c3c"/><path d="M25 42H12a1 1 0 1 1 0-2h13a1 1 0 1 1 0 2z" fill="#8697cb"/><path d="M39 42H29a1 1 0 1 1 0-2h10a1 1 0 1 1 0 2z" fill="#4fba6f"/><path d="M50 42h-7a1 1 0 1 1 0-2h7a1 1 0 1 1 0 2z" fill="#e64c3c"/><path d="M39 46h-4a1 1 0 1 1 0-2h4a1 1 0 1 1 0 2z" fill="#8697cb"/><path d="M31 46H17a1 1 0 1 1 0-2h14a1 1 0 1 1 0 2z" fill="#e64c3c"/><path d="M13 46h-1a1 1 0 1 1 0-2h1a1 1 0 1 1 0 2z" fill="#f0c419"/><path d="M21 50h-9a1 1 0 1 1 0-2h9a1 1 0 1 1 0 2z" fill="#4fba6f"/><path d="M27 50h-2a1 1 0 1 1 0-2h2a1 1 0 1 1 0 2z" fill="#8697cb"/><path d="M38 50h-7a1 1 0 1 1 0-2h7a1 1 0 1 1 0 2z" fill="#e64c3c"/><path d="M43 50h-1a1 1 0 1 1 0-2h1a1 1 0 1 1 0 2z" fill="#f0c419"/></svg>