<svg version="1" xmlns="http://www.w3.org/2000/svg" width="933.333" height="933.333" viewBox="0 0 700.000000 700.000000"><path d="M276.8 105.5c-.2.1-3.4.5-7.3.8-19 1.7-44.4 7.8-63.6 15.2C151.5 142.9 107 182.6 78.7 235c-12 22.3-22.3 54.2-25.3 78-.3 2.5-.8 5.6-1.1 7-1 4.5-1.2 48.3-.2 55 5.1 34.6 12.2 58.2 25.4 83.8 6.8 13.4 20.6 35.1 26 40.8.5.6 3 3.5 5.5 6.5 6.2 7.4 19.2 20.3 27 26.9 3.6 3 6.7 5.7 7 6 .3.3 3.7 2.9 7.6 5.7 36.7 26.4 78.9 42.2 122.7 45.9 21.7 1.8 46 .5 67.2-3.7 46.7-9.4 85.9-29.5 121.2-62.5l4.4-4.1-9-8.9c-5-4.9-9.4-8.9-9.9-8.9s-4.2 3-8.3 6.7c-12.1 10.8-26 21.1-35.9 26.4-1.9 1-4.2 2.4-5 3-3.7 2.6-24.6 11.6-35.6 15.2-24.5 8.2-45.4 11.3-72.4 10.7-10.2-.2-20.1-.6-22-1-1.9-.3-6.6-1-10.5-1.6-33-5.1-73.2-23.2-99.5-44.9-10-8.2-29.8-28.6-36.4-37.3-14.6-19.5-25.6-40.5-33.1-63.1-4.4-13.2-8.8-32.6-10.1-44.6-1-8.9-1.2-37.4-.3-43.5.4-2.8 1-7.3 1.3-10 5.1-43.1 27-88.1 58.4-120 5.4-5.5 11.8-11.8 14.2-13.9 5.7-5.3 20.4-16.2 26-19.4 2.5-1.4 4.7-2.9 5-3.2.3-.4 7-3.9 15-7.8 60.7-29.9 129.7-30.2 190-1 10.5 5.1 27.9 15.2 32.3 18.8.6.5 3.9 3.1 7.3 5.7 3.4 2.7 9.1 7.6 12.9 11.1l6.8 6.2 9.3-9.2 9.4-9.2-3.2-3.4c-13.7-14.3-42.6-34.4-64.3-44.6-15.2-7.2-41.7-16.3-52.6-18-2-.3-4.2-.8-5-1-1.9-.7-7.4-1.5-20.4-3.1-9.3-1.1-42.7-1.9-43.7-1z"/><path d="M556.8 238.5c-.2.1-3.7.5-7.8.9-9.9.8-11.9 1.2-22.5 4.7-33.4 11.2-61.3 42.2-68.1 75.9-1.8 9-2.3 24.6-1.1 34.4 3.6 30.2 24.4 60.6 52.2 76.8 6.3 3.6 20 9.2 25.1 10.3 15.8 3.3 38.6 3.1 52.4-.5 38.8-9.9 71.1-46.8 75.7-86.3.9-7.9.8-22.6-.1-29.7-1.8-13-9.9-32.3-17.9-43-17.3-22.9-41-37.9-66.2-41.9-6.5-1-21.1-2.1-21.7-1.6zm22.6 21.1c14.4 3.4 26.4 10.3 38.1 21.9 13.5 13.3 21 27.5 24.6 46.3 1.5 7.9.6 27.3-1.6 35.7-2.7 10-9.9 23.3-17.4 32.1-17 20-37.7 29.6-63.6 29.5-20.8 0-39.2-7.4-54.9-22.2-12.3-11.4-19.3-22.2-24.2-36.9-2.5-7.7-2.8-9.8-2.8-23.5-.1-16.8 1.6-24.9 7.5-36.8 12.6-25 37.8-44.2 61.9-47.2 3-.4 5.6-.8 5.8-1 1-.9 20.4.6 26.6 2.1zM276.5 264c-10.4 2.4-15.5 4.3-23.4 8.6-21.7 11.9-36.4 30.9-42.8 55.3-2.5 9.5-2.5 31 .1 41.1 6.5 25.4 23.9 46.3 47.9 57.5 31.8 14.8 70.8 8 96-16.9 17.5-17.4 26-38.8 25.3-64.1-.3-13.9-2.1-21.4-7.6-33.2-11.1-23.9-31.2-40.7-56.5-47.4-11.2-2.9-28.4-3.3-39-.9zM86.9 520.5c-6.8 1.4-10.9 3.5-15.5 8.2-10.9 10.9-11.5 29.1-1.3 40.7 11.9 13.4 33.1 13.4 45-.1 18.5-21.1-.7-54.5-28.2-48.8z"/></svg>