<svg version="1.1" id="Layer_1" xmlns="http://www.w3.org/2000/svg" x="0" y="0" viewBox="0 0 512 512" xml:space="preserve"><path d="M366.345 406.069H66.207c-9.751 0-17.655-7.904-17.655-17.655V17.655C48.552 7.904 56.456 0 66.207 0h300.138C376.096 0 384 7.904 384 17.655v370.759c0 9.751-7.904 17.655-17.655 17.655z" fill="#f1f4fb"/><path d="M384 388.414v-76.992c-.907.322-1.869.494-2.751.882-6.307-6.593-14.733-11.025-24.111-11.964a40.49 40.49 0 0 0-8.448.039v-92.93c0-21.903-17.82-39.723-39.723-39.724a40.5 40.5 0 0 0-4.036.202c-20.012 2.004-35.689 19.916-35.689 40.781v101.773l-21.581 21.581c-15.241 15.241-21.393 36.866-16.456 57.847l3.802 16.16h131.338c9.75 0 17.655-7.905 17.655-17.655z" fill="#d5dced"/><circle cx="128" cy="105.931" r="26.483" fill="#b4e66e"/><circle cx="128" cy="203.034" r="26.483" fill="#dae169"/><circle cx="128" cy="300.138" r="26.483" fill="#ffdc64"/><path d="M331.034 229.517H189.793c-4.879 0-8.828-3.953-8.828-8.828s3.948-8.828 8.828-8.828h141.241c4.879 0 8.828 3.953 8.828 8.828s-3.948 8.828-8.828 8.828z" fill="#7f8499"/><path d="M295.724 194.207H189.793a8.826 8.826 0 0 1-8.828-8.828 8.826 8.826 0 0 1 8.828-8.828h105.931a8.826 8.826 0 0 1 8.828 8.828 8.826 8.826 0 0 1-8.828 8.828z" fill="#5b5d6e"/><path d="M331.034 326.621H189.793c-4.879 0-8.828-3.953-8.828-8.828s3.948-8.828 8.828-8.828h141.241c4.879 0 8.828 3.953 8.828 8.828s-3.948 8.828-8.828 8.828z" fill="#7f8499"/><path d="M295.724 291.31H189.793c-4.879 0-8.828-3.953-8.828-8.828s3.948-8.828 8.828-8.828h105.931c4.879 0 8.828 3.953 8.828 8.828s-3.948 8.828-8.828 8.828z" fill="#5b5d6e"/><path d="M331.034 132.414H189.793a8.826 8.826 0 0 1-8.828-8.828 8.826 8.826 0 0 1 8.828-8.828h141.241a8.826 8.826 0 0 1 8.828 8.828 8.826 8.826 0 0 1-8.828 8.828z" fill="#7f8499"/><path d="M295.724 97.103H189.793a8.826 8.826 0 0 1-8.828-8.828 8.826 8.826 0 0 1 8.828-8.828h105.931a8.826 8.826 0 0 1 8.828 8.828 8.825 8.825 0 0 1-8.828 8.828z" fill="#5b5d6e"/><path d="M443.656 335.563c-13.21-1.323-24.345 9.015-24.345 21.954v-7.569c0-11.544-8.306-22.063-19.794-23.213-13.209-1.323-24.344 9.015-24.344 21.954v-7.569c0-11.544-8.306-22.063-19.794-23.213-13.209-1.323-24.344 9.015-24.344 21.954V207.448c0-12.939-11.135-23.277-24.345-21.954-11.486 1.15-19.793 11.669-19.793 23.213v109.086l-26.752 26.752a44.14 44.14 0 0 0-11.754 41.32l18.47 78.495c6.567 27.913 31.475 47.64 60.15 47.64h74.645c34.127 0 61.793-27.666 61.793-61.793v-91.431c-.001-11.544-8.306-22.063-19.793-23.213z" fill="#f0c087"/><path d="M339.862 361.377a8.829 8.829 0 0 0 8.828-8.828v-34.194c-10.052 2.061-17.655 10.844-17.655 21.506v12.687a8.827 8.827 0 0 0 8.827 8.829zM384 370.205a8.829 8.829 0 0 0 8.828-8.828v-34.194c-10.052 2.061-17.655 10.844-17.655 21.506v12.687a8.827 8.827 0 0 0 8.827 8.829zm44.138 8.827a8.829 8.829 0 0 0 8.828-8.828V336.01c-10.052 2.061-17.655 10.844-17.655 21.506v12.687a8.827 8.827 0 0 0 8.827 8.829zM288.885 464.36l-20.467-86.985a28.482 28.482 0 0 1 7.585-26.663l10.893-10.894v22.113a8.829 8.829 0 0 0 17.656 0V185.933c-10.344 2.173-17.655 11.972-17.655 22.773v109.087l-26.752 26.752a44.14 44.14 0 0 0-11.754 41.32l18.47 78.495c6.567 27.913 31.475 47.64 60.15 47.64h22.026c-28.677 0-53.584-19.727-60.152-47.64z" fill="#e6af78"/></svg>