<svg height="504pt" viewBox="0 0 504 504" width="504pt" xmlns="http://www.w3.org/2000/svg"><path d="m368 88v48l-32-32s-36.640625 16-80 16c-43.441406 0-80-16-80-16l-32 31.910156v-39.910156c0-53.039062 42.878906-96 96-96h80v40c26.488281 0 48 21.441406 48 48zm0 0" fill="#ffce54"/><path d="m320 40v-40h-32v56c26.488281 0 48 13.441406 48 40v8l32 32v-48c0-26.558594-21.511719-48-48-48zm0 0" fill="#f6bb42"/><path d="m368 136v40c0 44.640625-26.160156 83.191406-64 101.191406-14.550781 6.960938-30.871094 10.808594-48 10.808594-17.191406 0-33.441406-3.839844-48-10.808594-37.832031-18-64-56.550781-64-101.191406v-40.089844l32-31.910156s36.558594 16 80 16c43.359375 0 80-16 80-16zm0 0" fill="#eac6bb"/><path d="m336 104v72c0 44.640625-26.160156 83.191406-64 101.191406-9.9375 4.753906-20.734375 7.921875-32.015625 9.527344 5.238281.761719 10.558594 1.273438 16.015625 1.273438 17.128906 0 33.449219-3.839844 48-10.808594 37.839844-18 64-56.550782 64-101.191406v-40zm0 0" fill="#d3b1a9"/><path d="m304 277.191406v34.808594l-24 16-24-8-24 8-24-16v-34.808594c14.558594 6.960938 30.808594 10.808594 48 10.808594 17.128906 0 33.449219-3.839844 48-10.808594zm0 0" fill="#f5f7fa"/><path d="m256 456c0 13.28125-10.800781 24-24 24h-120v-112c0-30.960938 25.046875-56 56-56h40l24 16 24-8 24 8 24-16h40c30.878906 0 56 25.039062 56 56v112h-120c-13.273438 0-24-10.71875-24-24zm0 0" fill="#5d9cec"/><path d="m344 312h-32c30.878906 0 56 25.039062 56 56v112h32v-112c0-30.960938-25.121094-56-56-56zm0 0" fill="#4a89dc"/><g fill="#656d78"><path d="m464.238281 224c0-4.425781-3.582031-8-8-8h-.078125c-4.417968 0-7.953125 3.574219-7.953125 8s3.617188 8 8.039063 8c4.410156 0 7.992187-3.574219 7.992187-8zm0 0"/><path d="m456 88c-26.472656 0-48 21.527344-48 48 0 4.425781 3.574219 8 8 8s8-3.574219 8-8c0-17.648438 14.351562-32 32-32s32 14.351562 32 32c0 17.328125-8.71875 23.558594-18.808594 30.792969-9.4375 6.757812-21.191406 15.175781-21.191406 33.207031 0 4.425781 3.574219 8 8 8s8-3.574219 8-8c0-9.375 4.976562-13.375 14.503906-20.199219 11.359375-8.128906 25.496094-18.25 25.496094-43.800781 0-26.472656-21.527344-48-48-48zm0 0"/><path d="m48.238281 216h-.078125c-4.417968 0-7.953125 3.574219-7.953125 8s3.617188 8 8.039063 8c4.417968 0 8-3.574219 8-8s-3.589844-8-8.007813-8zm0 0"/><path d="m80 136c0 17.328125-8.71875 23.558594-18.808594 30.792969-9.4375 6.757812-21.191406 15.175781-21.191406 33.207031 0 4.425781 3.574219 8 8 8s8-3.574219 8-8c0-9.375 4.976562-13.375 14.503906-20.199219 11.359375-8.128906 25.496094-18.25 25.496094-43.800781 0-26.472656-21.527344-48-48-48s-48 21.527344-48 48c0 4.425781 3.574219 8 8 8s8-3.574219 8-8c0-17.648438 14.351562-32 32-32s32 14.351562 32 32zm0 0"/></g><path d="m256.238281 368c4.417969 0 8-3.574219 8-8s-3.582031-8-8-8h-.078125c-4.417968 0-7.953125 3.574219-7.953125 8s3.617188 8 8.03125 8zm0 0" fill="#f5f7fa"/><path d="m256.238281 408c4.417969 0 8-3.574219 8-8s-3.582031-8-8-8h-.078125c-4.417968 0-7.953125 3.574219-7.953125 8s3.617188 8 8.03125 8zm0 0" fill="#f5f7fa"/><path d="m471.382812 476.945312c-.40625-.984374-.992187-1.875-1.734374-2.609374l-15.992188-15.992188c-3.128906-3.128906-8.183594-3.128906-11.3125 0s-3.128906 8.183594 0 11.3125l2.34375 2.34375h-164.6875c-8.824219 0-16-7.175781-16-16v-16c0-4.425781-3.574219-8-8-8s-8 3.574219-8 8v16c0 8.824219-7.175781 16-16 16h-164.6875l2.34375-2.34375c3.128906-3.128906 3.128906-8.183594 0-11.3125s-8.183594-3.128906-11.3125 0l-15.992188 15.992188c-.742187.734374-1.328124 1.625-1.734374 2.609374-.816407 1.949219-.816407 4.160157 0 6.109376.40625.984374.992187 1.875 1.734374 2.609374l15.992188 15.992188c1.558594 1.558594 3.609375 2.34375 5.65625 2.34375s4.097656-.785156 5.65625-2.34375c3.128906-3.128906 3.128906-8.183594 0-11.3125l-2.34375-2.34375h164.6875c9.601562 0 18.136719-4.335938 24-11.054688 5.863281 6.71875 14.398438 11.054688 24 11.054688h164.6875l-2.34375 2.34375c-3.128906 3.128906-3.128906 8.183594 0 11.3125 1.558594 1.558594 3.609375 2.34375 5.65625 2.34375s4.097656-.785156 5.65625-2.34375l15.992188-15.992188c.742187-.734374 1.328124-1.625 1.734374-2.609374.800782-1.949219.800782-4.160157 0-6.109376zm0 0" fill="#ed5565"/></svg>