<svg height="672" viewBox="0 0 504 504" width="672" xmlns="http://www.w3.org/2000/svg"><path d="M368 88v48l-32-32s-36.64 16-80 16c-43.441 0-80-16-80-16l-32 31.91V96c0-53.04 42.879-96 96-96h80v40c26.488 0 48 21.441 48 48zm0 0" fill="#ffce54"/><path d="M320 40V0h-32v56c26.488 0 48 13.441 48 40v8l32 32V88c0-26.559-21.512-48-48-48zm0 0" fill="#f6bb42"/><path d="M368 136v40c0 44.64-26.16 83.191-64 101.191C289.45 284.152 273.129 288 256 288c-17.191 0-33.441-3.84-48-10.809-37.832-18-64-56.55-64-101.191v-40.09L176 104s36.559 16 80 16c43.36 0 80-16 80-16zm0 0" fill="#eac6bb"/><path d="M336 104v72c0 44.64-26.16 83.191-64 101.191-9.938 4.754-20.734 7.922-32.016 9.528 5.239.761 10.559 1.273 16.016 1.273 17.129 0 33.45-3.84 48-10.808 37.84-18 64-56.551 64-101.192v-40zm0 0" fill="#d3b1a9"/><path d="M304 277.191V312l-24 16-24-8-24 8-24-16v-34.809C222.559 284.152 238.809 288 256 288c17.129 0 33.45-3.84 48-10.809zm0 0" fill="#f5f7fa"/><path d="M256 456c0 13.281-10.8 24-24 24H112V368c0-30.96 25.047-56 56-56h40l24 16 24-8 24 8 24-16h40c30.879 0 56 25.04 56 56v112H280c-13.273 0-24-10.719-24-24zm0 0" fill="#5d9cec"/><path d="M344 312h-32c30.879 0 56 25.04 56 56v112h32V368c0-30.96-25.121-56-56-56zm0 0" fill="#4a89dc"/><path d="M464.238 224c0-4.426-3.582-8-8-8h-.078c-4.418 0-7.953 3.574-7.953 8s3.617 8 8.04 8a7.994 7.994 0 0 0 7.991-8zM456 88c-26.473 0-48 21.527-48 48 0 4.426 3.574 8 8 8s8-3.574 8-8c0-17.648 14.352-32 32-32s32 14.352 32 32c0 17.328-8.719 23.559-18.809 30.793C459.754 173.551 448 181.969 448 200c0 4.426 3.574 8 8 8s8-3.574 8-8c0-9.375 4.977-13.375 14.504-20.2C489.864 171.673 504 161.55 504 136c0-26.473-21.527-48-48-48zM48.238 216h-.078c-4.418 0-7.953 3.574-7.953 8s3.617 8 8.04 8c4.417 0 8-3.574 8-8s-3.59-8-8.009-8zM80 136c0 17.328-8.719 23.559-18.809 30.793C51.754 173.551 40 181.969 40 200c0 4.426 3.574 8 8 8s8-3.574 8-8c0-9.375 4.977-13.375 14.504-20.2C81.864 171.673 96 161.55 96 136c0-26.473-21.527-48-48-48S0 109.527 0 136c0 4.426 3.574 8 8 8s8-3.574 8-8c0-17.648 14.352-32 32-32s32 14.352 32 32zm0 0" fill="#656d78"/><path d="M256.238 368c4.418 0 8-3.574 8-8s-3.582-8-8-8h-.078c-4.418 0-7.953 3.574-7.953 8s3.617 8 8.031 8zm0 40c4.418 0 8-3.574 8-8s-3.582-8-8-8h-.078c-4.418 0-7.953 3.574-7.953 8s3.617 8 8.031 8zm0 0" fill="#f5f7fa"/><path d="M471.383 476.945a7.904 7.904 0 0 0-1.735-2.61l-15.992-15.991c-3.129-3.13-8.183-3.13-11.312 0s-3.13 8.183 0 11.312l2.344 2.344H280c-8.824 0-16-7.176-16-16v-16c0-4.426-3.574-8-8-8s-8 3.574-8 8v16c0 8.824-7.176 16-16 16H67.312l2.344-2.344c3.13-3.129 3.13-8.183 0-11.312s-8.183-3.13-11.312 0l-15.992 15.992a7.904 7.904 0 0 0-1.735 2.61 7.926 7.926 0 0 0 0 6.109 7.904 7.904 0 0 0 1.735 2.61l15.992 15.991C59.902 503.215 61.954 504 64 504s4.098-.785 5.656-2.344a7.99 7.99 0 0 0 0-11.312L67.312 488H232c9.602 0 18.137-4.336 24-11.055 5.863 6.72 14.398 11.055 24 11.055h164.688l-2.344 2.344a7.99 7.99 0 0 0 0 11.312c1.558 1.559 3.61 2.344 5.656 2.344s4.098-.785 5.656-2.344l15.992-15.992a7.904 7.904 0 0 0 1.735-2.61c.8-1.949.8-4.16 0-6.109zm0 0" fill="#ed5565"/></svg>