<svg version="1.1" id="Capa_1" xmlns="http://www.w3.org/2000/svg" x="0" y="0" viewBox="0 0 467.871 467.871" xml:space="preserve"><path d="M392.098 344.131c-6.597-5.014-16.007-3.729-21.019 2.868a135.56 135.56 0 0 1-2.957 3.751c-15.046 18.411-35.315 33.36-60.321 44.474a12.31 12.31 0 0 0-.369.17c-39.456 18.831-85.618 21.405-129.896 7.274-38.875-12.657-70.505-37.162-94.017-72.837-17.462-27.997-26.613-58.428-27.264-90.524-.016-.781-.015-1.564-.021-2.346h18.402c6.919 0 10.384-8.365 5.491-13.257L46.7 190.277a7.766 7.766 0 0 0-10.983 0L2.29 223.704c-4.892 4.892-1.427 13.257 5.491 13.257H26.21c.24 38.722 10.983 75.351 31.963 108.92.062.099.125.196.188.294 27.356 41.581 64.327 70.186 109.971 85.046 21.87 6.979 44.152 10.447 66.102 10.447 29.833-.001 59.045-6.407 85.737-19.113 31.267-13.929 56.432-33.243 74.793-57.405 5.013-6.596 3.729-16.006-2.866-21.019zm67.992-110.255h-18.428a212.024 212.024 0 0 0-.364-12.362c-1.913-32.411-11.568-64.326-27.921-92.295-15.945-27.271-38.292-50.932-64.626-68.426-26.774-17.787-57.774-29.226-89.649-33.079-35.426-4.283-71.452.578-104.185 14.052-32.1 13.213-60.653 34.522-82.572 61.623-5.21 6.44-4.211 15.886 2.229 21.096 6.442 5.209 15.886 4.211 21.096-2.23 1.12-1.385 2.264-2.75 3.424-4.1 18.274-21.253 41.418-38.016 67.242-48.646 27.995-11.523 58.83-15.678 89.166-12.011 27.25 3.294 53.754 13.074 76.648 28.284 22.546 14.979 41.679 35.234 55.329 58.58 13.98 23.91 22.235 51.2 23.871 78.92a182.842 182.842 0 0 1 .313 10.595h-18.426c-6.919 0-10.384 8.365-5.491 13.257l33.427 33.427a7.766 7.766 0 0 0 10.983 0l33.427-33.427c4.89-4.893 1.425-13.258-5.493-13.258z"/></svg>