<svg height="493pt" viewBox="-8 0 493 493" width="493pt" xmlns="http://www.w3.org/2000/svg"><path d="M0 0h323v459H0zm0 0" fill="#5a6470"/><path d="M255 493L0 459V0l255 34zm0 0" fill="#36afad"/><path d="M221 246.5c0 9.39-7.61 17-17 17s-17-7.61-17-17 7.61-17 17-17 17 7.61 17 17zm0 0" fill="#fcf05a"/><path d="M204 272c-14.082 0-25.5-11.418-25.5-25.5S189.918 221 204 221s25.5 11.418 25.5 25.5c-.016 14.078-11.422 25.484-25.5 25.5zm0-34c-4.695 0-8.5 3.805-8.5 8.5s3.805 8.5 8.5 8.5 8.5-3.805 8.5-8.5a8.509 8.509 0 0 0-8.5-8.5zm0 0" fill="#fcf05a"/><path d="M476 153l-85-59.5V119H289v68h102v25.5zm0 0" fill="#e9686a"/><path d="M187 102L68 85V51l119 17zm0 0" fill="#fff"/></svg>