<?xml version="1.0" encoding="UTF-8" standalone="no"?>
<svg
   xmlns:dc="http://purl.org/dc/elements/1.1/"
   xmlns:cc="http://creativecommons.org/ns#"
   xmlns:rdf="http://www.w3.org/1999/02/22-rdf-syntax-ns#"
   xmlns:svg="http://www.w3.org/2000/svg"
   xmlns="http://www.w3.org/2000/svg"
   xmlns:sodipodi="http://sodipodi.sourceforge.net/DTD/sodipodi-0.dtd"
   xmlns:inkscape="http://www.inkscape.org/namespaces/inkscape"
   id="c91eade4-4c8d-41b4-a0eb-65ba12a5cb27"
   data-name="Layer 1"
   width="126"
   height="93"
   viewBox="0 0 126 93"
   version="1.1"
   sodipodi:docname="footer-house-2.svg"
   inkscape:version="0.92.3 (2405546, 2018-03-11)">
  <metadata
     id="metadata29">
    <rdf:RDF>
      <cc:Work
         rdf:about="">
        <dc:format>image/svg+xml</dc:format>
        <dc:type
           rdf:resource="http://purl.org/dc/dcmitype/StillImage" />
        <dc:title></dc:title>
      </cc:Work>
    </rdf:RDF>
  </metadata>
  <sodipodi:namedview
     pagecolor="#ffffff"
     bordercolor="#666666"
     borderopacity="1"
     objecttolerance="10"
     gridtolerance="10"
     guidetolerance="10"
     inkscape:pageopacity="0"
     inkscape:pageshadow="2"
     inkscape:window-width="1920"
     inkscape:window-height="1017"
     id="namedview27"
     showgrid="false"
     inkscape:zoom="9.015873"
     inkscape:cx="49.655714"
     inkscape:cy="27.61306"
     inkscape:window-x="-8"
     inkscape:window-y="-8"
     inkscape:window-maximized="1"
     inkscape:current-layer="g24" />
  <defs
     id="defs4">
    <style
       id="style2">
      .\36 d39b871-4916-4922-b231-20f534339564 {
        fill: #8d8d93;
      }
    </style>
  </defs>
  <g
     id="g24">
    <path
       class="6d39b871-4916-4922-b231-20f534339564"
       d="m 28,50 h 6 a 1,1 0 0 0 1,-1 V 35 a 1,1 0 0 0 -1,-1 h -6 a 1,1 0 0 0 -1,1 v 14 a 1,1 0 0 0 1,1 z m 1,-14 h 4 v 12 h -4 z"
       id="path6"
       inkscape:connector-curvature="0"
       style="fill:#ffffff" />
    <path
       class="6d39b871-4916-4922-b231-20f534339564"
       d="M 36,61 H 26 a 1,1 0 0 0 -1,1 v 11 a 1,1 0 0 0 1,1 h 10 a 1,1 0 0 0 1,-1 V 62 a 1,1 0 0 0 -1,-1 z m -1,11 h -8 v -9 h 8 z"
       id="path8"
       inkscape:connector-curvature="0"
       style="fill:#ffffff" />
    <path
       class="6d39b871-4916-4922-b231-20f534339564"
       d="m 74,65 h 8 a 1,1 0 0 0 1,-1 v -8 a 1,1 0 0 0 -1,-1 h -8 a 1,1 0 0 0 -1,1 v 8 a 1,1 0 0 0 1,1 z m 1,-8 h 6 v 6 h -6 z"
       id="path10"
       inkscape:connector-curvature="0"
       style="fill:#ffffff" />
    <path
       class="6d39b871-4916-4922-b231-20f534339564"
       d="m 75,46 h 6 a 1,1 0 0 0 1,-1 v -8 a 1,1 0 0 0 -1,-1 h -6 a 1,1 0 0 0 -1,1 v 8 a 1,1 0 0 0 1,1 z m 1,-8 h 4 v 6 h -4 z"
       id="path12"
       inkscape:connector-curvature="0"
       style="fill:#ffffff" />
    <path
       class="6d39b871-4916-4922-b231-20f534339564"
       d="m 103,46 h 6 a 1,1 0 0 0 1,-1 v -8 a 1,1 0 0 0 -1,-1 h -6 a 1,1 0 0 0 -1,1 v 8 a 1,1 0 0 0 1,1 z m 1,-8 h 4 v 6 h -4 z"
       id="path14"
       inkscape:connector-curvature="0"
       style="fill:#ffffff" />
    <path
       class="6d39b871-4916-4922-b231-20f534339564"
       d="m 54,34 h -6 a 1,1 0 0 0 -1,1 v 14 a 1,1 0 0 0 1,1 h 6 a 1,1 0 0 0 1,-1 V 35 A 1,1 0 0 0 54,34 Z M 53,48 H 49 V 36 h 4 z"
       id="path16"
       inkscape:connector-curvature="0"
       style="fill:#ffffff" />
    <path
       class="6d39b871-4916-4922-b231-20f534339564"
       d="m 125.5,32.14 -24,-14 A 1,1 0 0 0 101,18 H 56.95 L 42.54,0.72 a 2,2 0 0 0 -3.07,0 L 25,18.08 V 10 A 1,1 0 0 0 25,8 V 5 A 1,1 0 0 0 24,4 h -5 a 1,1 0 0 0 -1,1 v 3 a 1,1 0 0 0 0,2 v 16 a 1,1 0 0 0 0.08,0.38 l -3.61,4.34 A 2,2 0 0 0 14,32 v 4 a 2,2 0 0 0 3.54,1.28 L 18,36.72 V 82 a 1,1 0 0 0 0.08,0.42 c 0.29,0.7 0.29,0.7 7.84,0.72 h 4.38 10.75 c 11,0 22,-0.09 22,-0.09 a 1,1 0 0 0 1,-1 V 73 h 57 a 1,1 0 0 0 1,-1 V 34 h 3 a 1,1 0 0 0 0.45,-1.86 z M 100.73,20 121.3,32 H 68 A 2,2 0 0 0 67.54,30.72 L 58.6,20 Z M 20,6 h 3 v 2 h -3 z m 0,4 h 3 v 10 a 1,1 0 0 0 0.08,0.38 L 20,24.08 Z M 16,36 V 32 L 41,2 66,32 v 4 L 41,6 Z M 45.23,61 51,54.5 56.77,61 Z M 56,63 V 81 H 46 V 63 Z m 6,18 H 58 V 63 h 1 a 1,1 0 0 0 0.75,-1.66 l -8,-9 a 1,1 0 0 0 -1.49,0 l -8,9 A 1,1 0 0 0 43,63 h 1 v 18.08 c -10.94,0 -21,0 -24,0 V 34.32 L 41,9.12 62,34.32 Z M 102.17,55 106,50.54 109.83,55 h -7.65 z m 6.83,2 v 14 h -6 V 57 Z m 11,14 h -9 V 57 h 1 a 1,1 0 0 0 0.76,-1.65 l -6,-7 a 1,1 0 0 0 -1.52,0 l -6,7 A 1,1 0 0 0 100,57 h 1 V 71 H 64 V 36.72 l 0.46,0.56 A 2,2 0 0 0 68,36 v -2 h 52 z"
       id="path18"
       inkscape:connector-curvature="0"
       style="fill:#ffffff" />
    <path
       class="6d39b871-4916-4922-b231-20f534339564"
       d="M 7,55 A 7,7 0 0 0 6,68.92 V 92 a 1,1 0 0 0 2,0 V 68.92 A 7,7 0 0 0 7,55 Z m 0,12 a 5,5 0 1 1 5,-5 5,5 0 0 1 -5,5 z"
       id="path20"
       inkscape:connector-curvature="0"
       style="fill:#ffffff" />
    <circle
       class="6d39b871-4916-4922-b231-20f534339564"
       cx="8"
       cy="61"
       r="1"
       id="circle22"
       style="fill:#ffffff" />
  </g>
</svg>
