<svg xmlns="http://www.w3.org/2000/svg" id="c91eade4-4c8d-41b4-a0eb-65ba12a5cb27" data-name="Layer 1" width="126" height="93" version="1.1"><defs id="defs4"><style id="style2"/></defs><g id="g24"><path class="6d39b871-4916-4922-b231-20f534339564" d="M28 50h6a1 1 0 0 0 1-1V35a1 1 0 0 0-1-1h-6a1 1 0 0 0-1 1v14a1 1 0 0 0 1 1zm1-14h4v12h-4z" id="path6" fill="#fff"/><path class="6d39b871-4916-4922-b231-20f534339564" d="M36 61H26a1 1 0 0 0-1 1v11a1 1 0 0 0 1 1h10a1 1 0 0 0 1-1V62a1 1 0 0 0-1-1zm-1 11h-8v-9h8z" id="path8" fill="#fff"/><path class="6d39b871-4916-4922-b231-20f534339564" d="M74 65h8a1 1 0 0 0 1-1v-8a1 1 0 0 0-1-1h-8a1 1 0 0 0-1 1v8a1 1 0 0 0 1 1zm1-8h6v6h-6z" id="path10" fill="#fff"/><path class="6d39b871-4916-4922-b231-20f534339564" d="M75 46h6a1 1 0 0 0 1-1v-8a1 1 0 0 0-1-1h-6a1 1 0 0 0-1 1v8a1 1 0 0 0 1 1zm1-8h4v6h-4z" id="path12" fill="#fff"/><path class="6d39b871-4916-4922-b231-20f534339564" d="M103 46h6a1 1 0 0 0 1-1v-8a1 1 0 0 0-1-1h-6a1 1 0 0 0-1 1v8a1 1 0 0 0 1 1zm1-8h4v6h-4z" id="path14" fill="#fff"/><path class="6d39b871-4916-4922-b231-20f534339564" d="M54 34h-6a1 1 0 0 0-1 1v14a1 1 0 0 0 1 1h6a1 1 0 0 0 1-1V35a1 1 0 0 0-1-1zm-1 14h-4V36h4z" id="path16" fill="#fff"/><path class="6d39b871-4916-4922-b231-20f534339564" d="M125.5 32.14l-24-14a1 1 0 0 0-.5-.14H56.95L42.54.72a2 2 0 0 0-3.07 0L25 18.08V10a1 1 0 0 0 0-2V5a1 1 0 0 0-1-1h-5a1 1 0 0 0-1 1v3a1 1 0 0 0 0 2v16a1 1 0 0 0 .08.38l-3.61 4.34A2 2 0 0 0 14 32v4a2 2 0 0 0 3.54 1.28l.46-.56V82a1 1 0 0 0 .08.42c.29.7.29.7 7.84.72h15.13c11 0 22-.09 22-.09a1 1 0 0 0 1-1V73h57a1 1 0 0 0 1-1V34h3a1 1 0 0 0 .45-1.86zM100.73 20l20.57 12H68a2 2 0 0 0-.46-1.28L58.6 20zM20 6h3v2h-3zm0 4h3v10a1 1 0 0 0 .08.38L20 24.08zm-4 26v-4L41 2l25 30v4L41 6zm29.23 25L51 54.5l5.77 6.5zM56 63v18H46V63zm6 18h-4V63h1a1 1 0 0 0 .75-1.66l-8-9a1 1 0 0 0-1.49 0l-8 9A1 1 0 0 0 43 63h1v18.08H20V34.32l21-25.2 21 25.2zm40.17-26l3.83-4.46 3.83 4.46h-7.65zm6.83 2v14h-6V57zm11 14h-9V57h1a1 1 0 0 0 .76-1.65l-6-7a1 1 0 0 0-1.52 0l-6 7A1 1 0 0 0 100 57h1v14H64V36.72l.46.56A2 2 0 0 0 68 36v-2h52z" id="path18" fill="#fff"/><path class="6d39b871-4916-4922-b231-20f534339564" d="M7 55a7 7 0 0 0-1 13.92V92a1 1 0 0 0 2 0V68.92A7 7 0 0 0 7 55zm0 12a5 5 0 1 1 5-5 5 5 0 0 1-5 5z" id="path20" fill="#fff"/><circle class="6d39b871-4916-4922-b231-20f534339564" cx="8" cy="61" r="1" id="circle22" fill="#fff"/></g></svg>