<svg xmlns="http://www.w3.org/2000/svg" version="1.1" id="Capa_1" x="0" y="0" viewBox="0 0 345.834 345.834" xml:space="preserve" width="512" height="512"><g fill="#D80027"><path d="M339.798 260.429c.13-.026.257-.061.385-.094.109-.028.219-.051.326-.084.125-.038.247-.085.369-.129.108-.039.217-.074.324-.119.115-.048.226-.104.338-.157.109-.052.22-.1.327-.158.107-.057.208-.122.312-.184.107-.064.215-.124.319-.194.111-.074.214-.156.321-.236.09-.067.182-.13.27-.202.162-.133.316-.275.466-.421.027-.026.056-.048.083-.075.028-.028.052-.059.079-.088.144-.148.284-.3.416-.46.077-.094.144-.192.216-.289.074-.1.152-.197.221-.301.074-.111.139-.226.207-.34.057-.096.118-.19.171-.289.062-.115.114-.234.169-.351.049-.104.101-.207.146-.314.048-.115.086-.232.128-.349.041-.114.085-.227.12-.343.036-.118.062-.238.092-.358.029-.118.063-.234.086-.353.028-.141.045-.283.065-.425.014-.1.033-.199.043-.3.025-.249.038-.498.038-.748V92.76c0-4.143-3.357-7.5-7.5-7.5h-236.25c-.066 0-.13.008-.196.01a7.58 7.58 0 0 0-.764.059 7.04 7.04 0 0 0-1.092.223 7.721 7.721 0 0 0-.695.235 7.042 7.042 0 0 0-.965.462 8.024 8.024 0 0 0-.617.393 6.928 6.928 0 0 0-.591.466 7.54 7.54 0 0 0-.266.242 7.986 7.986 0 0 0-.288.294c-.047.05-.097.094-.142.145-.027.03-.048.063-.074.093a7.4 7.4 0 0 0-.27.338c-.064.084-.13.168-.19.254-.078.112-.15.227-.222.343-.059.095-.12.189-.174.286-.063.112-.118.227-.175.342-.052.105-.106.21-.153.317-.049.113-.092.23-.135.345-.043.113-.087.225-.124.339-.037.115-.067.232-.099.349-.032.12-.066.239-.093.36-.025.113-.042.228-.062.342-.022.13-.044.26-.06.39-.013.108-.019.218-.027.328-.01.14-.019.28-.021.421-.001.041-.006.081-.006.122v46.252c0 4.143 3.357 7.5 7.5 7.5s7.5-3.357 7.5-7.5v-29.595l66.681 59.037a7.577 7.577 0 0 0-.995.827l-65.687 65.687v-49.288c0-4.143-3.357-7.5-7.5-7.5s-7.5 3.357-7.5 7.5v9.164h-38.75c-4.143 0-7.5 3.357-7.5 7.5s3.357 7.5 7.5 7.5h38.75v43.231c0 4.143 3.357 7.5 7.5 7.5h236.25c.247 0 .494-.013.74-.037.115-.011.226-.033.339-.049.13-.018.258-.033.386-.058zm-8.964-25.462l-65.688-65.687c-.042-.042-.087-.077-.13-.117l49.383-41.897a7.5 7.5 0 0 0-9.705-11.437l-84.381 71.59-98.444-87.158h208.965v134.706zm-144.956-55.079a7.473 7.473 0 0 0 1.308-1.765l28.051 24.835a7.486 7.486 0 0 0 4.972 1.885 7.489 7.489 0 0 0 4.853-1.781l28.587-24.254c.26.38.553.743.89 1.08l65.687 65.687H120.191l65.687-65.687z"/><path d="M7.5 170.676h126.667c4.143 0 7.5-3.357 7.5-7.5s-3.357-7.5-7.5-7.5H7.5c-4.143 0-7.5 3.357-7.5 7.5s3.357 7.5 7.5 7.5zm13.125-41.331H77.5c4.143 0 7.5-3.357 7.5-7.5s-3.357-7.5-7.5-7.5H20.625c-4.143 0-7.5 3.357-7.5 7.5s3.357 7.5 7.5 7.5zM62.5 226.51h-55c-4.143 0-7.5 3.357-7.5 7.5s3.357 7.5 7.5 7.5h55c4.143 0 7.5-3.357 7.5-7.5s-3.357-7.5-7.5-7.5z"/></g></svg>