<svg height="511pt" viewBox="1 0 511.9995 511" width="511pt" xmlns="http://www.w3.org/2000/svg"><path d="m477.007812 270.5h-206.007812v-90h206.007812c5.015626 0 9.699219 2.503906 12.476563 6.679688l19.996094 30c3.359375 5.039062 3.359375 11.601562 0 16.640624l-19.996094 30c-2.777344 4.171876-7.460937 6.679688-12.476563 6.679688zm0 0" fill="#ff9f00"/><path d="m60 497.496094c-33.089844 0-60-26.90625-60-60 0-18.558594 8.980469-36.386719 24.007812-47.695313l5.992188-4.496093v-7.484376c0-33.414062 26.910156-60.320312 60-60.320312 28.898438 0 54.714844 20.609375 59.988281 48.996094l1.890625 10.125 10.121094 1.886718c28.390625 5.273438 49 30.089844 49 58.988282 0 33.09375-26.910156 60-60 60zm0 0" fill="#00b44b"/><path d="m477.007812 90.5h-191.007812l-15-42.5 15-47.5h191.007812c5.015626 0 9.699219 2.507812 12.476563 6.679688l19.996094 30c3.359375 5.039062 3.359375 11.601562 0 16.640624l-19.996094 30c-2.777344 4.171876-7.460937 6.679688-12.476563 6.679688zm0 0" fill="#ff9f00"/><path d="m22.515625 173.820312-19.996094-30c-3.359375-5.039062-3.359375-11.601562 0-16.640624l19.996094-30c2.777344-4.171876 7.460937-6.679688 12.476563-6.679688h206.007812v90h-206.007812c-5.015626 0-9.699219-2.507812-12.476563-6.679688zm0 0" fill="#fdbf00"/><path d="m286 .5v496.996094h-60v-481.996094c0-8.402344 6.597656-15 15-15zm0 0" fill="#725d57"/><path d="m256 .5h30v496.996094h-30zm0 0" fill="#53433f"/><path d="m511.996094 497.496094c0 8.398437-6.597656 15-15 15h-481.996094c-8.402344 0-15-6.601563-15-15 0-8.398438 6.597656-15 15-15h481.996094c8.402344 0 15 6.601562 15 15zm0 0" fill="#90e36a"/><path d="m511.996094 497.496094c0 8.398437-6.597656 15-15 15h-240.996094v-30h240.996094c8.402344 0 15 6.601562 15 15zm0 0" fill="#56c225"/></svg>