<svg height="511pt" viewBox="1 0 512 511" width="511pt" xmlns="http://www.w3.org/2000/svg"><path d="M477.008 270.5H271v-90h206.008c5.015 0 9.699 2.504 12.476 6.68l19.996 30a14.998 14.998 0 0 1 0 16.64l-19.996 30a14.989 14.989 0 0 1-12.476 6.68zm0 0" fill="#ff9f00"/><path d="M60 497.496c-33.09 0-60-26.906-60-60 0-18.558 8.98-36.387 24.008-47.695L30 385.305v-7.485c0-33.414 26.91-60.32 60-60.32 28.898 0 54.715 20.61 59.988 48.996l1.89 10.125L162 378.508c28.39 5.273 49 30.09 49 58.988 0 33.094-26.91 60-60 60zm0 0" fill="#00b44b"/><path d="M477.008 90.5H286L271 48 286 .5h191.008c5.015 0 9.699 2.508 12.476 6.68l19.996 30a14.998 14.998 0 0 1 0 16.64l-19.996 30a14.989 14.989 0 0 1-12.476 6.68zm0 0" fill="#ff9f00"/><path d="M22.516 173.82l-19.996-30a14.998 14.998 0 0 1 0-16.64l19.996-30a14.989 14.989 0 0 1 12.476-6.68H241v90H34.992a14.988 14.988 0 0 1-12.476-6.68zm0 0" fill="#fdbf00"/><path d="M286 .5v496.996h-60V15.5c0-8.402 6.598-15 15-15zm0 0" fill="#725d57"/><path d="M256 .5h30v496.996h-30zm0 0" fill="#53433f"/><path d="M511.996 497.496c0 8.399-6.598 15-15 15H15c-8.402 0-15-6.601-15-15 0-8.398 6.598-15 15-15h481.996c8.402 0 15 6.602 15 15zm0 0" fill="#90e36a"/><path d="M511.996 497.496c0 8.399-6.598 15-15 15H256v-30h240.996c8.402 0 15 6.602 15 15zm0 0" fill="#56c225"/></svg>