<svg version="1.1" id="Capa_1" xmlns="http://www.w3.org/2000/svg" x="0" y="0" viewBox="0 0 511.744 511.744" xml:space="preserve"><path d="M459.767 91.955c0 22.078-17.896 39.979-39.979 39.979-22.084 0-39.98-17.901-39.98-39.979 0-22.079 17.896-39.98 39.98-39.98 22.083 0 39.979 17.901 39.979 39.98z" fill="#ffce54"/><path d="M402.828 108.915c-13.682-13.673-15.367-34.791-5.092-50.314a40.258 40.258 0 0 0-6.215 5.083c-15.617 15.617-15.617 40.929 0 56.542 15.609 15.613 40.924 15.613 56.533 0a40.118 40.118 0 0 0 5.092-6.224c-15.523 10.284-36.646 8.594-50.318-5.087z" fill="#fff" opacity=".5"/><path fill="#5d9cec" d="M387.805 227.886H123.938L99.95 347.824h311.843z"/><path fill="#ffce54" d="M387.805 459.767V347.824H123.938v111.943h-7.996v15.993h279.859v-15.993z"/><path d="M3.998 475.762h503.75v35.982H3.998zm8.062-31.276c-.008-.242-.07-.468-.07-.71 0-13.243 10.737-23.988 23.988-23.988 6.169 0 11.744 2.397 15.992 6.224 4.248-3.826 9.823-6.224 15.992-6.224 13.251 0 23.987 10.745 23.987 23.988 0 .242-.062.468-.07.71 4.686 1.633 8.066 6.044 8.066 11.283v15.992H3.995v-15.992c0-5.239 3.38-9.65 8.065-11.283z" fill="#a0d468"/><path d="M12.06 444.486c-.008-.242-.07-.468-.07-.71 0-13.243 10.737-23.988 23.988-23.988 1.406 0 2.757.164 4.092.398-11.385 1.874-20.083 11.682-20.083 23.59 0 .242.062.468.07.71-4.685 1.633-8.066 6.044-8.066 11.283v15.992H3.995v-15.992c0-5.239 3.38-9.65 8.065-11.283z" opacity=".2"/><path d="M83.884 444.486c.008-.242.07-.468.07-.71 0-11.908-8.698-21.716-20.083-23.59 1.335-.234 2.686-.398 4.092-.398 13.251 0 23.987 10.745 23.987 23.988 0 .242-.062.468-.07.71 4.686 1.633 8.066 6.044 8.066 11.283v15.992H91.95v-15.992c0-5.239-3.381-9.65-8.066-11.283z" fill="#fff" opacity=".5"/><path fill="#ffd2a6" d="M3.995 467.762h95.95v7.996H3.995z"/><path d="M499.67 444.486c.016-.242.078-.468.078-.71 0-13.243-10.744-23.988-23.988-23.988-6.168 0-11.744 2.397-15.992 6.224-4.248-3.826-9.822-6.224-15.992-6.224-13.258 0-23.986 10.745-23.986 23.988 0 .242.062.468.062.71-4.686 1.633-8.059 6.044-8.059 11.283v15.992h95.951v-15.992c0-5.239-3.389-9.65-8.074-11.283z" fill="#a0d468"/><path d="M499.67 444.486c.016-.242.078-.468.078-.71 0-13.243-10.744-23.988-23.988-23.988-1.406 0-2.764.164-4.092.398 11.385 1.874 20.084 11.682 20.084 23.59 0 .242-.062.468-.078.71 4.686 1.633 8.074 6.044 8.074 11.283v15.992h7.996v-15.992c0-5.239-3.389-9.65-8.074-11.283z" opacity=".2"/><path d="M427.846 444.486c0-.242-.062-.468-.062-.71 0-11.908 8.699-21.716 20.084-23.59-1.342-.234-2.686-.398-4.092-.398-13.258 0-23.986 10.745-23.986 23.988 0 .242.062.468.062.71-4.686 1.633-8.059 6.044-8.059 11.283v15.992h7.996v-15.992c0-5.239 3.373-9.65 8.057-11.283z" fill="#fff" opacity=".5"/><path fill="#ffd2a6" d="M411.791 467.762h95.95v7.996h-95.95z"/><path d="M283.857 243.893c0 16.312 15.992 23.988 15.992 23.988s-15.992 7.676-15.992 23.987c0-16.312-15.992-23.987-15.992-23.987s15.992-7.675 15.992-23.988z" fill="#e6e9ed"/><path fill="#5d9cec" d="M163.921 379.811h79.96v55.972h-79.96z"/><path fill="#ed5565" d="M283.861 379.811h55.971v95.95h-55.971z"/><path d="M123.941 347.822h263.87v7.996h-263.87z" opacity=".2"/><path fill="#fff" d="M183.982 435.78h16.557l14.997-55.971h-16.558zm20.696 0h4.139l14.996-55.971h-4.139z" opacity=".3"/><path d="M283.861 379.811h7.996v95.95h-7.996z" opacity=".2"/><path fill="#fff" d="M331.831 379.811h7.996v95.95h-7.996z" opacity=".3"/><path d="M123.941 355.822h7.996v103.95h-7.996z" opacity=".2"/><path fill="#fff" d="M379.811 355.822h7.996v103.95h-7.996z" opacity=".5"/><path d="M115.941 459.771h7.996v15.992h-7.996z" opacity=".2"/><path fill="#fff" d="M387.811 459.771h7.996v15.992h-7.996z" opacity=".5"/><path fill="#fff" d="M205.174 347.824h24.831l32.128-119.938H237.31zm33.12 0h4.139l32.147-119.938h-4.154z" opacity=".3"/><g fill="#3a3847"><path d="M292.096 431.783c-2.211 0-4.037-1.788-4.037-3.998s1.748-3.998 3.951-3.998h.086c2.201 0 3.998 1.788 3.998 3.998s-1.797 3.998-3.998 3.998zM3.998 479.758A3.995 3.995 0 0 1 0 475.76v-7.996a3.996 3.996 0 0 1 3.998-3.998 3.997 3.997 0 0 1 3.998 3.998v7.996a3.995 3.995 0 0 1-3.998 3.998zm15.992 0a3.995 3.995 0 0 1-3.998-3.998v-7.996a3.996 3.996 0 0 1 3.998-3.998 3.997 3.997 0 0 1 3.998 3.998v7.996a3.995 3.995 0 0 1-3.998 3.998zm15.992 0a3.995 3.995 0 0 1-3.998-3.998v-7.996c0-2.209 1.788-3.998 3.998-3.998s3.998 1.789 3.998 3.998v7.996a3.995 3.995 0 0 1-3.998 3.998zm15.992 0a3.995 3.995 0 0 1-3.998-3.998v-7.996c0-2.209 1.788-3.998 3.998-3.998s3.998 1.789 3.998 3.998v7.996a3.995 3.995 0 0 1-3.998 3.998zm15.992 0a3.995 3.995 0 0 1-3.998-3.998v-7.996a3.996 3.996 0 0 1 3.998-3.998 3.997 3.997 0 0 1 3.998 3.998v7.996a3.995 3.995 0 0 1-3.998 3.998zm15.991 0a3.996 3.996 0 0 1-3.998-3.998v-7.996c0-2.209 1.788-3.998 3.998-3.998s3.998 1.789 3.998 3.998v7.996a3.995 3.995 0 0 1-3.998 3.998zm15.993 0a3.995 3.995 0 0 1-3.998-3.998v-7.996c0-2.209 1.788-3.998 3.998-3.998s3.998 1.789 3.998 3.998v7.996a3.995 3.995 0 0 1-3.998 3.998zm0-19.991a3.995 3.995 0 0 1-3.998-3.998c0-3.365-2.163-6.387-5.384-7.504a4.004 4.004 0 0 1-2.679-3.912l4.029-.203-3.951-.624c-.012-10.776-8.979-19.74-20.001-19.74-4.869 0-9.597 1.843-13.318 5.192a3.984 3.984 0 0 1-5.349 0c-3.721-3.35-8.448-5.192-13.317-5.192-11.021 0-19.99 8.964-19.99 19.99.055 1.749-.96 3.912-2.612 4.489-3.221 1.117-5.384 4.139-5.384 7.504a3.995 3.995 0 0 1-3.998 3.998A3.995 3.995 0 0 1 0 455.769c0-5.77 3.143-11.025 8.055-13.836.952-14.571 13.114-26.144 27.927-26.144 5.72 0 11.287 1.796 15.992 5.114 4.705-3.318 10.272-5.114 15.992-5.114 14.812 0 26.975 11.572 27.927 26.144 4.912 2.811 8.055 8.066 8.055 13.836a3.995 3.995 0 0 1-3.998 3.998zm311.843 19.991a3.995 3.995 0 0 1-3.998-3.998v-7.996a3.995 3.995 0 0 1 3.998-3.998 3.997 3.997 0 0 1 3.998 3.998v7.996a3.996 3.996 0 0 1-3.998 3.998zm15.99 0a3.996 3.996 0 0 1-3.998-3.998v-7.996a3.997 3.997 0 0 1 3.998-3.998 3.995 3.995 0 0 1 3.998 3.998v7.996a3.995 3.995 0 0 1-3.998 3.998zm15.992 0a3.996 3.996 0 0 1-3.998-3.998v-7.996a3.997 3.997 0 0 1 3.998-3.998 3.995 3.995 0 0 1 3.998 3.998v7.996a3.995 3.995 0 0 1-3.998 3.998zm15.992 0a3.996 3.996 0 0 1-3.998-3.998v-7.996a3.997 3.997 0 0 1 3.998-3.998 3.995 3.995 0 0 1 3.998 3.998v7.996a3.994 3.994 0 0 1-3.998 3.998zm15.993 0a3.996 3.996 0 0 1-3.998-3.998v-7.996c0-2.209 1.789-3.998 3.998-3.998s3.998 1.789 3.998 3.998v7.996a3.996 3.996 0 0 1-3.998 3.998zm15.992 0a3.995 3.995 0 0 1-3.998-3.998v-7.996a3.995 3.995 0 0 1 3.998-3.998 3.997 3.997 0 0 1 3.998 3.998v7.996a3.996 3.996 0 0 1-3.998 3.998zm15.992 0a3.995 3.995 0 0 1-3.998-3.998v-7.996a3.995 3.995 0 0 1 3.998-3.998 3.997 3.997 0 0 1 3.998 3.998v7.996a3.996 3.996 0 0 1-3.998 3.998zm0-19.991a3.994 3.994 0 0 1-3.998-3.998c0-3.365-2.164-6.387-5.381-7.504a4.011 4.011 0 0 1-2.686-3.912l4.029-.203-3.943-.624c-.016-10.776-8.98-19.74-20.006-19.74-4.865 0-9.596 1.843-13.314 5.192a3.992 3.992 0 0 1-5.355 0c-3.717-3.35-8.449-5.192-13.314-5.192-11.025 0-19.99 8.964-19.99 19.99.055 1.749-.959 3.912-2.615 4.489-3.217 1.117-5.379 4.139-5.379 7.504a3.995 3.995 0 0 1-3.998 3.998 3.994 3.994 0 0 1-3.998-3.998c0-5.77 3.139-11.025 8.059-13.836.943-14.571 13.109-26.144 27.922-26.144 5.717 0 11.291 1.796 15.992 5.114 4.701-3.318 10.277-5.114 15.992-5.114 14.812 0 26.979 11.572 27.924 26.144 4.92 2.811 8.059 8.066 8.059 13.836a3.998 3.998 0 0 1-4 3.998zm-111.943 19.991H115.942c-2.21 0-3.998-1.788-3.998-3.998s1.788-3.998 3.998-3.998h279.859c2.209 0 3.998 1.788 3.998 3.998s-1.789 3.998-3.998 3.998z"/><path d="M115.942 479.758a3.995 3.995 0 0 1-3.998-3.998v-15.992c0-2.209 1.788-3.998 3.998-3.998s3.998 1.789 3.998 3.998v15.992a3.995 3.995 0 0 1-3.998 3.998z"/><path d="M131.933 463.766h-15.992a3.995 3.995 0 0 1-3.998-3.998 3.996 3.996 0 0 1 3.998-3.998h15.992a3.996 3.996 0 0 1 3.998 3.998 3.995 3.995 0 0 1-3.998 3.998zm263.868 15.992a3.995 3.995 0 0 1-3.998-3.998v-15.992a3.995 3.995 0 0 1 3.998-3.998 3.997 3.997 0 0 1 3.998 3.998v15.992a3.996 3.996 0 0 1-3.998 3.998z"/><path d="M395.801 463.766h-15.992a3.995 3.995 0 0 1-3.998-3.998 3.995 3.995 0 0 1 3.998-3.998h15.992a3.997 3.997 0 0 1 3.998 3.998 3.997 3.997 0 0 1-3.998 3.998zm-271.863 0a3.995 3.995 0 0 1-3.998-3.998V355.82a3.996 3.996 0 0 1 3.998-3.998 3.997 3.997 0 0 1 3.998 3.998v103.947a3.997 3.997 0 0 1-3.998 3.999z"/><path d="M387.805 463.766a3.995 3.995 0 0 1-3.998-3.998V355.82a3.995 3.995 0 0 1 3.998-3.998 3.997 3.997 0 0 1 3.998 3.998v103.947a3.997 3.997 0 0 1-3.998 3.999z"/><path d="M411.793 351.822H99.95a3.995 3.995 0 0 1-3.998-3.998 3.996 3.996 0 0 1 3.998-3.998h311.843a3.997 3.997 0 0 1 3.998 3.998 3.996 3.996 0 0 1-3.998 3.998z"/><path d="M99.954 351.822a3.993 3.993 0 0 1-3.924-4.778l23.988-119.943c.429-2.167 2.502-3.596 4.704-3.135a4 4 0 0 1 3.136 4.705L103.87 348.607a3.995 3.995 0 0 1-3.916 3.215zm311.831 0a3.995 3.995 0 0 1-3.912-3.217l-23.988-119.936a3.993 3.993 0 0 1 3.139-4.705c2.076-.453 4.264.964 4.701 3.135l23.988 119.943a3.988 3.988 0 0 1-3.141 4.7c-.258.057-.521.08-.787.08z"/><path d="M387.805 231.883H123.938c-2.21 0-3.998-1.788-3.998-3.998s1.788-3.998 3.998-3.998h263.867c2.209 0 3.998 1.788 3.998 3.998s-1.789 3.998-3.998 3.998zm-135.932 39.988H123.938a3.996 3.996 0 0 1-3.998-3.998 3.995 3.995 0 0 1 3.998-3.998h127.935a3.995 3.995 0 0 1 3.998 3.998 3.996 3.996 0 0 1-3.998 3.998zm93.391 39.972H115.942c-2.21 0-3.998-1.788-3.998-3.998s1.788-3.998 3.998-3.998h229.322c2.209 0 3.998 1.788 3.998 3.998s-1.789 3.998-3.998 3.998zM243.877 439.779h-79.96a3.995 3.995 0 0 1-3.998-3.998v-55.972a3.995 3.995 0 0 1 3.998-3.998h79.96a3.996 3.996 0 0 1 3.998 3.998v55.972a3.996 3.996 0 0 1-3.998 3.998zm-75.962-7.996h71.964v-47.976h-71.964v47.976z"/><path d="M203.897 439.779a3.996 3.996 0 0 1-3.998-3.998v-55.972c0-2.21 1.788-3.998 3.998-3.998s3.998 1.788 3.998 3.998v55.972a3.996 3.996 0 0 1-3.998 3.998z"/><path d="M243.877 411.792h-79.292c-2.21 0-3.998-1.788-3.998-3.998s1.788-3.997 3.998-3.997h79.292c2.209 0 3.998 1.787 3.998 3.997s-1.788 3.998-3.998 3.998zm39.98 59.97a3.995 3.995 0 0 1-3.998-3.998v-87.955a3.995 3.995 0 0 1 3.998-3.998 3.996 3.996 0 0 1 3.998 3.998v87.955a3.996 3.996 0 0 1-3.998 3.998z"/><path d="M339.828 383.807h-55.971c-2.211 0-3.998-1.788-3.998-3.998s1.787-3.998 3.998-3.998h55.971c2.211 0 3.998 1.788 3.998 3.998s-1.787 3.998-3.998 3.998z"/><path d="M339.828 471.762a3.996 3.996 0 0 1-3.998-3.998v-87.955a3.996 3.996 0 0 1 3.998-3.998 3.995 3.995 0 0 1 3.998 3.998v87.955a3.995 3.995 0 0 1-3.998 3.998zM162.321 343.826a3.992 3.992 0 0 1-3.963-4.544l14.379-103.948c.3-2.19 2.288-3.756 4.505-3.413a3.991 3.991 0 0 1 3.412 4.506l-14.379 103.947a3.999 3.999 0 0 1-3.954 3.452zm62.366 0c-.062 0-.125 0-.187-.008a3.996 3.996 0 0 1-3.811-4.178l4.782-103.943c.102-2.206 2.065-3.928 4.178-3.811a4 4 0 0 1 3.811 4.178l-4.783 103.951a3.995 3.995 0 0 1-3.99 3.811zm62.364 0a3.993 3.993 0 0 1-3.99-3.811l-1.492-31.983a3.989 3.989 0 0 1 3.803-4.178c2.133-.234 4.084 1.601 4.178 3.803l1.492 31.983a3.988 3.988 0 0 1-3.803 4.178c-.063.008-.126.008-.188.008zm62.359 0a3.99 3.99 0 0 1-3.951-3.451l-14.432-103.943a4 4 0 0 1 3.414-4.51c2.061-.347 4.201 1.219 4.504 3.409l14.432 103.952a3.995 3.995 0 0 1-3.967 4.543zm70.379-207.893c-24.246 0-43.979-19.729-43.979-43.978 0-24.25 19.732-43.978 43.979-43.978 24.244 0 43.977 19.728 43.977 43.978 0 24.249-19.733 43.978-43.977 43.978zm0-79.96c-19.842 0-35.982 16.141-35.982 35.982s16.141 35.981 35.982 35.981c19.84 0 35.98-16.14 35.98-35.981 0-19.842-16.14-35.982-35.98-35.982zm0 127.935a3.995 3.995 0 0 1-3.998-3.998v-31.983a3.995 3.995 0 0 1 3.998-3.998 3.994 3.994 0 0 1 3.996 3.998v31.983a3.994 3.994 0 0 1-3.996 3.998zm0-143.927a3.995 3.995 0 0 1-3.998-3.998V3.999a3.995 3.995 0 0 1 3.998-3.998 3.994 3.994 0 0 1 3.996 3.998v31.984a3.994 3.994 0 0 1-3.996 3.998zm43.977 132.144a3.982 3.982 0 0 1-3.459-1.999l-15.992-27.696a3.992 3.992 0 0 1 1.461-5.462c1.912-1.105 4.365-.46 5.457 1.464l15.992 27.696a3.993 3.993 0 0 1-3.459 5.997zM391.803 47.477a3.98 3.98 0 0 1-3.459-1.999l-15.993-27.689a3.993 3.993 0 0 1 1.459-5.462c1.906-1.097 4.357-.457 5.459 1.464l15.992 27.689a3.992 3.992 0 0 1-3.458 5.997zm104.158 92.454c-.68 0-1.367-.172-2-.535l-27.695-15.992a3.992 3.992 0 0 1-1.461-5.462c1.102-1.921 3.545-2.557 5.457-1.464l27.697 15.992a3.992 3.992 0 0 1 1.461 5.462 3.987 3.987 0 0 1-3.459 1.999zM371.32 67.967c-.68 0-1.367-.172-1.998-.535L341.617 51.44a3.992 3.992 0 0 1-1.461-5.462c1.094-1.909 3.553-2.553 5.459-1.464l27.705 15.992a3.993 3.993 0 0 1 1.459 5.462 3.99 3.99 0 0 1-3.459 1.999zm136.424 27.986h-31.977a3.997 3.997 0 0 1-3.998-3.998 3.996 3.996 0 0 1 3.998-3.998h31.977a3.996 3.996 0 0 1 3.998 3.998 3.997 3.997 0 0 1-3.998 3.998zm-143.92 0h-31.992a3.997 3.997 0 0 1-3.998-3.998 3.996 3.996 0 0 1 3.998-3.998h31.992a3.996 3.996 0 0 1 3.998 3.998 3.997 3.997 0 0 1-3.998 3.998zm104.447-27.986a3.98 3.98 0 0 1-3.459-1.999 3.992 3.992 0 0 1 1.461-5.462l27.688-15.992a3.991 3.991 0 0 1 5.459 1.464 3.992 3.992 0 0 1-1.461 5.462l-27.69 15.992a3.99 3.99 0 0 1-1.998.535zm-124.656 71.964a3.983 3.983 0 0 1-3.459-1.999 3.992 3.992 0 0 1 1.461-5.462l27.713-15.992a3.987 3.987 0 0 1 5.457 1.464 3.993 3.993 0 0 1-1.459 5.462l-27.713 15.992a4.015 4.015 0 0 1-2 .535zm104.166-92.454a3.998 3.998 0 0 1-3.459-5.997l15.984-27.689c1.094-1.909 3.553-2.549 5.459-1.464a3.993 3.993 0 0 1 1.459 5.462L451.24 45.478a3.986 3.986 0 0 1-3.459 1.999zM375.81 172.133a3.993 3.993 0 0 1-3.459-5.997l16-27.712c1.1-1.917 3.553-2.562 5.457-1.464a3.992 3.992 0 0 1 1.461 5.462l-16 27.712a3.98 3.98 0 0 1-3.459 1.999zm-91.953 123.733a3.995 3.995 0 0 1-3.998-3.998c0-18.568 17.506-27.228 18.256-27.587 1.99-.969 4.357-.117 5.326 1.851a4.009 4.009 0 0 1-1.844 5.341c-.562.281-13.742 6.902-13.742 20.396a3.996 3.996 0 0 1-3.998 3.997z"/><path d="M299.85 271.879c-.586 0-1.18-.125-1.734-.398-.75-.359-18.256-9.02-18.256-27.588a3.995 3.995 0 0 1 3.998-3.998 3.996 3.996 0 0 1 3.998 3.998c0 13.603 13.594 20.318 13.727 20.389a3.993 3.993 0 0 1 1.867 5.333 4 4 0 0 1-3.6 2.264z"/><path d="M267.873 271.879a4.005 4.005 0 0 1-3.6-2.249 4.007 4.007 0 0 1 1.842-5.341c.562-.281 13.744-6.903 13.744-20.396a3.995 3.995 0 0 1 3.998-3.998 3.996 3.996 0 0 1 3.998 3.998c0 18.568-17.508 27.229-18.258 27.588a3.889 3.889 0 0 1-1.724.398z"/><path d="M283.857 295.866a3.995 3.995 0 0 1-3.998-3.998c0-13.603-13.596-20.317-13.729-20.388a3.992 3.992 0 0 1-1.865-5.333c.959-1.999 3.365-2.835 5.332-1.866.75.359 18.258 9.019 18.258 27.587a3.996 3.996 0 0 1-3.998 3.998zm55.573-24.003h-23.59a3.997 3.997 0 0 1-3.998-3.998 3.996 3.996 0 0 1 3.998-3.998h23.59a3.995 3.995 0 0 1 3.998 3.998 3.995 3.995 0 0 1-3.998 3.998z"/></g></svg>