<?xml version="1.0" encoding="iso-8859-1"?>
<!-- Generator: Adobe Illustrator 19.0.0, SVG Export Plug-In . SVG Version: 6.00 Build 0)  -->
<svg version="1.1" id="Capa_1" xmlns="http://www.w3.org/2000/svg" xmlns:xlink="http://www.w3.org/1999/xlink" x="0px" y="0px"
	 viewBox="0 0 511.744 511.744" style="enable-background:new 0 0 511.744 511.744;" xml:space="preserve">
<path style="fill:#FFCE54;" d="M459.767,91.955c0,22.078-17.896,39.979-39.979,39.979c-22.084,0-39.98-17.901-39.98-39.979
	c0-22.079,17.896-39.98,39.98-39.98C441.871,51.975,459.767,69.876,459.767,91.955z"/>
<g style="opacity:0.5;">
	<path style="fill:#FFFFFF;" d="M402.828,108.915c-13.682-13.673-15.367-34.791-5.092-50.314c-2.193,1.456-4.279,3.146-6.215,5.083
		c-15.617,15.617-15.617,40.929,0,56.542c15.609,15.613,40.924,15.613,56.533,0c1.945-1.94,3.631-4.025,5.092-6.224
		C437.623,124.286,416.5,122.596,402.828,108.915z"/>
</g>
<polygon style="fill:#5D9CEC;" points="387.805,227.886 123.938,227.886 99.95,347.824 411.793,347.824 "/>
<polygon style="fill:#FFCE54;" points="387.805,459.767 387.805,347.824 123.938,347.824 123.938,459.767 115.942,459.767 
	115.942,475.76 395.801,475.76 395.801,459.767 "/>
<g>
	<rect x="3.998" y="475.762" style="fill:#A0D468;" width="503.75" height="35.982"/>
	<path style="fill:#A0D468;" d="M12.06,444.486c-0.008-0.242-0.07-0.468-0.07-0.71c0-13.243,10.737-23.988,23.988-23.988
		c6.169,0,11.744,2.397,15.992,6.224c4.248-3.826,9.823-6.224,15.992-6.224c13.251,0,23.987,10.745,23.987,23.988
		c0,0.242-0.062,0.468-0.07,0.71c4.686,1.633,8.066,6.044,8.066,11.283v15.992H3.995v-15.992
		C3.995,450.53,7.375,446.119,12.06,444.486z"/>
</g>
<g style="opacity:0.2;">
	<path d="M12.06,444.486c-0.008-0.242-0.07-0.468-0.07-0.71c0-13.243,10.737-23.988,23.988-23.988c1.406,0,2.757,0.164,4.092,0.398
		c-11.385,1.874-20.083,11.682-20.083,23.59c0,0.242,0.062,0.468,0.07,0.71c-4.685,1.633-8.066,6.044-8.066,11.283v15.992H3.995
		v-15.992C3.995,450.53,7.375,446.119,12.06,444.486z"/>
</g>
<g style="opacity:0.5;">
	<path style="fill:#FFFFFF;" d="M83.884,444.486c0.008-0.242,0.07-0.468,0.07-0.71c0-11.908-8.698-21.716-20.083-23.59
		c1.335-0.234,2.686-0.398,4.092-0.398c13.251,0,23.987,10.745,23.987,23.988c0,0.242-0.062,0.468-0.07,0.71
		c4.686,1.633,8.066,6.044,8.066,11.283v15.992H91.95v-15.992C91.95,450.53,88.569,446.119,83.884,444.486z"/>
</g>
<rect x="3.995" y="467.762" style="fill:#FFD2A6;" width="95.95" height="7.996"/>
<path style="fill:#A0D468;" d="M499.67,444.486c0.016-0.242,0.078-0.468,0.078-0.71c0-13.243-10.744-23.988-23.988-23.988
	c-6.168,0-11.744,2.397-15.992,6.224c-4.248-3.826-9.822-6.224-15.992-6.224c-13.258,0-23.986,10.745-23.986,23.988
	c0,0.242,0.062,0.468,0.062,0.71c-4.686,1.633-8.059,6.044-8.059,11.283v15.992h95.951v-15.992
	C507.744,450.53,504.355,446.119,499.67,444.486z"/>
<g style="opacity:0.2;">
	<path d="M499.67,444.486c0.016-0.242,0.078-0.468,0.078-0.71c0-13.243-10.744-23.988-23.988-23.988
		c-1.406,0-2.764,0.164-4.092,0.398c11.385,1.874,20.084,11.682,20.084,23.59c0,0.242-0.062,0.468-0.078,0.71
		c4.686,1.633,8.074,6.044,8.074,11.283v15.992h7.996v-15.992C507.744,450.53,504.355,446.119,499.67,444.486z"/>
</g>
<g style="opacity:0.5;">
	<path style="fill:#FFFFFF;" d="M427.846,444.486c0-0.242-0.062-0.468-0.062-0.71c0-11.908,8.699-21.716,20.084-23.59
		c-1.342-0.234-2.686-0.398-4.092-0.398c-13.258,0-23.986,10.745-23.986,23.988c0,0.242,0.062,0.468,0.062,0.71
		c-4.686,1.633-8.059,6.044-8.059,11.283v15.992h7.996v-15.992C419.789,450.53,423.162,446.119,427.846,444.486z"/>
</g>
<rect x="411.791" y="467.762" style="fill:#FFD2A6;" width="95.95" height="7.996"/>
<path style="fill:#E6E9ED;" d="M283.857,243.893c0,16.312,15.992,23.988,15.992,23.988s-15.992,7.676-15.992,23.987
	c0-16.312-15.992-23.987-15.992-23.987S283.857,260.206,283.857,243.893z"/>
<rect x="163.921" y="379.811" style="fill:#5D9CEC;" width="79.96" height="55.972"/>
<rect x="283.861" y="379.811" style="fill:#ED5565;" width="55.971" height="95.95"/>
<g style="opacity:0.2;">
	<rect x="123.941" y="347.822" width="263.87" height="7.996"/>
</g>
<g style="opacity:0.3;">
	<polygon style="fill:#FFFFFF;" points="183.982,435.78 200.539,435.78 215.536,379.809 198.978,379.809 	"/>
</g>
<g style="opacity:0.3;">
	<polygon style="fill:#FFFFFF;" points="204.678,435.78 208.817,435.78 223.813,379.809 219.674,379.809 	"/>
</g>
<g style="opacity:0.2;">
	<rect x="283.861" y="379.811" width="7.996" height="95.95"/>
</g>
<g style="opacity:0.3;">
	<rect x="331.831" y="379.811" style="fill:#FFFFFF;" width="7.996" height="95.95"/>
</g>
<g style="opacity:0.2;">
	<rect x="123.941" y="355.822" width="7.996" height="103.95"/>
</g>
<g style="opacity:0.5;">
	<rect x="379.811" y="355.822" style="fill:#FFFFFF;" width="7.996" height="103.95"/>
</g>
<g style="opacity:0.2;">
	<rect x="115.941" y="459.771" width="7.996" height="15.992"/>
</g>
<g style="opacity:0.5;">
	<rect x="387.811" y="459.771" style="fill:#FFFFFF;" width="7.996" height="15.992"/>
</g>
<g style="opacity:0.3;">
	<polygon style="fill:#FFFFFF;" points="205.174,347.824 230.005,347.824 262.133,227.886 237.31,227.886 	"/>
</g>
<g style="opacity:0.3;">
	<polygon style="fill:#FFFFFF;" points="238.294,347.824 242.433,347.824 274.58,227.886 270.426,227.886 	"/>
</g>
<g>
	<path style="fill:#3A3847;" d="M292.096,431.783c-2.211,0-4.037-1.788-4.037-3.998s1.748-3.998,3.951-3.998h0.086
		c2.201,0,3.998,1.788,3.998,3.998S294.297,431.783,292.096,431.783z"/>
	<path style="fill:#3A3847;" d="M3.998,479.758c-2.21,0-3.998-1.788-3.998-3.998v-7.996c0-2.209,1.788-3.998,3.998-3.998
		c2.209,0,3.998,1.789,3.998,3.998v7.996C7.996,477.97,6.208,479.758,3.998,479.758z"/>
	<path style="fill:#3A3847;" d="M19.99,479.758c-2.21,0-3.998-1.788-3.998-3.998v-7.996c0-2.209,1.788-3.998,3.998-3.998
		c2.209,0,3.998,1.789,3.998,3.998v7.996C23.988,477.97,22.2,479.758,19.99,479.758z"/>
	<path style="fill:#3A3847;" d="M35.982,479.758c-2.21,0-3.998-1.788-3.998-3.998v-7.996c0-2.209,1.788-3.998,3.998-3.998
		s3.998,1.789,3.998,3.998v7.996C39.98,477.97,38.192,479.758,35.982,479.758z"/>
	<path style="fill:#3A3847;" d="M51.974,479.758c-2.21,0-3.998-1.788-3.998-3.998v-7.996c0-2.209,1.788-3.998,3.998-3.998
		s3.998,1.789,3.998,3.998v7.996C55.972,477.97,54.184,479.758,51.974,479.758z"/>
	<path style="fill:#3A3847;" d="M67.966,479.758c-2.21,0-3.998-1.788-3.998-3.998v-7.996c0-2.209,1.788-3.998,3.998-3.998
		c2.209,0,3.998,1.789,3.998,3.998v7.996C71.964,477.97,70.176,479.758,67.966,479.758z"/>
	<path style="fill:#3A3847;" d="M83.957,479.758c-2.209,0-3.998-1.788-3.998-3.998v-7.996c0-2.209,1.788-3.998,3.998-3.998
		s3.998,1.789,3.998,3.998v7.996C87.955,477.97,86.167,479.758,83.957,479.758z"/>
	<path style="fill:#3A3847;" d="M99.95,479.758c-2.21,0-3.998-1.788-3.998-3.998v-7.996c0-2.209,1.788-3.998,3.998-3.998
		s3.998,1.789,3.998,3.998v7.996C103.948,477.97,102.16,479.758,99.95,479.758z"/>
	<path style="fill:#3A3847;" d="M99.95,459.767c-2.21,0-3.998-1.787-3.998-3.998c0-3.365-2.163-6.387-5.384-7.504
		c-1.651-0.577-2.737-2.162-2.679-3.912l4.029-0.203l-3.951-0.624c-0.012-10.776-8.979-19.74-20.001-19.74
		c-4.869,0-9.597,1.843-13.318,5.192c-1.515,1.375-3.834,1.375-5.349,0c-3.721-3.35-8.448-5.192-13.317-5.192
		c-11.021,0-19.99,8.964-19.99,19.99c0.055,1.749-0.96,3.912-2.612,4.489c-3.221,1.117-5.384,4.139-5.384,7.504
		c0,2.211-1.789,3.998-3.998,3.998c-2.21,0-3.998-1.787-3.998-3.998c0-5.77,3.143-11.025,8.055-13.836
		c0.952-14.571,13.114-26.144,27.927-26.144c5.72,0,11.287,1.796,15.992,5.114c4.705-3.318,10.272-5.114,15.992-5.114
		c14.812,0,26.975,11.572,27.927,26.144c4.912,2.811,8.055,8.066,8.055,13.836C103.948,457.98,102.16,459.767,99.95,459.767z"/>
	<path style="fill:#3A3847;" d="M411.793,479.758c-2.211,0-3.998-1.788-3.998-3.998v-7.996c0-2.209,1.787-3.998,3.998-3.998
		c2.209,0,3.998,1.789,3.998,3.998v7.996C415.791,477.97,414.002,479.758,411.793,479.758z"/>
	<path style="fill:#3A3847;" d="M427.783,479.758c-2.209,0-3.998-1.788-3.998-3.998v-7.996c0-2.209,1.789-3.998,3.998-3.998
		c2.211,0,3.998,1.789,3.998,3.998v7.996C431.781,477.97,429.994,479.758,427.783,479.758z"/>
	<path style="fill:#3A3847;" d="M443.775,479.758c-2.209,0-3.998-1.788-3.998-3.998v-7.996c0-2.209,1.789-3.998,3.998-3.998
		c2.211,0,3.998,1.789,3.998,3.998v7.996C447.773,477.97,445.986,479.758,443.775,479.758z"/>
	<path style="fill:#3A3847;" d="M459.767,479.758c-2.209,0-3.998-1.788-3.998-3.998v-7.996c0-2.209,1.789-3.998,3.998-3.998
		c2.211,0,3.998,1.789,3.998,3.998v7.996C463.766,477.97,461.978,479.758,459.767,479.758z"/>
	<path style="fill:#3A3847;" d="M475.76,479.758c-2.209,0-3.998-1.788-3.998-3.998v-7.996c0-2.209,1.789-3.998,3.998-3.998
		s3.998,1.789,3.998,3.998v7.996C479.758,477.97,477.969,479.758,475.76,479.758z"/>
	<path style="fill:#3A3847;" d="M491.752,479.758c-2.211,0-3.998-1.788-3.998-3.998v-7.996c0-2.209,1.787-3.998,3.998-3.998
		c2.209,0,3.998,1.789,3.998,3.998v7.996C495.75,477.97,493.961,479.758,491.752,479.758z"/>
	<path style="fill:#3A3847;" d="M507.744,479.758c-2.211,0-3.998-1.788-3.998-3.998v-7.996c0-2.209,1.787-3.998,3.998-3.998
		c2.209,0,3.998,1.789,3.998,3.998v7.996C511.742,477.97,509.953,479.758,507.744,479.758z"/>
	<path style="fill:#3A3847;" d="M507.744,459.767c-2.211,0-3.998-1.787-3.998-3.998c0-3.365-2.164-6.387-5.381-7.504
		c-1.654-0.577-2.74-2.162-2.686-3.912l4.029-0.203l-3.943-0.624c-0.016-10.776-8.98-19.74-20.006-19.74
		c-4.865,0-9.596,1.843-13.314,5.192c-1.529,1.375-3.826,1.375-5.355,0c-3.717-3.35-8.449-5.192-13.314-5.192
		c-11.025,0-19.99,8.964-19.99,19.99c0.055,1.749-0.959,3.912-2.615,4.489c-3.217,1.117-5.379,4.139-5.379,7.504
		c0,2.211-1.789,3.998-3.998,3.998c-2.211,0-3.998-1.787-3.998-3.998c0-5.77,3.139-11.025,8.059-13.836
		c0.943-14.571,13.109-26.144,27.922-26.144c5.717,0,11.291,1.796,15.992,5.114c4.701-3.318,10.277-5.114,15.992-5.114
		c14.812,0,26.979,11.572,27.924,26.144c4.92,2.811,8.059,8.066,8.059,13.836C511.742,457.98,509.953,459.767,507.744,459.767z"/>
	<path style="fill:#3A3847;" d="M395.801,479.758H115.942c-2.21,0-3.998-1.788-3.998-3.998s1.788-3.998,3.998-3.998h279.859
		c2.209,0,3.998,1.788,3.998,3.998S398.01,479.758,395.801,479.758z"/>
	<path style="fill:#3A3847;" d="M115.942,479.758c-2.21,0-3.998-1.788-3.998-3.998v-15.992c0-2.209,1.788-3.998,3.998-3.998
		s3.998,1.789,3.998,3.998v15.992C119.94,477.97,118.152,479.758,115.942,479.758z"/>
	<path style="fill:#3A3847;" d="M131.933,463.766h-15.992c-2.21,0-3.998-1.788-3.998-3.998c0-2.209,1.788-3.998,3.998-3.998h15.992
		c2.21,0,3.998,1.789,3.998,3.998C135.932,461.977,134.143,463.766,131.933,463.766z"/>
	<path style="fill:#3A3847;" d="M395.801,479.758c-2.211,0-3.998-1.788-3.998-3.998v-15.992c0-2.209,1.787-3.998,3.998-3.998
		c2.209,0,3.998,1.789,3.998,3.998v15.992C399.799,477.97,398.01,479.758,395.801,479.758z"/>
	<path style="fill:#3A3847;" d="M395.801,463.766h-15.992c-2.211,0-3.998-1.788-3.998-3.998c0-2.209,1.787-3.998,3.998-3.998h15.992
		c2.209,0,3.998,1.789,3.998,3.998C399.799,461.977,398.01,463.766,395.801,463.766z"/>
	<path style="fill:#3A3847;" d="M123.938,463.766c-2.21,0-3.998-1.788-3.998-3.998V355.82c0-2.209,1.788-3.998,3.998-3.998
		c2.209,0,3.998,1.789,3.998,3.998v103.947C127.936,461.977,126.147,463.766,123.938,463.766z"/>
	<path style="fill:#3A3847;" d="M387.805,463.766c-2.211,0-3.998-1.788-3.998-3.998V355.82c0-2.209,1.787-3.998,3.998-3.998
		c2.209,0,3.998,1.789,3.998,3.998v103.947C391.803,461.977,390.014,463.766,387.805,463.766z"/>
	<path style="fill:#3A3847;" d="M411.793,351.822H99.95c-2.21,0-3.998-1.788-3.998-3.998c0-2.209,1.788-3.998,3.998-3.998h311.843
		c2.209,0,3.998,1.789,3.998,3.998C415.791,350.034,414.002,351.822,411.793,351.822z"/>
	<path style="fill:#3A3847;" d="M99.954,351.822c-0.258,0-0.523-0.023-0.789-0.078c-2.163-0.43-3.569-2.537-3.135-4.7
		l23.988-119.943c0.429-2.167,2.502-3.596,4.704-3.135c2.163,0.433,3.569,2.538,3.136,4.705L103.87,348.607
		C103.491,350.512,101.82,351.822,99.954,351.822z"/>
	<path style="fill:#3A3847;" d="M411.785,351.822c-1.867,0-3.529-1.312-3.912-3.217l-23.988-119.936
		c-0.438-2.167,0.969-4.271,3.139-4.705c2.076-0.453,4.264,0.964,4.701,3.135l23.988,119.943c0.436,2.163-0.969,4.271-3.141,4.7
		C412.314,351.799,412.051,351.822,411.785,351.822z"/>
	<path style="fill:#3A3847;" d="M387.805,231.883H123.938c-2.21,0-3.998-1.788-3.998-3.998s1.788-3.998,3.998-3.998h263.867
		c2.209,0,3.998,1.788,3.998,3.998S390.014,231.883,387.805,231.883z"/>
	<path style="fill:#3A3847;" d="M251.873,271.871H123.938c-2.21,0-3.998-1.789-3.998-3.998c0-2.21,1.788-3.998,3.998-3.998h127.935
		c2.21,0,3.998,1.788,3.998,3.998C255.871,270.082,254.083,271.871,251.873,271.871z"/>
	<path style="fill:#3A3847;" d="M345.264,311.843H115.942c-2.21,0-3.998-1.788-3.998-3.998s1.788-3.998,3.998-3.998h229.322
		c2.209,0,3.998,1.788,3.998,3.998S347.473,311.843,345.264,311.843z"/>
	<path style="fill:#3A3847;" d="M243.877,439.779h-79.96c-2.21,0-3.998-1.788-3.998-3.998v-55.972c0-2.21,1.788-3.998,3.998-3.998
		h79.96c2.209,0,3.998,1.788,3.998,3.998v55.972C247.875,437.99,246.087,439.779,243.877,439.779z M167.915,431.783h71.964v-47.976
		h-71.964V431.783z"/>
	<path style="fill:#3A3847;" d="M203.897,439.779c-2.209,0-3.998-1.788-3.998-3.998v-55.972c0-2.21,1.788-3.998,3.998-3.998
		s3.998,1.788,3.998,3.998v55.972C207.895,437.99,206.107,439.779,203.897,439.779z"/>
	<path style="fill:#3A3847;" d="M243.877,411.792h-79.292c-2.21,0-3.998-1.788-3.998-3.998s1.788-3.997,3.998-3.997h79.292
		c2.209,0,3.998,1.787,3.998,3.997S246.087,411.792,243.877,411.792z"/>
	<path style="fill:#3A3847;" d="M283.857,471.762c-2.211,0-3.998-1.788-3.998-3.998v-87.955c0-2.21,1.787-3.998,3.998-3.998
		c2.209,0,3.998,1.788,3.998,3.998v87.955C287.855,469.974,286.066,471.762,283.857,471.762z"/>
	<path style="fill:#3A3847;" d="M339.828,383.807h-55.971c-2.211,0-3.998-1.788-3.998-3.998s1.787-3.998,3.998-3.998h55.971
		c2.211,0,3.998,1.788,3.998,3.998S342.039,383.807,339.828,383.807z"/>
	<path style="fill:#3A3847;" d="M339.828,471.762c-2.209,0-3.998-1.788-3.998-3.998v-87.955c0-2.21,1.789-3.998,3.998-3.998
		c2.211,0,3.998,1.788,3.998,3.998v87.955C343.826,469.974,342.039,471.762,339.828,471.762z"/>
	<path style="fill:#3A3847;" d="M162.321,343.826c-0.18,0-0.367-0.016-0.551-0.039c-2.19-0.304-3.717-2.318-3.412-4.505
		l14.379-103.948c0.3-2.19,2.288-3.756,4.505-3.413c2.19,0.301,3.717,2.319,3.412,4.506l-14.379,103.947
		C165.998,342.374,164.288,343.826,162.321,343.826z"/>
	<path style="fill:#3A3847;" d="M224.687,343.826c-0.062,0-0.125,0-0.187-0.008c-2.206-0.102-3.912-1.967-3.811-4.178l4.782-103.943
		c0.102-2.206,2.065-3.928,4.178-3.811c2.206,0.102,3.912,1.972,3.811,4.178l-4.783,103.951
		C228.58,342.155,226.811,343.826,224.687,343.826z"/>
	<path style="fill:#3A3847;" d="M287.051,343.826c-2.125,0-3.896-1.671-3.99-3.811l-1.492-31.983
		c-0.109-2.21,1.602-4.076,3.803-4.178c2.133-0.234,4.084,1.601,4.178,3.803l1.492,31.983c0.109,2.211-1.602,4.076-3.803,4.178
		C287.176,343.826,287.113,343.826,287.051,343.826z"/>
	<path style="fill:#3A3847;" d="M349.41,343.826c-1.961,0-3.678-1.444-3.951-3.451l-14.432-103.943
		c-0.303-2.187,1.227-4.209,3.414-4.51c2.061-0.347,4.201,1.219,4.504,3.409l14.432,103.952c0.305,2.187-1.227,4.201-3.412,4.505
		C349.785,343.81,349.598,343.826,349.41,343.826z"/>
	<path style="fill:#3A3847;" d="M419.789,135.933c-24.246,0-43.979-19.729-43.979-43.978c0-24.25,19.732-43.978,43.979-43.978
		c24.244,0,43.977,19.728,43.977,43.978C463.766,116.204,444.033,135.933,419.789,135.933z M419.789,55.973
		c-19.842,0-35.982,16.141-35.982,35.982s16.141,35.981,35.982,35.981c19.84,0,35.98-16.14,35.98-35.981
		C455.769,72.113,439.629,55.973,419.789,55.973z"/>
	<path style="fill:#3A3847;" d="M419.789,183.908c-2.211,0-3.998-1.788-3.998-3.998v-31.983c0-2.21,1.787-3.998,3.998-3.998
		c2.209,0,3.996,1.788,3.996,3.998v31.983C423.785,182.12,421.998,183.908,419.789,183.908z"/>
	<path style="fill:#3A3847;" d="M419.789,39.981c-2.211,0-3.998-1.788-3.998-3.998V3.999c0-2.21,1.787-3.998,3.998-3.998
		c2.209,0,3.996,1.788,3.996,3.998v31.984C423.785,38.193,421.998,39.981,419.789,39.981z"/>
	<path style="fill:#3A3847;" d="M463.766,172.125c-1.373,0-2.725-0.714-3.459-1.999l-15.992-27.696
		c-1.109-1.914-0.453-4.357,1.461-5.462c1.912-1.105,4.365-0.46,5.457,1.464l15.992,27.696c1.109,1.914,0.453,4.357-1.459,5.462
		C465.133,171.952,464.445,172.125,463.766,172.125z"/>
	<path style="fill:#3A3847;" d="M391.803,47.477c-1.375,0-2.727-0.715-3.459-1.999l-15.993-27.689
		c-1.109-1.913-0.453-4.357,1.459-5.462c1.906-1.097,4.357-0.457,5.459,1.464l15.992,27.689c1.109,1.913,0.453,4.357-1.461,5.462
		C393.168,47.306,392.482,47.477,391.803,47.477z"/>
	<path style="fill:#3A3847;" d="M495.961,139.931c-0.68,0-1.367-0.172-2-0.535l-27.695-15.992c-1.914-1.105-2.57-3.549-1.461-5.462
		c1.102-1.921,3.545-2.557,5.457-1.464l27.697,15.992c1.914,1.104,2.57,3.549,1.461,5.462
		C498.685,139.215,497.334,139.931,495.961,139.931z"/>
	<path style="fill:#3A3847;" d="M371.32,67.967c-0.68,0-1.367-0.172-1.998-0.535l-27.705-15.992
		c-1.914-1.105-2.57-3.549-1.461-5.462c1.094-1.909,3.553-2.553,5.459-1.464l27.705,15.992c1.912,1.105,2.568,3.549,1.459,5.462
		C374.045,67.248,372.695,67.967,371.32,67.967z"/>
	<path style="fill:#3A3847;" d="M507.744,95.953h-31.977c-2.209,0-3.998-1.789-3.998-3.998c0-2.21,1.789-3.998,3.998-3.998h31.977
		c2.209,0,3.998,1.788,3.998,3.998C511.742,94.164,509.953,95.953,507.744,95.953z"/>
	<path style="fill:#3A3847;" d="M363.824,95.953h-31.992c-2.209,0-3.998-1.789-3.998-3.998c0-2.21,1.789-3.998,3.998-3.998h31.992
		c2.209,0,3.998,1.788,3.998,3.998C367.822,94.164,366.033,95.953,363.824,95.953z"/>
	<path style="fill:#3A3847;" d="M468.271,67.967c-1.375,0-2.725-0.714-3.459-1.999c-1.109-1.913-0.453-4.357,1.461-5.462
		l27.688-15.992c1.906-1.101,4.357-0.457,5.459,1.464c1.109,1.913,0.453,4.357-1.461,5.462l-27.69,15.992
		C469.639,67.795,468.951,67.967,468.271,67.967z"/>
	<path style="fill:#3A3847;" d="M343.615,139.931c-1.381,0-2.725-0.719-3.459-1.999c-1.109-1.913-0.453-4.357,1.461-5.462
		l27.713-15.992c1.92-1.108,4.355-0.449,5.457,1.464c1.109,1.913,0.453,4.357-1.459,5.462l-27.713,15.992
		C344.982,139.758,344.295,139.931,343.615,139.931z"/>
	<path style="fill:#3A3847;" d="M447.781,47.477c-0.68,0-1.365-0.172-1.998-0.535c-1.914-1.105-2.57-3.549-1.461-5.462
		l15.984-27.689c1.094-1.909,3.553-2.549,5.459-1.464c1.912,1.104,2.568,3.549,1.459,5.462L451.24,45.478
		C450.508,46.759,449.156,47.477,447.781,47.477z"/>
	<path style="fill:#3A3847;" d="M375.81,172.133c-0.68,0-1.367-0.172-2-0.535c-1.912-1.105-2.568-3.549-1.459-5.462l16-27.712
		c1.1-1.917,3.553-2.562,5.457-1.464c1.914,1.105,2.57,3.549,1.461,5.462l-16,27.712
		C378.535,171.419,377.185,172.133,375.81,172.133z"/>
	<path style="fill:#3A3847;" d="M283.857,295.866c-2.211,0-3.998-1.788-3.998-3.998c0-18.568,17.506-27.228,18.256-27.587
		c1.99-0.969,4.357-0.117,5.326,1.851c0.959,1.983,0.133,4.372-1.844,5.341c-0.562,0.281-13.742,6.902-13.742,20.396
		C287.855,294.078,286.066,295.866,283.857,295.866z"/>
	<path style="fill:#3A3847;" d="M299.85,271.879c-0.586,0-1.18-0.125-1.734-0.398c-0.75-0.359-18.256-9.02-18.256-27.588
		c0-2.21,1.787-3.998,3.998-3.998c2.209,0,3.998,1.788,3.998,3.998c0,13.603,13.594,20.318,13.727,20.389
		c1.992,0.96,2.826,3.35,1.867,5.333C302.762,271.043,301.332,271.879,299.85,271.879z"/>
	<path style="fill:#3A3847;" d="M267.873,271.879c-1.484,0-2.904-0.828-3.6-2.249c-0.961-1.983-0.133-4.373,1.842-5.341
		c0.562-0.281,13.744-6.903,13.744-20.396c0-2.21,1.787-3.998,3.998-3.998c2.209,0,3.998,1.788,3.998,3.998
		c0,18.568-17.508,27.229-18.258,27.588C269.045,271.754,268.451,271.879,267.873,271.879z"/>
	<path style="fill:#3A3847;" d="M283.857,295.866c-2.211,0-3.998-1.788-3.998-3.998c0-13.603-13.596-20.317-13.729-20.388
		c-1.99-0.961-2.826-3.35-1.865-5.333c0.959-1.999,3.365-2.835,5.332-1.866c0.75,0.359,18.258,9.019,18.258,27.587
		C287.855,294.078,286.066,295.866,283.857,295.866z"/>
	<path style="fill:#3A3847;" d="M339.43,271.863h-23.59c-2.209,0-3.998-1.789-3.998-3.998c0-2.21,1.789-3.998,3.998-3.998h23.59
		c2.211,0,3.998,1.788,3.998,3.998C343.428,270.074,341.641,271.863,339.43,271.863z"/>
</g>
<g>
</g>
<g>
</g>
<g>
</g>
<g>
</g>
<g>
</g>
<g>
</g>
<g>
</g>
<g>
</g>
<g>
</g>
<g>
</g>
<g>
</g>
<g>
</g>
<g>
</g>
<g>
</g>
<g>
</g>
</svg>
