<svg height="511pt" viewBox="-61 1 511 511.999" width="511pt" xmlns="http://www.w3.org/2000/svg"><path d="M352.098 61.238H37C16.844 61.238.5 77.582.5 97.742v377.754C.5 495.656 16.844 512 37 512h315.098c20.156 0 36.5-16.344 36.5-36.504V97.742c0-20.16-16.34-36.504-36.5-36.504zm0 0" fill="#87cde9"/><path d="M52.605 61.238v36.79c0 23.824 19.383 43.206 43.211 43.206h197.47c23.823 0 43.206-19.382 43.206-43.207V61.238zm0 0" fill="#7ab7d1"/><path d="M45.043 98.027h299.012v361.586H45.043zm0 0" fill="#efedee"/><path d="M52.605 98.027c0 23.825 19.383 43.207 43.211 43.207h197.47c23.823 0 43.206-19.382 43.206-43.207zm0 0" fill="#d9d7d8"/><path d="M293.281 31.46h-67.27c0-17.374-14.085-31.46-31.46-31.46S163.09 14.086 163.09 31.46H95.816c-6.796 0-12.304 5.509-12.304 12.306v54.257c0 6.797 5.508 12.305 12.304 12.305h197.47c6.796 0 12.304-5.508 12.304-12.305V43.766c-.004-6.797-5.512-12.305-12.309-12.305zm0 0" fill="#bab8b9"/><path d="M135.535 79.848a7.726 7.726 0 0 1-7.726-7.727v-10.68a7.726 7.726 0 1 1 15.453 0v10.68a7.724 7.724 0 0 1-7.727 7.727zm118.028 0a7.726 7.726 0 0 1-7.727-7.727v-10.68c0-4.265 3.46-7.726 7.726-7.726s7.727 3.46 7.727 7.726v10.68c0 4.27-3.46 7.727-7.726 7.727zM194.55 85.55c-7.905 0-15.335-3.312-20.382-9.085a7.725 7.725 0 1 1 11.633-10.168c2.113 2.414 5.3 3.8 8.75 3.8 3.445 0 6.633-1.386 8.746-3.8a7.725 7.725 0 0 1 10.902-.734 7.725 7.725 0 0 1 .735 10.902c-5.047 5.773-12.477 9.086-20.383 9.086zm-3.03 117.833H83.512a7.725 7.725 0 0 1 0-15.45H191.52a7.722 7.722 0 0 1 7.722 7.723 7.723 7.723 0 0 1-7.722 7.727zm0 0" fill="#464c51"/><path d="M260.918 215.512a7.724 7.724 0 0 1-7.61-9.066l4.044-22.91a7.723 7.723 0 0 1 8.949-6.266 7.723 7.723 0 0 1 6.265 8.949l-1.34 7.597 30.837-15.812a7.721 7.721 0 0 1 10.398 3.348 7.727 7.727 0 0 1-3.348 10.402l-44.672 22.906a7.708 7.708 0 0 1-3.523.852zm0 0" fill="#5bb68d"/><path d="M191.52 261.934H83.512a7.726 7.726 0 1 1 0-15.454H191.52a7.725 7.725 0 0 1 7.722 7.727 7.723 7.723 0 0 1-7.722 7.727zm0 0" fill="#464c51"/><path d="M260.918 274.063a7.724 7.724 0 0 1-7.61-9.066l4.044-22.911c.742-4.203 4.746-7.012 8.949-6.266a7.72 7.72 0 0 1 6.265 8.95l-1.34 7.597 30.837-15.812a7.721 7.721 0 0 1 10.398 3.347 7.727 7.727 0 0 1-3.348 10.403l-44.672 22.906a7.707 7.707 0 0 1-3.523.851zm0 0" fill="#5bb68d"/><path d="M191.52 320.484H83.512a7.725 7.725 0 1 1 0-15.449H191.52a7.723 7.723 0 0 1 7.722 7.727 7.722 7.722 0 0 1-7.722 7.722zm0 0" fill="#464c51"/><path d="M260.918 332.613a7.725 7.725 0 0 1-7.61-9.07l4.044-22.906c.742-4.203 4.746-7.012 8.949-6.266a7.725 7.725 0 0 1 6.265 8.95l-1.34 7.593 30.837-15.809a7.721 7.721 0 0 1 10.398 3.348 7.721 7.721 0 0 1-3.348 10.399l-44.672 22.91a7.707 7.707 0 0 1-3.523.851zm0 0" fill="#5bb68d"/><path d="M191.52 379.035H83.512a7.726 7.726 0 1 1 0-15.453H191.52a7.725 7.725 0 0 1 7.722 7.727 7.723 7.723 0 0 1-7.722 7.726zm0 0" fill="#464c51"/><path d="M260.918 391.164a7.724 7.724 0 0 1-7.61-9.066l4.044-22.91c.742-4.204 4.746-7.012 8.949-6.266a7.725 7.725 0 0 1 6.265 8.95l-1.34 7.597 30.837-15.813a7.721 7.721 0 0 1 10.398 3.348 7.727 7.727 0 0 1-3.348 10.402l-44.672 22.906a7.708 7.708 0 0 1-3.523.852zm0 0" fill="#5bb68d"/><path d="M200.96 26.781a6.412 6.412 0 1 1-12.824.003 6.412 6.412 0 0 1 12.825-.003zm0 0" fill="#d9d7d8"/></svg>