<svg version="1.1" id="Capa_1" xmlns="http://www.w3.org/2000/svg" x="0" y="0" viewBox="0 0 512 512" xml:space="preserve"><path d="M216 256H50c-22.091 0-40 17.909-40 40v166c0 22.091 17.909 40 40 40h166c22.091 0 40-17.909 40-40V296c0-22.091-17.909-40-40-40z" fill="#ff5d5d"/><path d="M462 256H296c-22.091 0-40 17.909-40 40v166c0 22.091 17.909 40 40 40h166c22.091 0 40-17.909 40-40V296c0-22.091-17.909-40-40-40z" fill="#72d8ff"/><path d="M339 10H173c-22.091 0-40 17.909-40 40v166c0 22.091 17.909 40 40 40h166c22.091 0 40-17.909 40-40V50c0-22.091-17.909-40-40-40z" fill="#a0e557"/><path d="M242.227 163c-5.522 0-10 4.477-10 10s4.478 10 10 10h31.599c5.522 0 10-4.477 10-10s-4.478-10-10-10h-5.8V93a10 10 0 0 0-18.611-5.083l-14.012 23.735c-2.808 4.756-1.229 10.887 3.527 13.695a9.986 9.986 0 0 0 9.096.549V163h-5.799zm-85.172 246h-21.669c12.43-12.798 25.777-30.763 25.777-48.891 0-18.607-12.502-31.109-31.108-31.109-17.153 0-31.109 13.956-31.109 31.109 0 5.523 4.478 10 10 10s10-4.477 10-10c0-6.125 4.983-11.109 11.109-11.109 9.957 0 11.108 6.34 11.108 11.109 0 18.531-28.251 43.54-38.142 50.834A10.002 10.002 0 0 0 108.945 429h48.109c5.522 0 10-4.477 10-10s-4.477-10-9.999-10zm220.625-79.813h-17.305c-5.522 0-10 4.477-10 10s4.478 10 10 10h17.305c5.483 0 9.945 4.461 9.945 9.946 0 4.986-3.691 9.114-8.481 9.826a30.892 30.892 0 0 0-1.464-.037h-17.305c-5.522 0-10 4.477-10 10s4.478 10 10 10h6.961a9.987 9.987 0 0 0 1.714.157h8.629c.491 0 .979-.014 1.464-.037 4.79.712 8.481 4.84 8.481 9.826 0 5.484-4.462 9.946-9.945 9.946h-17.305c-5.522 0-10 4.477-10 10s4.478 10 10 10h17.305c16.512 0 29.945-13.434 29.945-29.946 0-7.618-2.864-14.577-7.566-19.867 4.702-5.291 7.566-12.249 7.566-19.867.001-16.513-13.433-29.947-29.944-29.947z"/><path d="M462 246h-83.027c6.292-8.363 10.027-18.753 10.027-30v-44.667c0-5.523-4.478-10-10-10s-10 4.477-10 10V216c0 16.542-13.458 30-30 30H173c-16.542 0-30-13.458-30-30V50c0-16.542 13.458-30 30-30h166c16.542 0 30 13.458 30 30v38c0 5.523 4.478 10 10 10s10-4.477 10-10V50c0-27.57-22.43-50-50-50H173c-27.57 0-50 22.43-50 50v166c0 11.247 3.735 21.637 10.027 30H50c-27.57 0-50 22.43-50 50v166c0 27.57 22.43 50 50 50h166c16.339 0 30.87-7.878 40-20.035C265.13 504.122 279.661 512 296 512h166c27.57 0 50-22.43 50-50V296c0-27.57-22.43-50-50-50zm-205.973 20l-.027.035-.027-.035h.054zM216 492H50c-16.542 0-30-13.458-30-30V296c0-16.542 13.458-30 30-30h166c16.542 0 30 13.458 30 30v166c0 16.542-13.458 30-30 30zm276-30c0 16.542-13.458 30-30 30H296c-16.542 0-30-13.458-30-30V296c0-16.542 13.458-30 30-30h166c16.542 0 30 13.458 30 30v166z"/><path d="M379 123c-2.63 0-5.21 1.07-7.07 2.93-1.86 1.86-2.93 4.44-2.93 7.07s1.069 5.21 2.93 7.07S376.37 143 379 143s5.21-1.07 7.069-2.93c1.86-1.86 2.931-4.44 2.931-7.07s-1.07-5.21-2.931-7.07A10.072 10.072 0 0 0 379 123z"/></svg>