<?xml version="1.0" encoding="UTF-8"?>
<!DOCTYPE svg PUBLIC "-//W3C//DTD SVG 1.1//EN" "http://www.w3.org/Graphics/SVG/1.1/DTD/svg11.dtd">
<!-- Creator: CorelDRAW 2018 (64-Bit) -->
<svg xmlns="http://www.w3.org/2000/svg" xml:space="preserve" width="5.33333in" height="5.33333in" version="1.1" style="shape-rendering:geometricPrecision; text-rendering:geometricPrecision; image-rendering:optimizeQuality; fill-rule:evenodd; clip-rule:evenodd"
viewBox="0 0 5333.33 5333.33"
 xmlns:xlink="http://www.w3.org/1999/xlink">
 <defs>
  <style type="text/css">
   <![CDATA[
    .fil0 {fill:#00AFEF}
   ]]>
  </style>
 </defs>
 <g id="Layer_x0020_1">
  <metadata id="CorelCorpID_0Corel-Layer"/>
  <path class="fil0" d="M2239.99 1001.67c456.1,0 869.01,184.87 1167.91,483.77l142.6 -142.6c-335.39,-335.39 -798.72,-542.83 -1310.51,-542.83 -1023.57,0 -1853.33,829.77 -1853.33,1853.34 0,1023.57 829.77,1853.33 1853.33,1853.33 511.79,0 975.12,-207.44 1310.51,-542.83l-142.6 -142.6c-298.89,298.89 -711.81,483.76 -1167.91,483.76 -912.19,0 -1651.67,-739.48 -1651.67,-1651.67 0,-912.19 739.48,-1651.67 1651.67,-1651.67z"/>
  <circle class="fil0" cx="2240" cy="2653.33" r="656.67"/>
  <circle class="fil0" cx="705.18" cy="4188.15" r="229.18"/>
  <path class="fil0" d="M4900.5 2602.08c0,-176.04 -63.67,-325.4 -186.46,-451.24 -122.21,-125.24 -269.06,-190.8 -444.36,-190.8 -176.48,0 -324.18,67.02 -447.64,192.49 -123.58,125.59 -189.59,274.55 -189.59,451.16 0,175.78 65.38,323.74 189.43,447.8 124.48,124.47 273.09,189.43 449.4,189.43 175.05,0 322.23,-64.02 444.36,-189.2 122.29,-125.35 184.85,-274.37 184.85,-449.63zm-646.85 781.97c-216.21,0 -398.53,-82.19 -548.38,-237.46 -148.81,-154.21 -228.78,-337.75 -228.78,-552.52 0,-214.22 80.67,-395.88 232.39,-546.51 154.52,-153.41 341.45,-230.65 559.2,-230.65 217.39,0 403.93,76.98 557.67,230.71 151.33,151.33 230.71,333.72 230.71,548.05 0,214.13 -77.58,398 -225.5,552.45 -149.38,155.97 -332.32,235.93 -548.44,235.93l-28.87 0z"/>
 </g>
</svg>
