<svg xmlns="http://www.w3.org/2000/svg" width="800" height="237.119" viewBox="0 0 8333.33 2469.99" shape-rendering="geometricPrecision" text-rendering="geometricPrecision" image-rendering="optimizeQuality" fill-rule="evenodd" clip-rule="evenodd"><path d="M1021.9 537.55c251.49 0 479.17 101.94 643.98 266.75l78.63-78.63c-184.93-184.94-440.41-299.31-722.61-299.31C457.52 426.36-.01 883.89-.01 1448.27S457.52 2470.18 1021.9 2470.18c282.2 0 537.68-114.38 722.61-299.31l-78.63-78.62c-164.81 164.8-392.49 266.74-643.98 266.74-502.97 0-910.71-407.74-910.71-910.71 0-502.98 407.74-910.72 910.71-910.72zm.01 548.63c199.97 0 362.08 162.11 362.08 362.09 0 199.97-162.11 362.08-362.08 362.08-199.98 0-362.09-162.11-362.09-362.08 0-199.98 162.11-362.09 362.09-362.09zM175.63 2420.91c-69.79 0-126.36-56.57-126.36-126.37 0-69.79 56.57-126.36 126.36-126.36 69.79 0 126.37 56.57 126.37 126.36 0 69.8-56.58 126.37-126.37 126.37zM7721.49 1638l491.93-488.54c-66.28-53.6-141.99-81.7-228.46-81.7-94.2 0-172.73 38.23-238.95 104.45-66.47 66.47-104.45 145.31-104.45 239.83 0 85.49 26.61 160.67 79.93 225.95zm58.48 57.46c57.41 43.45 125.55 78.57 198.8 78.57 64.76 0 126.54-14.12 182.74-46.66 54.3-31.43 98.92-73.43 133.99-125.46l26.9-39.91v144.01l-3.83 4.2c-84.54 92.87-189.09 142.75-315.05 142.75h-15.91c-119.19 0-219.72-46.22-303.15-130.83-83.24-84.42-128.91-185.5-128.91-304.76 0-118.13 44.48-218.28 128.13-301.34 87.15-86.53 193.77-127.18 316.3-127.18 130.1 0 237.2 53.76 323.93 149.87l9.42 10.43-553.37 546.32zm-5291.09-275.45c0-97.07-35.1-179.43-102.81-248.81-67.39-69.06-148.35-105.2-245.02-105.2-97.31 0-178.75 36.95-246.82 106.13-68.14 69.25-104.54 151.39-104.54 248.76 0 96.92 36.05 178.5 104.45 246.91 68.63 68.63 150.57 104.45 247.8 104.45 96.52 0 177.67-35.3 245.01-104.32 67.43-69.12 101.93-151.28 101.93-247.92zm-356.67 431.17c-119.21 0-219.74-45.31-302.37-130.94-82.06-85.02-126.14-186.23-126.14-304.65 0-118.12 44.48-218.28 128.13-301.34 85.2-84.59 188.28-127.17 308.34-127.17 119.87 0 222.72 42.44 307.49 127.21 83.45 83.44 127.21 184.01 127.21 302.18 0 118.07-42.77 219.46-124.33 304.61-82.37 86-183.24 130.09-302.41 130.09h-15.92zm4087.53-759.61c21.28-25.57 47.48-46.54 76.96-63.61 48.52-28.09 101.69-40.88 157.69-40.88 62.31 0 118.28 22.54 167.94 59.5l5.92 4.41v113.61l-25.09-25.09c-44.47-44.46-97.35-73.5-161.14-73.5-60.93 0-111.86 23.87-155.02 66.5-43.11 42.57-67.25 93.13-67.25 154v545.24h-85.99v-825.2h85.99v85.04zM2605.77 363.15l231.19 288.77h-105.65l-221.03-288.77h-1.93v288.77h-81.31V35.4h147.78c27.85 0 63.24.33 90.37 6.93 18.93 4.61 36.58 12.48 52.03 24.43 19.78 15.3 33.68 35.78 43.34 58.67 10.8 25.58 15.39 52.79 15.39 80.48 0 43.43-10.44 86.62-43.26 117.09-33.78 31.38-80.9 40.15-125.56 40.15h-1.37zm354.67 246.07l-150.85-346.86h86.93l106.52 263.03 112.8-263.03h83.3l-258.88 574.17h-85.02l105.19-227.31zM3204.36 581l64.8-43.36 2.84 5.46c9 17.26 21.05 32.48 37.7 42.89 16.25 10.17 34.64 14.26 53.67 14.26 17.16 0 34.39-3.57 48.08-14.47 11.94-9.5 17.54-21.82 17.54-37.04 0-11.33-3.65-21.11-11.76-29.1-10.79-10.62-29.95-18.22-44.13-23.01l-10.67-3.8c-53.59-18.41-141.76-55.91-141.76-124.33 0-34.62 12.7-63.88 39.04-86.47 28.35-24.31 63.47-33.23 100.27-33.23 30.28 0 60.45 5.4 87.1 20.32 24.12 13.52 41.97 32.79 52.77 58.27l1.84 4.35-61.75 38.11-2.57-5.75c-7-15.66-17.46-28.55-32.04-37.65-15.07-9.41-31.76-13.28-49.44-13.28-15.87 0-30.86 3.92-42.93 14.57-11.07 9.76-16.06 21.95-16.06 36.65 0 28.93 49.81 46.24 71.37 53.04 7.49 2.36 15 4.66 22.48 7.07 29.03 9.35 66.55 24.2 87.98 46.76 18.62 19.6 25.65 44.4 25.65 70.98 0 36.24-12.68 67.21-40.15 91.1-29.09 25.3-65.44 34.66-103.4 34.66-31.92 0-64.13-5.35-92.51-20.56-26.61-14.25-46.88-35.72-61.5-62.02l-2.46-4.44zm461.06-271.55c13.9-17.32 30.63-31.85 50.66-42.24 25.38-13.15 53.44-18.4 81.86-18.4 39.65 0 78.87 9.15 108.37 37.08 28.93 27.38 39.41 64.01 39.41 102.94v263.09h-77.07V423.55c0-27.43-4.09-60.22-22.79-81.78-17.71-20.42-44.59-26.05-70.5-26.05-17.42 0-34.58 2.98-50.54 10.11-14.72 6.57-27.33 15.81-37.48 28.35-7.57 9.37-12.87 20.25-16.05 31.86-5 18.26-5.02 45.85-5.02 64.74v201.13h-75.39V-.18h74.54v309.61zm385.44-223.93c0-14.41 5.25-27.01 15.45-37.2 10.35-10.35 23.15-15.45 37.77-15.45 14.54 0 27.04 5.41 37.24 15.76 10.26 10.41 15.42 23.12 15.42 37.74 0 14.39-5.13 26.89-15.31 37.07-10.23 10.23-22.89 15.31-37.35 15.31-14.6 0-27.32-5.02-37.74-15.28-10.47-10.31-15.48-23.28-15.48-37.94zm15.24 566.41V262.37h76.23v389.56h-76.23zm276.23-342.47c13.9-17.32 30.63-31.85 50.67-42.24 25.37-13.15 53.44-18.4 81.86-18.4 39.65 0 78.87 9.15 108.37 37.08 28.93 27.38 39.41 64.01 39.41 102.94v263.09h-77.07V423.56c0-27.43-4.09-60.22-22.79-81.78-17.71-20.42-44.59-26.05-70.5-26.05-17.42 0-34.58 2.98-50.54 10.11-14.72 6.57-27.34 15.81-37.48 28.35-7.58 9.37-12.87 20.25-16.05 31.86-5 18.26-5.02 45.85-5.02 64.74v201.13h-75.39V262.36h74.54v47.09zM2508.35 107.41v191.37h49.39c29.72 0 84.93-1.79 109.72-20.61 21.61-16.41 26.33-45.97 26.33-71.41 0-27.04-4.69-59.31-27.28-77.26-25.07-19.93-78.29-22.09-108.78-22.09h-49.39zm710.37 1043.44c20.63-44.65 52.35-81.24 94.37-109.92 56.96-38.87 123.04-53.84 191.32-53.84 77.3 0 143.64 28.57 199.39 81.89 61.88 59.18 85.89 136.62 85.89 221.06v541.7h-86v-541.7c0-61.94-19.25-116.05-62.96-160.32-41.77-42.32-91.84-63.71-151.35-63.71-61.69 0-113.57 23.99-157.8 66.62-43.82 42.24-68.9 92.65-68.9 153.87v545.24h-85.99V1286.5c0-60.35-21.28-111.69-63.09-155.15-41.67-43.31-91.94-65.35-152.09-65.35-61.3 0-112.61 23.2-155.84 66.43-42.75 42.75-66.43 93.37-66.43 154.07v545.24h-86v-825.2h86v84.33c24.01-25.33 52.83-46.02 83.36-63.02 47.22-26.31 98.07-40.76 152.17-40.76 56.94 0 107.93 21.06 153 55.14 39.05 29.54 69.24 65.97 90.95 108.62zm2109.98 487.17l491.92-488.54c-66.28-53.6-141.99-81.7-228.46-81.7-94.2 0-172.73 38.23-238.95 104.45-66.47 66.47-104.45 145.31-104.45 239.83 0 85.49 26.61 160.67 79.94 225.95zm58.48 57.46c57.41 43.45 125.54 78.57 198.8 78.57 64.76 0 126.54-14.12 182.74-46.66 54.3-31.43 98.92-73.43 133.99-125.46l26.9-39.91v144.01l-3.83 4.2c-84.54 92.87-189.09 142.75-315.05 142.75h-15.91c-119.19 0-219.72-46.22-303.14-130.83-83.24-84.42-128.91-185.5-128.91-304.76 0-118.13 44.48-218.28 128.14-301.34 87.14-86.53 193.77-127.18 316.29-127.18 130.1 0 237.2 53.76 323.93 149.87l9.42 10.43-553.36 546.32zm1701.96 159.25h-15.91c-118.98 0-219.56-44.83-302.34-130.02-82.46-84.85-126.18-186.17-126.18-304.69 0-118.42 44.24-218.94 128.13-302.23 86.72-86.1 192.54-127.17 314.54-127.17 126.41 0 232.28 48.68 318.44 140.83l3.96 4.24v144.12l-26.89-39.91c-34.97-51.88-79.51-93.61-133.9-124.53-52.31-29.74-108.49-45.83-168.69-45.83-96.33 0-177.2 36.51-245.14 104.45-68.86 68.87-104.45 151.17-104.45 248.68 0 97.51 35.59 179.82 104.45 248.69 67.94 67.94 148.81 104.45 245.14 104.45 60.2 0 116.38-16.09 168.69-45.83 54.75-31.12 99.13-73.6 133.81-126.17l26.98-40.91v146.64l-3.82 4.2c-84.86 93.35-190.58 140.98-316.82 140.98zm-5291.8 328.76H8322.4v79.03H1702.67c14.93-11.6 29.59-23.51 43.94-35.76l50.72-43.28zm2688.24-1032.64c20.63-44.65 52.35-81.24 94.37-109.92 56.96-38.87 123.04-53.84 191.32-53.84 77.29 0 143.64 28.57 199.39 81.89 61.87 59.18 85.89 136.62 85.89 221.06v541.7h-86v-541.7c0-61.94-19.26-116.05-62.96-160.32-41.77-42.32-91.85-63.71-151.35-63.71-61.69 0-113.57 23.99-157.8 66.62-43.82 42.24-68.9 92.65-68.9 153.87v545.24h-85.99V1286.5c0-60.35-21.28-111.69-63.09-155.15-41.67-43.31-91.94-65.35-152.09-65.35-61.3 0-112.61 23.2-155.84 66.43-42.75 42.75-66.43 93.37-66.43 154.07v545.24h-86v-825.2h86v84.33c24.01-25.33 52.83-46.02 83.36-63.02 47.22-26.31 98.07-40.76 152.17-40.76 56.94 0 107.93 21.06 153 55.14 39.05 29.54 69.24 65.97 90.95 108.62z" fill="#fefefe"/></svg>