<svg xmlns="http://www.w3.org/2000/svg" fill-rule="evenodd" clip-rule="evenodd" image-rendering="optimizeQuality" shape-rendering="geometricPrecision" text-rendering="geometricPrecision" viewBox="0 0 13333.3 3953.3"><defs><style>.fil1{fill:#476aaa}.fil0{fill:#00afef}</style></defs><g id="Layer_x0020_1"><path d="M1635 867.4c402.4 0 766.7 163.1 1030.4 426.8l125.8-125.8a1630 1630 0 0 0-1156.1-478.9C732 689.5 0 1421.5 0 2324.5s732 1635.1 1635 1635.1a1630 1630 0 0 0 1156.2-478.9L2665.4 3355a1452.6 1452.6 0 0 1-1030.3 426.8c-804.8 0-1457.2-652.4-1457.2-1457.1 0-804.8 652.4-1457.2 1457.2-1457.2z" class="fil0"/><circle cx="1635.1" cy="2324.6" r="579.3" class="fil0"/><circle cx="281" cy="3678.6" r="202.2" class="fil0"/><path d="M12354.4 2628.1l787-781.6c-106-85.8-227.1-130.7-365.5-130.7-150.7 0-276.3 61.1-382.3 167-106.4 106.4-167.1 232.6-167.1 383.8 0 136.8 42.6 257 127.9 361.5zm93.5 92c91.9 69.5 201 125.7 318.1 125.7 103.6 0 202.5-22.6 292.4-74.7a646 646 0 0 0 214.4-200.7l43-63.9V2737l-6.1 6.7c-135.3 148.6-302.6 228.4-504 228.4h-25.5c-190.7 0-351.6-74-485-209.3-133.2-135-206.3-296.8-206.3-487.6 0-189 71.2-349.3 205-482.2 139.4-138.4 310-203.4 506-203.4 208.2 0 379.6 86 518.4 239.7l15 16.7-885.4 874.2zM3982.2 2279.3c0-155.3-56.2-287-164.5-398-107.8-110.5-237.4-168.4-392-168.4-155.7 0-286 59.2-395 169.8-109 110.8-167.2 242.3-167.2 398 0 155.1 57.7 285.7 167.1 395.1 109.8 109.8 241 167.1 396.5 167.1 154.4 0 284.3-56.4 392-166.9 108-110.6 163.1-242 163.1-396.6zm-570.7 690c-190.7 0-351.6-72.6-483.8-209.6-131.3-136-201.8-298-201.8-487.4 0-189 71.2-349.3 205-482.2 136.3-135.3 301.3-203.5 493.4-203.5 191.7 0 356.3 68 492 203.6 133.5 133.5 203.5 294.4 203.5 483.5 0 188.9-68.5 351.1-199 487.4-131.7 137.6-293.1 208.1-483.8 208.1h-25.5zM9951.6 1753.8c34-40.9 76-74.4 123.1-101.7 77.6-45 162.7-65.5 252.3-65.5 99.7 0 189.2 36.1 268.7 95.2l9.5 7.1v181.8l-40.2-40.2c-71.1-71.1-155.7-117.6-257.8-117.6-97.5 0-179 38.2-248 106.4-69 68.1-107.6 149-107.6 246.4v872.4H9814V1617.8h137.6v136z" class="fil0"/><path d="M4169.2 588.4l370 462H4370l-353.7-462h-3v462h-130.2V64h236.5c44.5 0 101.2.5 144.6 11 30.3 7.4 58.5 20 83.2 39.1a228.1 228.1 0 0 1 69.4 94c17.3 40.8 24.6 84.4 24.6 128.7 0 69.5-16.7 138.6-69.2 187.3-54 50.2-129.4 64.3-200.9 64.3h-2.2zM4736.7 982l-241.3-555h139L4805 847.9l180.4-420.8h133.3l-414.2 918.7h-136L4736.7 982zm390.3-45.2l103.6-69.4 4.6 8.7c14.4 27.7 33.7 52 60.3 68.7 26 16.3 55.4 22.8 85.9 22.8 27.4 0 55-5.7 77-23.1 19-15.3 28-35 28-59.3 0-18.2-5.9-33.8-18.8-46.6-17.3-17-48-29.1-70.6-36.8l-17.1-6c-85.8-29.5-226.8-89.5-226.8-199 0-55.4 20.3-102.2 62.4-138.3 45.4-39 101.6-53.2 160.5-53.2 48.4 0 96.7 8.6 139.3 32.5a189.4 189.4 0 0 1 84.5 93.2l2.9 7-98.8 61-4.1-9.2c-11.2-25-28-45.7-51.3-60.3a146 146 0 0 0-79-21.2c-25.5 0-49.5 6.3-68.8 23.3a74.1 74.1 0 0 0-25.7 58.6c0 46.3 79.7 74 114.2 84.9l36 11.3c46.4 15 106.5 38.7 140.7 74.8 29.8 31.4 41 71 41 113.6 0 58-20.2 107.5-64.1 145.7-46.6 40.5-104.7 55.5-165.5 55.5-51 0-102.6-8.6-148-32.9a244.5 244.5 0 0 1-98.4-99.2l-4-7.1zm737.7-434.5c22.2-27.7 49-51 81-67.6 40.6-21 85.5-29.4 131-29.4 63.4 0 126.2 14.7 173.4 59.3 46.3 43.8 63 102.4 63 164.7v421h-123.3V685c0-43.9-6.5-96.4-36.4-130.9-28.4-32.6-71.4-41.6-112.8-41.6a197 197 0 0 0-80.9 16.1 158.7 158.7 0 0 0-60 45.4 139 139 0 0 0-25.6 51c-8 29.2-8 73.4-8 103.6v321.8h-120.7V7.1h119.3v495.3zm616.7-358.3c0-23 8.4-43.2 24.7-59.5a82.7 82.7 0 0 1 60.4-24.7 81 81 0 0 1 59.6 25.2 83.3 83.3 0 0 1 24.7 60.4c0 23-8.2 43-24.5 59.3a81.8 81.8 0 0 1-59.8 24.5 83 83 0 0 1-60.4-24.5 82.4 82.4 0 0 1-24.7-60.7zm24.4 906.3V427h122v623.3h-122zm442-548c22.2-27.7 49-51 81-67.6a282 282 0 0 1 131-29.4c63.4 0 126.1 14.7 173.4 59.3 46.2 43.8 63 102.4 63 164.7v421H7273V685c0-43.9-6.6-96.4-36.5-130.9-28.3-32.6-71.3-41.6-112.8-41.6a197 197 0 0 0-80.8 16.1 158.8 158.8 0 0 0-60 45.4 139 139 0 0 0-25.7 51c-8 29.2-8 73.4-8 103.6v321.8h-120.6V427.1h119.2v75.3zM4013.3 179.1v306.2h79c47.5 0 135.9-2.8 175.5-33 34.6-26.2 42.2-73.5 42.2-114.2 0-43.2-7.5-94.9-43.7-123.6-40-31.9-125.2-35.4-174-35.4h-79zM5150 1848.7a428 428 0 0 1 151-176c91-62 196.8-86 306-86 123.7 0 229.9 45.6 319 131 99 94.7 137.5 218.6 137.5 353.7V2938h-137.6v-866.7c0-99.2-30.8-185.7-100.7-256.6-66.9-67.7-147-101.9-242.2-101.9-98.7 0-181.7 38.4-252.5 106.6-70 67.6-110.2 148.2-110.2 246.2v872.4h-137.6v-872.4c0-96.6-34-178.7-101-248.2-66.6-69.3-147-104.6-243.3-104.6-98 0-180.2 37.1-249.3 106.3-68.4 68.4-106.3 149.4-106.3 246.5v872.4h-137.6V1617.8h137.6v134.9a554 554 0 0 1 133.4-100.8 495 495 0 0 1 243.4-65.3c91.1 0 172.7 33.7 244.8 88.3a499.8 499.8 0 0 1 145.6 173.8zM8526 2628.1l787-781.6c-106-85.8-227.2-130.7-365.6-130.7-150.7 0-276.3 61.1-382.3 167-106.3 106.4-167 232.6-167 383.8 0 136.8 42.5 257 127.8 361.5zm93.5 92c91.8 69.5 200.8 125.7 318 125.7 103.7 0 202.5-22.6 292.4-74.7a646 646 0 0 0 214.4-200.7l43-63.9V2737l-6 6.7C9346 2892.2 9178.6 2972 8977.1 2972h-25.5c-190.7 0-351.6-74-485-209.3-133.2-135-206.3-296.8-206.3-487.6 0-189 71.2-349.3 205-482.2 139.5-138.4 310-203.4 506.1-203.4 208.2 0 379.5 86 518.3 239.7l15 16.7-885.3 874.2zM11342.6 2974.9h-25.4c-190.4 0-351.3-71.8-483.8-208-132-135.8-201.9-298-201.9-487.6 0-189.4 70.8-350.3 205-483.5 138.8-137.8 308.1-203.5 503.3-203.5 202.3 0 371.6 77.9 509.5 225.3l6.3 6.8V2055l-43-63.9a632.4 632.4 0 0 0-214.2-199.2 539 539 0 0 0-270-73.3c-154 0-283.4 58.4-392.1 167.1-110.2 110.2-167.2 241.9-167.2 397.9 0 156 57 287.7 167.2 397.9 108.7 108.7 238 167.1 392.2 167.1a539 539 0 0 0 269.9-73.3 623 623 0 0 0 214-201.9l43.2-65.4v234.6l-6 6.7c-135.8 149.4-305 225.6-507 225.6zM2875.7 3500.9h10440.1v126.4H2724.3c23.9-18.5 47.3-37.6 70.3-57.2l81.1-69.2zM7177 1848.7a428 428 0 0 1 151-176c91-62 196.8-86 306-86 123.7 0 229.8 45.6 319 131 99 94.7 137.5 218.6 137.5 353.7V2938h-137.6v-866.7c0-99.2-30.8-185.7-100.8-256.6-66.8-67.7-147-101.9-242.1-101.9-98.7 0-181.7 38.4-252.5 106.6-70.1 67.6-110.2 148.2-110.2 246.2v872.4h-137.6v-872.4c0-96.6-34-178.7-101-248.2-66.6-69.3-147-104.6-243.3-104.6-98.1 0-180.2 37.1-249.4 106.3-68.4 68.4-106.3 149.4-106.3 246.5v872.4h-137.6V1617.8h137.6v134.9a554 554 0 0 1 133.4-100.8 495 495 0 0 1 243.5-65.3c91 0 172.7 33.7 244.8 88.3a499.8 499.8 0 0 1 145.5 173.8z" class="fil1"/></g></svg>