<svg version="1.1" id="Capa_1" xmlns="http://www.w3.org/2000/svg" x="0" y="0" viewBox="0 0 201.387 201.387" xml:space="preserve"><path d="M129.413 24.885C127.389 10.699 115.041 0 100.692 0 91.464 0 82.7 4.453 77.251 11.916a3.413 3.413 0 1 0 5.51 4.026c4.171-5.707 10.873-9.115 17.93-9.115 10.974 0 20.415 8.178 21.963 19.021a3.417 3.417 0 0 0 3.862 2.898 3.415 3.415 0 0 0 2.897-3.861zm49.299 38.211l-10.24-17.067a3.409 3.409 0 0 0-2.927-1.657h-9.813a3.414 3.414 0 0 0 0 6.826h7.881l6.144 10.24H31.626l6.144-10.24h3.615a3.414 3.414 0 0 0 0-6.826h-5.547c-1.2 0-2.311.628-2.927 1.657l-10.24 17.067a3.417 3.417 0 0 0 2.927 5.171h150.187a3.414 3.414 0 0 0 2.927-5.171z"/><path d="M161.698 31.623a3.408 3.408 0 0 0-2.123-1.524l-46.531-10.883a3.42 3.42 0 0 0-2.579.423 3.416 3.416 0 0 0-1.522 2.123l-3.509 15a3.41 3.41 0 0 0 2.546 4.099 3.412 3.412 0 0 0 4.101-2.546l2.732-11.675 39.883 9.329-6.267 26.795a3.41 3.41 0 0 0 3.328 4.189 3.408 3.408 0 0 0 3.318-2.635L162.12 34.2a3.4 3.4 0 0 0-.422-2.577zm-59.201 8.069l-3.11-26.305a3.413 3.413 0 0 0-3.791-2.99l-57.09 6.748a3.414 3.414 0 0 0-2.988 3.791l5.185 43.873a3.414 3.414 0 1 0 6.78-.801l-4.785-40.486 50.311-5.946 2.708 22.915a3.413 3.413 0 1 0 6.78-.799z"/><path d="M129.492 63.556l-6.775-28.174a3.422 3.422 0 0 0-1.536-2.113 3.434 3.434 0 0 0-2.581-.406L63.613 46.087a3.414 3.414 0 0 0-2.521 4.117l3.386 14.082a3.414 3.414 0 0 0 6.637-1.596l-2.589-10.764 48.35-11.626 5.977 24.854a3.413 3.413 0 0 0 4.118 2.519 3.414 3.414 0 0 0 2.521-4.117z"/><path d="M179.197 64.679a3.415 3.415 0 0 0-3.41-3.238H25.6a3.414 3.414 0 0 0-3.41 3.238l-6.827 133.12a3.415 3.415 0 0 0 3.409 3.588h163.84c.935 0 1.83-.384 2.478-1.062a3.422 3.422 0 0 0 .934-2.526l-6.827-133.12zM22.364 194.56l6.477-126.293h143.701l6.477 126.293H22.364z"/><path d="M126.292 75.093c-5.647 0-10.24 4.593-10.24 10.24s4.593 10.24 10.24 10.24 10.24-4.593 10.24-10.24-4.593-10.24-10.24-10.24zm0 13.654c-1.883 0-3.413-1.531-3.413-3.413s1.531-3.413 3.413-3.413 3.413 1.531 3.413 3.413-1.531 3.413-3.413 3.413zm-51.2-13.654c-5.647 0-10.24 4.593-10.24 10.24s4.593 10.24 10.24 10.24 10.24-4.593 10.24-10.24-4.593-10.24-10.24-10.24zm0 13.654c-1.882 0-3.413-1.531-3.413-3.413s1.531-3.413 3.413-3.413 3.413 1.531 3.413 3.413-1.531 3.413-3.413 3.413z"/><path d="M126.292 85.333h-.263a3.414 3.414 0 0 0-3.15 4.729v17.457c0 12.233-9.953 22.187-22.187 22.187s-22.187-9.953-22.187-22.187V88.747a3.414 3.414 0 0 0-6.826 0v18.773c0 15.998 13.015 29.013 29.013 29.013s29.013-13.015 29.013-29.013V88.747a3.415 3.415 0 0 0-3.413-3.414z"/></svg>