<svg viewBox="0 -82 512.002 512" xmlns="http://www.w3.org/2000/svg"><path d="M326.188 290.246h-180.06c-5.589 0-10.12-4.531-10.12-10.121s4.531-10.121 10.12-10.121h169.313c-3.828-10.094-5.921-21.04-5.921-32.473a91.584 91.584 0 0 1 4.671-28.957V48.793c0-5.586 4.528-10.117 10.118-10.117 5.586 0 10.117 4.531 10.117 10.117v125.93a91.874 91.874 0 0 1 18.71-15.262V48.797c0-5.59 4.528-10.121 10.118-10.121s10.121 4.531 10.121 10.12v101.376a91.228 91.228 0 0 1 18.707-3.848V48.797c0-5.59 4.531-10.121 10.121-10.121 5.586 0 10.117 4.531 10.117 10.12v97.75a91.224 91.224 0 0 1 21.332 5.25V35.028c0-4.058-1.664-7.75-4.351-10.437-2.684-2.684-6.38-4.352-10.434-4.352h-30.152c-5.59 0-10.121-4.527-10.121-10.117S383.125 0 388.714 0h30.153c9.64 0 18.399 3.938 24.742 10.281s10.282 15.102 10.282 24.746v127.516a91.925 91.925 0 0 1 12.097 10.176c16.586 16.59 26.848 39.5 26.848 64.812 0 21.664-7.52 41.57-20.086 57.262l36.29 36.289c3.948 3.953 3.948 10.36 0 14.309-3.95 3.953-10.356 3.953-14.306 0l-36.293-36.293c-15.691 12.57-35.597 20.09-57.261 20.09-25.313 0-48.223-10.262-64.813-26.848a92.174 92.174 0 0 1-10.18-12.094zM65.18 270.008H35.027c-4.058 0-7.754-1.668-10.437-4.352-2.684-2.687-4.352-6.383-4.352-10.437V35.027c0-4.058 1.668-7.75 4.352-10.437 2.683-2.684 6.379-4.352 10.437-4.352h272.735c5.59 0 10.117-4.527 10.117-10.117S313.352 0 307.762 0H35.027c-9.644 0-18.402 3.938-24.746 10.281S0 25.387 0 35.027V255.22c0 9.644 3.937 18.402 10.281 24.746s15.102 10.281 24.746 10.281H65.18c5.586 0 10.117-4.531 10.117-10.121s-4.531-10.117-10.117-10.117zm40.472 0c5.59 0 10.121 4.527 10.121 10.117s-4.53 10.121-10.12 10.121c-5.587 0-10.118-4.531-10.118-10.121s4.531-10.117 10.117-10.117zM348.234.004c-5.586 0-10.117 4.527-10.117 10.117s4.531 10.121 10.117 10.121c5.59 0 10.121-4.531 10.121-10.12S353.825.003 348.235.003zM41.57 48.793c0-5.586 4.528-10.117 10.118-10.117s10.12 4.531 10.12 10.117v192.66c0 5.586-4.53 10.117-10.12 10.117s-10.118-4.527-10.118-10.117zm233.676 0v147.223c0 5.586 4.531 10.117 10.117 10.117 5.59 0 10.121-4.528 10.121-10.117V48.793c0-5.586-4.53-10.117-10.12-10.117-5.587 0-10.118 4.531-10.118 10.117zm-38.95 0v166.695c0 5.586 4.532 10.117 10.122 10.117 5.586 0 10.117-4.527 10.117-10.117V48.793c0-5.586-4.527-10.117-10.117-10.117-5.59 0-10.121 4.531-10.121 10.117zm-38.944 0v166.695c0 5.586 4.53 10.117 10.12 10.117 5.587 0 10.118-4.527 10.118-10.117V48.793c0-5.586-4.528-10.117-10.117-10.117s-10.121 4.531-10.121 10.117zm-38.946 0v124.504c0 5.586 4.531 10.117 10.121 10.117 5.586 0 10.118-4.527 10.118-10.117V48.793c0-5.586-4.532-10.117-10.118-10.117-5.59 0-10.12 4.531-10.12 10.117zm-38.945 0v147.223c0 5.586 4.531 10.117 10.121 10.117 5.586 0 10.117-4.528 10.117-10.117V48.793c0-5.586-4.531-10.117-10.117-10.117-5.59 0-10.121 4.531-10.121 10.117zm-38.945 0c0-5.586 4.53-10.117 10.117-10.117 5.59 0 10.12 4.531 10.12 10.117v147.223c0 5.586-4.53 10.117-10.12 10.117-5.586 0-10.117-4.528-10.117-10.117zm392.078 188.738c0-19.722-7.992-37.578-20.918-50.5-12.922-12.926-30.778-20.918-50.5-20.918-19.047 0-37.098 7.512-50.504 20.918-12.922 12.922-20.918 30.778-20.918 50.5s7.996 37.578 20.918 50.5c12.926 12.926 30.781 20.918 50.504 20.918 39.445 0 71.418-31.972 71.418-71.418zm0 0" fill-rule="evenodd"/></svg>