<svg version="1.1" id="Capa_1" xmlns="http://www.w3.org/2000/svg" x="0" y="0" viewBox="0 0 511.997 511.997" xml:space="preserve"><path d="M504.901 297.474c-7.174-10.024-19.126-16.76-31.189-17.58-9.847-.663-18.77 2.662-25.118 9.382a442.14 442.14 0 0 0-4.486 4.827c-7.023-6.434-16.226-10.574-25.504-11.204-9.851-.66-18.771 2.663-25.118 9.382-13.817 14.626-38.283 43.198-57.497 65.944a39.81 39.81 0 0 0-8.023-3.621c-9.184-3.955-135.787-58.024-191.905-58.024-90.651 0-132.297 48.725-134.025 50.798-2.651 3.182-2.221 7.901.952 10.561 3.174 2.661 7.91 2.244 10.58-.922.096-.113 9.825-11.505 29.697-22.73 18.316-10.344 49.284-22.678 92.795-22.678 53.914 0 184.973 56.372 186.291 56.941 2.409 1.039 4.894 1.834 7.094 3.302a24.33 24.33 0 0 1 5.494 5.048c3.026 3.791 4.921 8.481 5.319 13.319.837 10.136-4.852 19.929-14.035 24.258-5.791 2.73-11.913 2.812-17.997 1.145l-81.996-22.583c-3.948-1.088-8.154 1.303-9.241 5.249-1.087 3.948 1.302 8.153 5.249 9.24l81.882 22.552a39.707 39.707 0 0 0 30.039-2.769c9.363-4.909 16.254-13.172 19.402-23.263a39.774 39.774 0 0 0 1.765-10.008l21.992-2.316a7.52 7.52 0 0 0 4.989-2.665c.542-.651 54.467-65.388 77.213-89.464 9.454-10.012 26.334-2.915 33.161 6.623 10.498 14.667-2.548 30.678-6.796 35.237-20.876 22.398-59.157 68.545-66.038 76.863l-155.803 77.901-80.161-33.752c-3.774-1.589-8.253.234-9.842 4.01-1.589 3.774.235 8.252 4.009 9.841l83.348 35.093a7.573 7.573 0 0 0 6.277-.204l160.315-80.158a7.507 7.507 0 0 0 2.435-1.939c.44-.533 44.259-53.593 66.456-77.41 16.338-17.527 19.414-38.309 8.02-54.226zm-132.188 79.625l-19.581 2.062a40.14 40.14 0 0 0-5.914-10.938c16.367-19.374 42.963-50.556 57.192-65.618 4.111-4.353 9.431-4.969 13.173-4.708 5.891.401 11.932 3.18 16.475 7.383-22.546 25.452-53.241 62.112-61.345 71.819z"/><path d="M146.989 446.938l-32.061-13.5a7.511 7.511 0 0 0-2.917-.589H7.806a7.515 7.515 0 1 0 0 15.03h102.687l30.662 12.91c4.034 1.699 8.762-.509 10.083-4.667 1.16-3.65-.723-7.7-4.249-9.184zm252.528-196.371l-31.999 4.572c26.021-27.879 40.576-64.402 40.576-103.341C408.094 68.097 339.997 0 256.296 0c-83.702 0-151.798 68.097-151.798 151.798 0 33.585 10.746 65.412 31.076 92.038 19.676 25.77 47.577 44.886 78.565 53.827 4.099 1.181 8.451-1.397 9.407-5.545.885-3.835-1.465-7.805-5.241-8.896-58.159-16.78-98.778-70.825-98.778-131.425 0-75.415 61.355-136.769 136.769-136.769 75.415 0 136.769 61.354 136.769 136.769 0 37.281-14.8 72.111-41.081 97.745v-39.631a7.514 7.514 0 0 0-7.515-7.515 7.514 7.514 0 0 0-7.515 7.515v56.11c0 4.493 4.126 8.079 8.578 7.44l56.11-8.016c4.054-.579 6.957-4.448 6.377-8.502-.579-4.05-4.453-6.949-8.502-6.376z"/><path d="M256.296 144.282h-8.016c-9.116 0-16.532-7.417-16.532-16.532 0-9.116 7.417-16.533 16.532-16.533h32.063a7.514 7.514 0 0 0 7.515-7.515 7.514 7.514 0 0 0-7.515-7.515H263.81V87.67a7.515 7.515 0 1 0-15.03 0v8.517h-.501c-17.403 0-31.562 14.159-31.562 31.562s14.159 31.562 31.562 31.562h8.016c9.116 0 16.533 7.417 16.533 16.532s-7.417 16.532-16.533 16.532h-32.063a7.515 7.515 0 1 0 0 15.03h24.548v8.517a7.515 7.515 0 1 0 15.03 0v-9.427c13.786-3.381 24.047-15.837 24.047-30.651.001-17.403-14.158-31.562-31.561-31.562z"/></svg>