<svg height="512pt" viewBox="-24 0 512 512" width="512pt" xmlns="http://www.w3.org/2000/svg"><path d="M45.445 360.55c-2.632 0-5.21-1.07-7.07-2.929-.46-.46-.883-.973-1.25-1.52a10.506 10.506 0 0 1-.922-1.73c-.25-.601-.437-1.23-.57-1.871a9.928 9.928 0 0 1-.188-1.95 10 10 0 0 1 .188-1.96c.133-.63.32-1.262.57-1.871a9.991 9.991 0 0 1 2.172-3.238c2.32-2.333 5.77-3.391 9.02-2.743.64.133 1.27.32 1.87.57.61.25 1.188.563 1.727.922.551.372 1.063.79 1.524 1.25.457.461.879.97 1.238 1.52.36.54.672 1.121.922 1.719.25.61.437 1.242.566 1.87.133.65.203 1.302.203 1.962 0 .648-.07 1.308-.203 1.949a10.038 10.038 0 0 1-2.726 5.121 9.7 9.7 0 0 1-1.524 1.238 9.842 9.842 0 0 1-1.726.922c-.602.25-1.23.438-1.871.57-.641.13-1.301.2-1.95.2zm0 0"/><path d="M416.137 425.434c0-10.008-4.16-19.063-10.84-25.524 6.68-6.46 10.84-15.515 10.84-25.52 0-12.812-6.817-24.058-17.012-30.308a35.32 35.32 0 0 0 6.7-20.738c0-19.586-15.934-35.524-35.524-35.524h-94.399l.004-37.836c0-10.898-4.242-21.14-11.949-28.843-7.703-7.703-17.95-11.946-28.852-11.946-20.84 0-38.253 15.602-40.546 36.305l-7.934 62.77c-4.191 20.66-11.355 20.582-32.402 20.32-2.063-.027-13.301-.05-13.301-.05v-.376c0-5.523-4.477-10-10-10H90.887v-10.851c0-5.524-4.48-10-10-10H10c-5.523 0-10 4.476-10 10v185.996c0 5.523 4.477 10 10 10h70.887c5.52 0 10-4.477 10-10V482.46h40.035c5.523 0 10-4.477 10-10v-3.512h11.406c8.43 27.555 28.168 30.735 36.797 30.735h63.426c6.52 7.539 16.148 12.316 26.87 12.316h90.88c19.586 0 35.52-15.934 35.52-35.523a35.344 35.344 0 0 0-6.696-20.739c10.195-6.25 17.012-17.496 17.012-30.304zm-20 0c0 8.558-6.961 15.523-15.524 15.523h-67.976v-8.84c0-5.523-4.48-10-10-10-5.524 0-10 4.477-10 10v8.84h-2.903c-8.558 0-15.52-6.965-15.52-15.523s6.962-15.524 15.52-15.524h90.88c8.558 0 15.523 6.965 15.523 15.524zm-83.5-35.524v-7.418c0-5.523-4.48-10-10-10-5.524 0-10 4.477-10 10v7.418h-2.903c-8.558 0-15.52-6.965-15.52-15.523 0-8.559 6.962-15.52 15.52-15.52h90.88c8.558 0 15.523 6.961 15.523 15.52 0 8.558-6.965 15.523-15.524 15.523zm73.187-66.566c0 8.558-6.965 15.52-15.523 15.52h-68.633v-8.462c0-5.523-4.477-10-10-10s-10 4.477-10 10v8.461h-2.246c-8.559 0-15.52-6.96-15.52-15.52s6.961-15.523 15.52-15.523H370.3c8.558 0 15.523 6.965 15.523 15.524zM70.887 483.309H55.44V395.37c0-5.523-4.476-10-10-10-5.52 0-10 4.477-10 10v87.938H20V317.312h50.887zm50.035-20.848H90.887V338.164h30.035zm68.203 17.223c-3.656 0-14.79 0-19.152-22.63a10.005 10.005 0 0 0-9.82-8.105h-19.231V348.535s11.074.027 13.055.05c21.046.263 44.902.548 52.332-36.75.043-.23.082-.464.113-.698l7.988-63.215c.008-.059.016-.117.02-.176a20.772 20.772 0 0 1 20.68-18.555 20.662 20.662 0 0 1 14.706 6.09 20.63 20.63 0 0 1 6.086 14.7l-.004 46.765c-7.355 6.512-12 16.024-12 26.598 0 12.808 6.817 24.054 17.012 30.304a35.344 35.344 0 0 0-6.695 20.739c0 10.008 4.156 19.058 10.84 25.523-6.684 6.461-10.84 15.516-10.84 25.52a35.344 35.344 0 0 0 6.695 20.738c-10.195 6.25-17.012 17.496-17.012 30.309 0 1.082.051 2.152.145 3.207zM370.301 492h-68.633v-8.074c0-5.524-4.477-10-10-10s-10 4.476-10 10V492h-2.246c-8.559 0-15.524-6.965-15.524-15.523 0-8.559 6.965-15.52 15.524-15.52H370.3c8.558 0 15.52 6.961 15.52 15.52.003 8.558-6.962 15.523-15.52 15.523zm-105.68-297.645a9.965 9.965 0 0 1-6.64-2.527l-27.907-24.785H75.172c-5.524 0-10-4.477-10-10V10c0-5.523 4.476-10 10-10h378.894c5.524 0 10 4.477 10 10v147.043c0 5.523-4.476 10-10 10H299.164l-27.902 24.785a9.98 9.98 0 0 1-6.64 2.527zm-179.45-47.312h148.704a9.99 9.99 0 0 1 6.64 2.523l24.106 21.41 24.102-21.41a10.01 10.01 0 0 1 6.64-2.523H444.07V20H85.172zm0 0"/><path d="M286.379 122.184a9.982 9.982 0 0 1-3.899-.793l-17.859-7.567-17.86 7.567a10.016 10.016 0 0 1-9.78-1.118 10.014 10.014 0 0 1-4.086-8.957l1.68-19.324-12.716-14.644a10.01 10.01 0 0 1-1.96-9.649 10.006 10.006 0 0 1 7.253-6.652l18.899-4.375 10-16.617a9.999 9.999 0 0 1 17.137 0l10.003 16.617 18.895 4.375a9.999 9.999 0 0 1 7.254 6.652 10.008 10.008 0 0 1-1.957 9.649l-12.719 14.644 1.68 19.324a10.006 10.006 0 0 1-9.965 10.868zm-38.524-45.399l4.598 5.297a9.994 9.994 0 0 1 2.41 7.422l-.605 6.988 6.46-2.738a10.012 10.012 0 0 1 7.802 0l6.46 2.738-.605-6.988a10.01 10.01 0 0 1 2.41-7.422l4.602-5.297-6.836-1.586a9.994 9.994 0 0 1-6.313-4.586l-3.617-6.011-3.617 6.011a10.004 10.004 0 0 1-6.313 4.586zm-71.726 45.399a10 10 0 0 1-3.902-.793l-17.86-7.567-17.86 7.567a10.008 10.008 0 0 1-9.777-1.118 9.997 9.997 0 0 1-4.085-8.957l1.675-19.324-12.715-14.644a10.006 10.006 0 0 1 5.297-16.3l18.895-4.376L145.8 40.055a9.999 9.999 0 0 1 17.137 0l10 16.617 18.894 4.375a9.999 9.999 0 0 1 7.254 6.652 9.999 9.999 0 0 1-1.957 9.649l-12.715 14.644 1.676 19.324a10.002 10.002 0 0 1-4.082 8.957 10.004 10.004 0 0 1-5.88 1.91zm-38.527-45.399l4.601 5.297a10.01 10.01 0 0 1 2.41 7.422l-.605 6.988 6.46-2.738a10.012 10.012 0 0 1 7.802 0l6.46 2.738-.605-6.988a10.01 10.01 0 0 1 2.41-7.422l4.602-5.297L164.3 75.2a9.984 9.984 0 0 1-6.313-4.586l-3.617-6.008-3.617 6.008a10.004 10.004 0 0 1-6.313 4.586zm259.031 45.399a10 10 0 0 1-3.903-.793l-17.859-7.567-17.86 7.567a10.008 10.008 0 0 1-9.777-1.118 9.997 9.997 0 0 1-4.086-8.957l1.676-19.324-12.715-14.644a10.008 10.008 0 0 1-1.957-9.649 9.999 9.999 0 0 1 7.254-6.652l18.895-4.375 10.004-16.617a9.992 9.992 0 0 1 8.566-4.844 9.992 9.992 0 0 1 8.567 4.844l10.003 16.617 18.895 4.375a9.999 9.999 0 0 1 7.254 6.652 10.008 10.008 0 0 1-1.957 9.649l-12.715 14.644 1.676 19.324a10.002 10.002 0 0 1-4.082 8.957 10.004 10.004 0 0 1-5.88 1.91zm-21.762-29.22c1.328 0 2.656.263 3.902.79l6.461 2.738-.605-6.988a9.994 9.994 0 0 1 2.41-7.422l4.598-5.3-6.832-1.583a9.984 9.984 0 0 1-6.313-4.586l-3.62-6.011-3.618 6.011a9.986 9.986 0 0 1-6.309 4.586l-6.836 1.582 4.602 5.301a10.01 10.01 0 0 1 2.41 7.422l-.605 6.988 6.457-2.738a10.005 10.005 0 0 1 3.898-.79zm0 0"/></svg>