<svg version="1.1" id="Layer_1" xmlns="http://www.w3.org/2000/svg" x="0" y="0" viewBox="0 0 511.999 511.999" xml:space="preserve"><path d="M468.15 157.858h-21.558v-13.863l13.451-14.814a41.616 41.616 0 0 0 10.828-28.033V66.017c0-24.565-19.986-44.55-44.551-44.55h-20.492c-24.565 0-44.55 19.986-44.55 44.55v35.131a41.623 41.623 0 0 0 10.827 28.033l13.453 14.816v13.861H364c-20.944 0-38.497 14.764-42.821 34.43a48.504 48.504 0 0 0-6.729-.478h-25.252v-16.958l15.404-16.963a45.909 45.909 0 0 0 11.943-30.92V87.4c0-27.132-22.073-49.203-49.204-49.203-4.252 0-7.697 3.445-7.697 7.697s3.445 7.697 7.697 7.697c18.643 0 33.81 15.166 33.81 33.809v39.568a30.543 30.543 0 0 1-7.945 20.571l-15.862 17.469a7.69 7.69 0 0 0-3.538 6.478v28.022a7.696 7.696 0 0 0 7.697 7.697h32.949c18.207 0 33.021 14.813 33.021 33.021v48.298H164.13v-48.298c0-14.196 9.006-26.326 21.602-30.984a7.59 7.59 0 0 0 1.689-.573 32.934 32.934 0 0 1 9.729-1.465h32.949a7.696 7.696 0 0 0 7.697-7.697v-28.022a7.692 7.692 0 0 0-3.538-6.478l-15.862-17.469a30.542 30.542 0 0 1-7.947-20.571V87.4c0-18.642 15.166-33.809 33.81-33.809 4.251 0 7.697-3.445 7.697-7.697s-3.446-7.697-7.697-7.697c-27.132 0-49.204 22.072-49.204 49.203v39.568a45.912 45.912 0 0 0 11.943 30.92L222.4 174.85v16.959h-25.252c-2.151 0-4.265.155-6.342.429-4.342-19.641-21.881-34.38-42.808-34.38H126.44v-13.863l13.451-14.814a41.616 41.616 0 0 0 10.828-28.033V66.017c0-24.565-19.986-44.55-44.551-44.55h-20.49c-24.565 0-44.55 19.986-44.55 44.55v35.131a41.614 41.614 0 0 0 10.828 28.033l13.452 14.815v13.862H43.85c-24.179 0-43.85 19.671-43.85 43.85v49.716a7.696 7.696 0 0 0 7.697 7.697h119.758c4.251 0 7.697-3.445 7.697-7.697s-3.446-7.697-7.697-7.697H15.394v-42.019c0-15.69 12.765-28.456 28.456-28.456h29.255a7.696 7.696 0 0 0 7.697-7.697v-24.88a7.69 7.69 0 0 0-3.441-6.414l-14.009-15.428a26.253 26.253 0 0 1-6.831-17.684V66.017c0-16.077 13.079-29.156 29.156-29.156h20.492c16.077 0 29.157 13.079 29.157 29.156v35.131a26.251 26.251 0 0 1-6.831 17.684l-14.01 15.429a7.69 7.69 0 0 0-3.439 6.413v24.88a7.696 7.696 0 0 0 7.697 7.697h29.255c13.975 0 25.621 10.129 28.002 23.43-16.127 7.864-27.265 24.424-27.265 43.542v55.995a7.696 7.696 0 0 0 7.697 7.697h198.736a7.696 7.696 0 0 0 7.697-7.697v-55.995c0-18.971-10.973-35.419-26.901-43.355 2.305-13.392 13.995-23.617 28.036-23.617h29.255a7.696 7.696 0 0 0 7.697-7.697v-24.88a7.689 7.689 0 0 0-3.442-6.415l-14.008-15.427a26.25 26.25 0 0 1-6.83-17.684V66.017c0-16.077 13.079-29.156 29.156-29.156h20.492c16.077 0 29.157 13.079 29.157 29.156v35.131a26.251 26.251 0 0 1-6.831 17.684l-14.009 15.429a7.689 7.689 0 0 0-3.44 6.413v24.88a7.696 7.696 0 0 0 7.697 7.697h29.255c15.69 0 28.456 12.765 28.456 28.456v42.019H385.868c-4.252 0-7.697 3.445-7.697 7.697s3.445 7.697 7.697 7.697h118.434a7.696 7.696 0 0 0 7.697-7.697v-49.716c.001-24.178-19.67-43.849-43.849-43.849zM333.406 401.466a7.695 7.695 0 0 0-6.073-5.218l-42.046-6.902-19.557-37.856a7.698 7.698 0 0 0-13.676 0l-19.557 37.856-42.046 6.902a7.699 7.699 0 0 0-4.227 13.009l29.958 30.297-6.429 42.12a7.694 7.694 0 0 0 3.085 7.388 7.691 7.691 0 0 0 7.979.651l38.073-19.13 38.073 19.13a7.69 7.69 0 0 0 7.979-.651 7.694 7.694 0 0 0 3.085-7.388l-6.43-42.12 29.958-30.297a7.689 7.689 0 0 0 1.851-7.791zm-45.47 30.013a7.702 7.702 0 0 0-2.136 6.573l4.765 31.214-28.216-14.176a7.7 7.7 0 0 0-6.911 0l-28.216 14.176 4.764-31.214a7.695 7.695 0 0 0-2.136-6.573l-22.204-22.454 31.16-5.114a7.7 7.7 0 0 0 5.591-4.063l14.494-28.055 14.493 28.055a7.702 7.702 0 0 0 5.591 4.063l31.16 5.114-22.199 22.454zm213.958-86.61a7.698 7.698 0 0 0-6.071-5.218l-42.046-6.902-19.558-37.856a7.698 7.698 0 0 0-13.676 0l-19.557 37.856-42.047 6.902a7.699 7.699 0 0 0-4.227 13.009l29.959 30.297-6.43 42.121a7.694 7.694 0 0 0 3.085 7.388 7.693 7.693 0 0 0 7.979.651l38.073-19.13 38.073 19.13a7.686 7.686 0 0 0 7.979-.651 7.694 7.694 0 0 0 3.085-7.388l-6.43-42.121 29.959-30.297a7.69 7.69 0 0 0 1.85-7.791zm-45.47 30.014a7.701 7.701 0 0 0-2.136 6.573l4.765 31.215-28.216-14.176a7.7 7.7 0 0 0-6.912 0l-28.216 14.176 4.765-31.215a7.698 7.698 0 0 0-2.136-6.573l-22.203-22.453 31.16-5.114a7.698 7.698 0 0 0 5.591-4.063l14.493-28.055 14.494 28.055a7.702 7.702 0 0 0 5.591 4.063l31.159 5.114-22.199 22.453zM164.919 344.87a7.698 7.698 0 0 0-6.074-5.219l-42.046-6.902-19.557-37.856a7.7 7.7 0 0 0-13.678 0L64.009 332.75l-42.046 6.902a7.699 7.699 0 0 0-4.227 13.009l29.959 30.297-6.429 42.121a7.694 7.694 0 0 0 3.085 7.388 7.692 7.692 0 0 0 7.979.651l38.073-19.13 38.072 19.13a7.686 7.686 0 0 0 7.979-.651 7.694 7.694 0 0 0 3.085-7.388l-6.429-42.121 29.958-30.297a7.693 7.693 0 0 0 1.851-7.791zm-45.472 30.013a7.698 7.698 0 0 0-2.136 6.573l4.764 31.215-28.215-14.176a7.683 7.683 0 0 0-6.912 0l-28.216 14.176 4.765-31.215a7.695 7.695 0 0 0-2.136-6.573l-22.2-22.453 31.16-5.114a7.703 7.703 0 0 0 5.592-4.063l14.493-28.055 14.493 28.055a7.703 7.703 0 0 0 5.592 4.063l31.16 5.114-22.204 22.453z"/></svg>