<svg version="1.1" id="Capa_1" xmlns="http://www.w3.org/2000/svg" x="0" y="0" viewBox="0 0 523.029 523.029" xml:space="preserve"><circle cx="261.515" cy="267.029" r="256" fill="#7ec359"/><path d="M135.079 390.089l.796 27.664s-.888 10.816 5.584 12.944c0 0 10.64 1.952 13.476-3.724l.532-12.06s-.796-18.62-3.104-22.432l-17.284-2.392z" fill="#353944"/><path d="M136.235 416.245s8.6 6.296 18.708-.708l-2.836-22.164h-15.432l-.44 22.872zm3.012 10.196l4.04-3.672a4.09 4.09 0 0 1 4.932-.436l5.124 3.22s-8.156 4.788-14.096.888zm-80.948-30.768l-5.232 22.256v9.488s6.828 4.876 12.68-2.216l6.116-6.916v-12.856s-.2-2.196.972-3.516c1.004-1.132 1.628-2.54 1.576-4.052l-.332-9.28-15.78 7.092z" fill="#f7cfa3"/><path d="M53.067 416.601s5.408 8.156 19.504.62l-1.152 7.448s-.088 8.688-10.904 7.18c0 0-4.788 1.152-7.98-1.152 0 0-3.812-5.764.532-14.096zm18.8 5.184h1.68l.356-14.316 5.852-18.024-3.368 1.444-4.968 5.848-.972 10.2z" fill="#353944"/><path fill="#f0b97c" d="M105.455 45.589h27.596v40.928h-27.596z"/><path d="M113.435 9.693s-13.084 12.092-10.736 28.424c0 0 1.264 11.64 10.108 18.048 0 0 2.528 4.332 12.632 1.984 0 0 6.044-1.264 10.828-9.836 6.692-11.992 4.956-15.936 2.528-36.544l-8.572-7.852-7.04-.992-9.748 6.768z" fill="#f7cfa3"/><path d="M104.415 62.365c1.948 2.036 10.324 14.82 28.636-1.94 9.62 68.164 6.992 47.244 12.512 98.728l1.812 5.692s-29.76 19.28-50.724 10.48l-6.728-3.104c1.432-54.98.284-33.928 5.564-98.988l8.928-10.868z" fill="#fdfeff"/><path d="M170.003 212.161s.5 22.088-5.644 36.632c0 0-7.38 32.18-2.692 45.54 0 0 3.356 36.48-2.652 58.392l-6.416 42.488s-11.224 8.016-17.372-1.868c0 0-4.14-11.496 1.876-30.204l-2.672-12.692-1.336-35.276s.664-7.348-2.408-15.632l-1.072-29.4-6.144-42.312s-11.76 29.62-17.24 52.064c0 0-5.212 22.848-11.488 34.612l-9.096 44.492-3.868 18.576s2.54 8.956-4.008 17.636c0 0-10.956 9.22-20.576 1.336l1.204-26.056 2.408-5.744.936-19.512 1.196-2.94s1.204-24.32 3.344-30.196c0 0 .664-16.3 6.012-17.24 2.94-106.82 2.416-27.28 3.876-115.572l4.004-3.604 5.48-4.932s22.104 11.984 60.024-4.876l12.14 3.9 7.632 2.456 6.688 22.376-2.136 17.556z" fill="#656d7a"/><path d="M53.047 210.261s9.788 8.98 19.02-1.04l-3.104-11.684-8.592 3.004-7.324 9.72z" fill="#353944"/><path d="M72.775 240.213c3.276 6.224.848 6.544.848 6.544-6.64-.996-12.912-5.108-15.472-8.796v-.012c-4.396-6.176.608-18.14.48-37.744l11.772 1.008c.168 2.872.56 10.596 2.396 12.7 6.816 7.796 5.132 18.28-.024 26.3z" fill="#f7cfa3"/><path d="M157.815 169.781l-9.892 6.572c-46.364 18.304-67.348 1.272-67.348 1.272l-.404-1.936 5.48-4.932s22.104 11.984 60.024-4.876l12.14 3.9z" fill="#353944"/><path d="M99.543 64.377c-6.788 3.552-14.4 6.432-21.824 8.252-9.312 2.284-14.476 24.576-15.616 34.244-3.108 48.292-1.972 32.92-5.308 72.332 0 0 1.424 25.752-3.748 31.056 0 0 16.688-8.152 19.02-1.04 0 0-1.552-10.608 1.032-17.208 0 0 8.544 2.976 16.82 3.496 0 0 4.276 1.552 7.512-12.424 6.344-54.228 4.416-26.592 8.024-122.148-.004.004-2.12 1.46-5.912 3.44zm-20.292 94.384s-3.564 22.908-4.856 16.952c5.868-36.364 2.048-13.332 5.952-38.176 2.872 4.268.52 15.756-1.096 21.224z" fill="#4d535f"/><path d="M105.455 60.941l-2.912 77.188-11.968-58.424 8.276-3.496-6.136-1.944 6.832-9.884c3.792-1.984 5.908-3.44 5.908-3.44z" fill="#656d7a"/><path d="M53.067 427.521l4.04-3.672a4.09 4.09 0 0 1 4.932-.436l5.124 3.22s-8.156 4.788-14.096.888zm118.964-218.268s-6.64 7.444-6.54 13.076c0 0-.804 6.336-3.824 10.964 0 0 1.912 6.236 5.18-1.608 4.488-15.36 11.204-6.636.736 5.596 0 0-5.316 5.196-4.18 8.24 0 0-.732 5.56 3.492 2.192 12.136-12.36 15.1-14.028 15.708-20.984v-19.768l-10.572 2.292z" fill="#f7cfa3"/><path d="M184.839 213.961s-11.908-5.06-14.84-1.8c0 0 2.844-13.876-2.576-22.82l-8.936 4.212s-7.82 4.3-10.144-3.864c-14.048-39.424-18.216-49.252-17.936-61l1.584-68.272c4 2.56 15.076 7.96 29.176 11.16 4.772 1.084 11.348 14.472 12.42 30.008 6.608 57.088 4.208 33.308 11.252 112.376z" fill="#4d535f"/><path d="M146.555 79.033l-16.148 49.656 1.584-68.272s3.856 2.468 10.792 5.332l1.348 7.264-4.332 1.056 6.756 4.964z" fill="#656d7a"/><path d="M152.163 42.305c-6.216-14.208-3.08-16.632-9.444-29.76-16.028-26.108-43.172-8.096-47.488 23.16-6.08 13.456.776 20.184.776 20.184 1.352 4.868 1.056 9.36-1.552 13.328 11.968 11.236 14.504-14.896 11.004-22.12 0-11.232-2.076-28.92 12.672-37.636 10.592-6.26 18.608 8.084 18.188 20.268-1.04 2.968-.464 6.8.352 9.852.9 3.368-2.02 10.236-3.62 13.336-7.764 15.044-6.712 22.852 7.076 24.324-.368-5.264 1.136-9.536 4.788-12.68 14.752-9.316 7.248-22.256 7.248-22.256z" fill="#353944"/><path d="M71.547 223.689c1.316 4.316 1.84 12.632 1.228 16.16-1.004-4.056-1.704-12.096-1.228-16.16zm-1.828 22.164c-2.412-4.092-3.12-8.856-2.724-13.724.156 5.716 1.004 9.64 4.548 14.096l-.128.1-1.696-.472zm-5.248-2.66l-.216.108a24.115 24.115 0 0 1-1.488-1.008c-.848-3.108-.372-7.012.564-9.132-.96 4.316-.26 7.032 1.14 10.032zm-4.84-3.892l-.26.068c-.468-.468-.848-.876-1.224-1.412 0-2.248.284-4.1 1.332-6.188-.572 4-.932 3.144.152 7.532z" fill="#f0b97c"/><path d="M159.827 71.229c-9.74 40.852-3.6 77.468 7.6 118.132-13.648-37.94-19.788-79.32-7.6-118.132zm-78.636 68.648c-.372-1.64-.844-2.336-.844-2.336-.488 3.104-.892 5.712-1.228 7.884 1.36-30.088 1.368-44.756 1.552-73.572 1.644 22.332 1.784 45.092.52 68.024z" fill="#353944"/><path d="M175.163 233.593c-2.088 3.856-7.432 10.624-11.756 11.924 3.908-2.056 8.852-8.444 11.756-11.924z" fill="#f0b97c"/><path d="M341.167 415.861l5.396-23.176 14.496-.844 2.276 19.216-6.236 3.288-14.668 3.044zm104.744 3.96l-5.672-21.684-15.24-.792-2.392 17.98 6.556 3.076 15.416 2.848z" fill="#343943"/><path d="M338.451 402.513s-4.024 13.864-16.432 15.492c0 0-4.452.512-4.792 5.22 0 0-1.068 3.064 4.688 3.88l14.436.28 8.4-1.656c4.672-2.4 7.672-4.168 8.484-4.58 4.316-.108 2.508.016 8.484-.644l3.4-1.768s1.348-9.072-2.332-12.076c0 0 1.052 4.168-4.924 2.864-4.5-.98-6.948-4.704-11.196.816 0 0 3.54-5.764 1.068-7.824-.008-.004-6.256-6.336-9.284-.004z" fill="#896d61"/><path d="M317.303 422.581s-1.564.9-.768 3.084c0 0 2.896 4.028 12.172 3.272 4-.324 16.732.168 19.768-3.86l4.088-3.22 2.136 1.46s8.236.844 10.66-2.724c0 0 1.752-1.628-.408-3.2 0 0-2.304 3.68-10.84 2.612 0 0-2.668-.268-6.572 3.208-6.56 3.672-28.988 4.824-30.236-.632z" fill="#424854"/><path d="M448.767 407.333s4.228 12.972 17.276 14.492c0 0 4.68.48 5.04 4.884 1.772 4.528-10.816 3.732-20.108 3.892l-8.828-1.552c-6.048-2.764-9.132-4.38-8.916-4.284-4.536-.1-2.636.016-8.916-.604l-3.572-1.656s-1.416-8.488 2.452-11.3c-1.148 4.044 5.416 3.288 9.668 1.176 1.268-.632 4.128-1.376 7.28 2.264 0 0-3.72-5.392-1.12-7.32-.008.008 6.56-5.92 9.744.008z" fill="#896d61"/><path d="M470.995 426.105s1.648.84.808 2.884c0 0-3.044 3.768-12.792 3.064-4-.288-17.56.188-20.78-3.612l-4.296-3.012-2.244 1.368s-8.656.788-11.208-2.548c0 0-1.844-1.524.432-2.996 0 0 2.42 3.444 11.396 2.444 0 0 2.804-.252 6.908 3 6.884 3.436 30.468 4.516 31.776-.592z" fill="#424854"/><path fill="#f0b97c" d="M358.359 51.409l-.92 40.628v13.544h32.008l.772-59.252z"/><path d="M334.295 183.925l32.912 4.792h27.296l17.94-.548s-2.524-28.492-1.908-32.168c.616-3.68-1.936-47.208-1.692-48.112.244-.904 5.792-22.164 5.792-22.164l-21.776-16.456-6.684 8.904-2.832 5.616-12.868.948-7.308-1.724-2.736-6.196-4.036-6.044-4.096 3.916-12.004 16.068c-11.124 37-6.388 21.564-6.388 70.468 0 2.324.388 22.7.388 22.7z" fill="#e8e7e8"/><path d="M350.359 18.869s-1.14-11.876 8.752-12.256c0 0 5.404-15.072 35.088.38 0 0-1.98.152-1.98 1.292 0 0 3.28 1.5 5.104 3.86 0 0-1.04-.224-1.656.504 0 0 3.828 7.308 1.656 18.136l-2.8 8.944.14 1.304-7.264.86s-11.564-.14-13.256 0c-1.692.14-19.02-.348-19.02-.348l-3.072-.512c-2.128-10.368-1.692-5.7-1.692-22.164z" fill="#656c7a"/><path fill="#d64331" d="M369.747 97.673l-8.452 59.264 7.632 19.212 8.992-17.864-.588-60.388-.532-6.348-6.068 2.588z"/><path d="M365.371 90.765l6.96-9.324 1.496-.176 2.688.596 5.084 5.252s-1.404 7.724-4.268 10.784c0 0-4.608 3.172-7.584-.224 0 0-.972-4.184-4.376-6.908z" fill="#f1592f"/><path d="M358.043 65.417s.004 4.004 15.784 15.848c0 0-9.156 8.464-9.156 13.852 0 0-13.104-17.54-6.628-29.7zm31.912 1.28s-2.26 4.64-16.124 14.568c0 0 9.26 8.168 8.868 13.852-.004 0 16.736-22.02 7.256-28.42z" fill="#fdfeff"/><path d="M338.687 185.285l69.364 3.028 13.316 28.28-2.244 6.644 10.468 77.916 10.16 48.236 10.1 57.688s-20.688 6.464-30.124 4.656c0 0-1.036-31.548-5.172-34.908 0 0-4.268-9.052-5.688-26.248l-8.7-28.064a5.831 5.831 0 0 1-.096-3.112c.376-1.56.116-3.208-.768-4.548-1-1.516-2.088-3.724-1.652-5.716.284-1.3.248-2.652-.408-3.812-1.044-1.848-2.308-4.536-2.064-6.372.408-3.052-14.52-50.3-14.52-50.3s-1.048-9.136-9.136-8.016l-6.216 55.8s-1.828 5.672-.592 10.136a5.582 5.582 0 0 1-.024 3.148l-.732 2.368c-2.56 5.6 1.912 8.684 1.6 14.464-.512 9.44-1.74 34.764-.4 37.74l.972 44.64c-10.712.676-18.724-6.74-30.184-4.792v-72.828c0-9.312-4.528-18.864-3.296-35.852l-2.108-73.392-3.74-6.596 11.884-30.188z" fill="#4d535f"/><path d="M358.755 54.641l7.508 10.152c3.24 4.384 10.432 5.612 14.432.516l8.8-11.208s1.776-3.008 3.36-9.784c0 0 1.156 2.796 3.196-1.72 0 0 3.672-5.616 2.352-12.232 0 0-2.96-3.652-4.324 5.444l-.356 3.716-1.172-.456s1.272-8.088-.356-12.516l-.204-7.224s-1.832-8.804-11.956-4.832c0 0-6.664 2.952-12.62-.56 0 0-10.276-2.596-10.532 5.496 0 0 .052 4.884-1.372 9.564l.356 9.516-.916 1.528s.612-10.788-4.324-11.396c0 0-1.984.408-.456 7.732 0 0 .144 4.356 2.848 7.888 0 0 1.796 2.644 2.34-.56.004-.004 1.144 7.888 3.396 10.936z" fill="#f7cfa3"/><path d="M409.923 190.701s-16.68 1.008-35.232.54a310.062 310.062 0 0 1-11.524-.484c-10.428-.664-20.492-1.96-27.612-4.296l3.128-6.38s9.6 2.588 24.484 3.848c3.56.324 7.424.54 11.524.648 9.976.252 21.372-.268 33.38-2.3l1.852 8.424z" fill="#896d61"/><path d="M374.691 184.573v6.668a310.062 310.062 0 0 1-11.524-.484v-6.832c3.56.324 7.424.54 11.524.648z" fill="#f5ea07"/><path d="M352.527 139.181c.556 14.956-12.24 43.932-12.24 43.932-6.564 7.28-9.2 29.724-9.744 38.952l-17.564-6.488c4.152-10.212 14.04-58.528 14.04-58.528 6.092-23.828-6.216-42.68-1.132-77.944 2.16-2.104 13.948-5.952 19.864-7.336 1.796-.412 3.432-1.276 4.872-2.408.468-.36.952-.72 1.44-1.06.016 0 .016-.016.016-.016 2.336-1.616 6.044-2.744 6.044-2.744l-5.596 73.64z" fill="#4d535f"/><path d="M321.531 208.137s3.468 1.452 7.484-.46c0 0 .676-7.748 9.672-15.24-13.316-1.82-10.368-3.6-18.208 9.356l1.052 6.344z" fill="#656d7a"/><path d="M431.063 214.357l-12.8 5.824c-13.524-34.94-18.148-41.16-22.468-81.556l-5.784-71.964s.144 0 .412.072c.7.196 3.336-1 5.62 1.032.036.016.072.036.088.072.196.216.432.432.664.612l.052.052c1.348 1.116 2.948 1.904 4.656 2.372 14.972 3.956 27.972 11.128 27.972 11.128-23.364 78.428 1.588 132.356 1.588 132.356z" fill="#4d535f"/><path d="M409.923 191.845s.024 15.568 17.828 15.504l1.84-6.7-4.86-8.016-9.656-1.396-5.152.608z" fill="#656d7a"/><path d="M406.611 193.849l13.144-1.372 8.04 11.04-7.712 10.988s-8.504-18.596-13.472-20.656z" fill="#f7cfa3"/><path d="M409.923 191.845c3.176-4.632 2.756-3.98 3.836-5.388l12.676 4.904 6.372 5.804c-1.356 3.708-.368 1.56-5.06 10.18.004.004-4.188-12.676-17.824-15.5z" fill="#fff"/><path d="M321.531 202.357s2.616 9.772 6.26 11.36c0 0 4.28-13.364 8.504-18.7l-8.876-5.44-5.888 12.78z" fill="#f7cfa3"/><path d="M321.531 208.137l-3.548-7.816 4.532-7.752c7.648-5.984 5.352-4.476 10.84-7.224l2.364.788 2.968 6.308c0-.004-16.892 7.748-17.156 15.696z" fill="#fff"/><path d="M352.527 139.181c.556 14.956-12.24 43.932-12.24 43.932-.988 1.096-1.888 2.516-2.696 4.188l-.936.304c7.084-10.624 9.544-38.324 9.544-38.324 1.688-14.616-8.468-48.624-8.468-48.624l12.168-5.536-12.168-2.624c6.76-13.68 11.38-20.636 14.328-24.196.016 0 .016-.016.016-.016 2.336-1.616 6.044-2.744 6.044-2.744l-5.592 73.64z" fill="#656d7a"/><path d="M327.027 157.049l11.66 33.116c-16.1 1.328-19.916 15.604-19.916 15.604l-12.116-39.172c-8.944-17.184 12.604-87.496 19.236-87.484-5.044 34.992 7.14 54.34 1.136 77.936zm102.452-75.048s4.964 3.124 10.588 24.352l12.88 44.272s4.716 9.252-6.896 29.212l-16.576 25.932s1.732-14.332-18.424-16.636l16.276-36.104-7.656-13.42c.416-18.916 3.996-39.74 9.808-57.608z" fill="#4d535f"/><path d="M411.055 99.905s-10.892 37.768-10.012 47.512c0 0 2.372 26.46 5.628 43.284-6.884-14.776-10.876-52.076-10.876-52.076l-5.784-71.964s.144 0 .412.072c.7.196 3.336-1 5.62 1.032.036.016.072.036.088.072.216.196.448.396.664.612l.052.052c3.576 3.488 8.556 10.32 14.2 23.656l-12.492 2.968 12.5 4.78z" fill="#656d7a"/><path fill="#e8e7e8" d="M290.671 81.845l-21.024-13.488-39.6 5.18-23.5 13.352v165.32h84.124z"/><path d="M197.311 484.281l13.584-9.748 14.224-14.384 7.512-11.028 23.972-.8v23.972l-13.104 5.112-.48-4.796s-8.312 3.996-11.188 12.784c0 0-6.468 6.856-18.332 7.348-11.864.488-16.188-5.824-16.188-5.824v-2.636zm83.352-2.6s-15.468-1.516-17.588-5.1l1.628-6.844s-2.28-10.104 4.888-14.344l28.848 4.4 6.356 8.72s10.104 8.396 30.804 13.12l.652 4.236s-7.008 6.192-17.116 6.844c-10.104.652-21.516-4.4-26.24-7.496-4.728-3.096-11.86-7.564-11.86-7.564l-.372 4.028z" fill="#353944"/><path d="M254.971 220.641c-24.868-.02-53.992-5.896-53.992-5.896l-3.048 4.768.912 25.908-.912 22.86c12.424 92.132 6.488 61.964 20.416 117.308l3.544 46.84c.16 2.092 1.14 3.988 2.568 5.528.04.04.076.084.112.124 2.368 2.616 3.136 6.308 2.348 9.748l-2.088 9.076c1.128 4.368 12.12 6.484 12.12 6.484 13.892 1.152 20.468-4.004 20.468-4.004-1.292-2.772.328-8.88.328-8.88 2.42-8.236-2.012-18.524-4.508-23.364-1-1.94-1.4-4.12-1.192-6.292l.748-7.784c1.912-74.208 4.98-115.82 4.956-115.376 8.372 112.468 3.388 34.796 9.324 114.26 0 0-2.22 11.1-1.332 19.388 0 0-1.036 8.288.592 13.912 0 0-2.88 9.412.524 17.676 0 0 9.096 9.708 28.632 5.416 0 0 6.66-2.812 5.032-11.84s-5.032-11.1-5.032-11.1c4.732-8.736 7.356-18.448 7.42-28.384a94.083 94.083 0 0 0-.168-6.248s-.148-32.412 3.7-39.812c6.044-33.672 4.876-60.512 6.092-107.896v-35.232s-10.384-13.132-10.976-13.076c-.592.048-31.464 5.9-46.588 5.888z" fill="#4d535f"/><path d="M301.559 214.745c-.592.056-31.464 5.908-46.588 5.896-24.868-.02-53.992-5.896-53.992-5.896l-3.048 4.768.344 9.784 2.704-4.228s29.124 5.876 53.992 5.896c15.124.012 45.996-5.84 46.588-5.896s10.98 13.076 10.98 13.076v-10.324s-10.388-13.132-10.98-13.076z" fill="#343943"/><path d="M230.247 53.353v24.86c3.68.616 6.612 2.264 8.8 4.536 2.64.564 4.904 1.636 6.732 3.128 2.528-.22 4.584-.236 7.472.7 2.42-4.752 6.972-8.348 13.72-8.696V53.349h-36.724v.004z" fill="#f0ba7b"/><path d="M271.123 18.161C271.583 2.337 252.519.777 252.519.777c-21.216-3.996-22.272 9.38-22.272 9.38-10.432 5.072-6.664 28.848-6.664 28.848l5.64 2.376 7.332-14.308c.148-4.416.032-6.892-.204-8.228 7.388-2.976 13.52 4.176 13.52 4.176-.02 2.144 10.304-.924 10.304-.924 10.388 2.576 4.54 24.004 6.8 23.364l3.504-7.168c2.468-6.184 1.556-10.208.644-20.132z" fill="#656d7a"/><path d="M260.703 232.793l-11.9-10.332c-3.424-57.648-8.68-114.588-1.016-127.7l1.308-7.256c7.296 9.42 7.764 16.388 24.528 135.856l-12.92 9.432z" fill="#d64331"/><path d="M269.211 49.665c-.836 10.452-8.432 15.084-8.432 15.084-4.98 7.524-12.82 7.28-12.82 7.28s-7.872.244-12.888-7.28c0 0-7.524-4.632-8.396-15.084-5.2-.436-6.584-21.636-.556-14.456l1.74-8.152c.712-13.424 6.132-15.816 6.376-15.816 4.288-2.016 8.068-1.388 10.836-.188 7.492 3.244 9.616-.528 15.116 2.312 10.38 2.576 7.348 22.468 9.58 21.84 5.988-7.18 4.652 14.024-.556 14.46z" fill="#f7cfa2"/><path d="M258.063 87.377l-.036.036c-3.788 4.976-2.804 3.024-3.184 11.912 0 0-5.952-3.392-8.532-.848 0 0-1.484-9.008-6.988-11.344-.244-.104-.452-.176-.628-.28l3.52-4.284s1.74 1.148 5.016 1.464l1.392-.94 2.056.94c1.812-.172 3.868-.628 6.2-1.464l1.184 4.808z" fill="#f1592f"/><path d="M266.971 64.749s1.628 7.28-18.36 18.34c0 0 6.936 8.52 8.184 13.212 0 0 9.048-8.668 12.192-15.776 0 0 4.604-9.492-2.016-15.776zm-36.724 0s-1.628 7.28 18.36 18.34c0 0-7.172 8.52-8.416 13.212 0 0-9.34-9.328-11.12-16.704 0 .004-2.096-7.696 1.176-14.848z" fill="#fdfeff"/><path d="M240.191 175.685c-3.764-20.448-11.984-70.436-9.928-110.948-2.3 3.136-4.424 9.336-7.836 11.112a22.45 22.45 0 0 1-3.24 1.428c-3.448 1.184-7.628 2.788-11.392 4.668-2.3 1.148-4.704 1.952-7.244 2.332-5.644.872-15.816 3.624-16.72 12.368 0 0-2.264 7.42-1.288 12.156.66 3.064.348 6.272-.416 9.3-1.604 6.688-3.868 17.104-4.252 24.316-.212 4.552-3.212 12.084-3.1 19.088.104 7.124-7.736 22.496-3.936 33.896 0 0 2.856 33.824 15.012 57.896 1.388 2.888 2.676 5.148 6.408 4.632h.068s7.56 11.74 19.02 16.684c11.46 4.912 17.904.416 19.784-4.668 9.9-21.708 8.664-29.212 11.148-83.604.004 0-.832-3.936-2.088-10.656zm-39.468 14.42l-.88-6.336c-.904-3.448.74-7.248 1.016-10.068.66-6.828 3.728-11.356 3.728-11.356l1.464 4.32-5.328 23.44zm133.904-1.708c-1.624-7.036 1.092-23.364-3.168-37.656-1.428-4.88.756-20.26-5.084-32.676-1.056-2.284-.7-1.596-5.436-28.984 0 0 1.392-8.116-12.96-8.5-3.38-.068-6.62-1.184-9.476-2.96-3.064-1.916-8.536-4.076-18.08-4.704-.244 0-.452-.036-.696-.068-2.196-.244-4.248-1.148-5.956-2.612l-6.164-5.296-.592-.172c.696.524 9.788 9.196-3.24 99.452 0 0 .14 7.976.628 18.844.8 17.348 2.612 42.012 6.408 53.4 0 0 7.14 31.176 14.248 34.868 7.108 3.692 7.7 5.54 18.496-2.472 0 0 4.808-3.728 10.172-9.16a79.336 79.336 0 0 0 5.608-6.096c4.388-5.26 8.188-11.216 9.024-16.684 0 0 2.856-5.224 1.74-10.696-1.284-6.28 2.108-9.376 2.3-13.968.216-4.484 5.024-11.284 2.228-23.86zm-27.76-6.688s-5.468 12.228-2.96 21.144c-.556-1.044-5.816-11.564-3.276-25.884 0 0 4.284-6.48 4.388-13.064 0 0 .14 9.268 2.336 9.648l-.488 8.156z" fill="#656d7a"/><path d="M284.155 91.593l-19.752 91.476c-.488-10.868-.628-18.844-.628-18.844 13.552-93.808 3.196-99.472 3.196-99.472l.636.192 6.164 5.296c1.708 1.464 3.764 2.368 5.956 2.612 1.672 3.204 3.032 7.456 2.228 11.844l-5.016 3.448 7.216 3.448zm-66.92 1.812l7.212-3.448-5.016-3.484c-.664-3.484.836-7.244 2.996-10.624 3.412-1.776 5.524-7.96 7.82-11.096-2.056 40.512 6.18 90.484 9.944 110.932-10.552-21.008-16.788-50.44-22.956-82.28zm-12.644 68.936s-3.064 4.528-3.728 11.356c-3.992-11.244-7.304-13.056-4.772-39.328.036-.488.592-2.088.592-2.088 2.056 12.192 4.876 21.04 7.908 30.06zm-29.888 18.196c4-2.808 12.624-3.832 18.404-1.184 4.852 1.956 6.736 5.62 6.736 5.62-5.524-2.016-5.364-3.464-25.14-4.436zm24.136 14.552c-3.168-1.012-10.472-4.496-13.564-6.476-.4-.264-.632-.448-.632-.448 4.812-2.208 13.128 1.948 14.196 6.924zm-7.208 59.112c.104 1.324.28 2.576.628 3.728-3.732.516-5.02-1.744-6.408-4.632 1.4-2.908 4.364-9.1 6.864-11.18-.004-.004-1.536 6.3-1.084 12.084z" fill="#4d535f"/><path d="M191.631 254.201c-2.5-.444-3.332-1.848-4.32-3.936 1.708-3.308 3.728-6.76 5.4-8.152 0 0-1.532 6.304-1.08 12.088z" fill="#f7cfa2"/><g fill="#4d535f"><path d="M188.203 222.049c2.404-1.748 3.66-1.608 6.136-.584-.04 3.292-5.336 3.652-6.136.584z"/><path d="M185.063 231.397c-.184-3.876 4.968-8.1 8.764-7.16-1.468 3.144-5.448 6.32-8.764 7.16zm10.86-10.756c8.228 2.516 24.128 14.408 27.048 30.276-7.08-10.32-9.2-13.776-27.048-30.276zm94.656 31.568s-.068-2.396.44-5.88c1.276-9.372 5.904-22.604 13.14-28.356-3.052 6.64-10.876 28.836-13.58 34.236zm13.812-85.592c1.744-14.912-.488-13.844.68-29.832l2.936 15.096c.776 4 .036 14.608 3.048 20.664l-4.164 2.812-2.5-8.74zm14.952 87.02c-1.8 2.2-3.7 4.204-5.604 6.104l.8-6.304 1.3-11.204s.8 4.1 2 7.604c.404 1.496 1.004 2.9 1.504 3.8z"/></g><path d="M317.843 249.833c-1.1 1.3-2.2 2.5-3.3 3.6l1.3-11.204c0 .004.8 4.104 2 7.604z" fill="#f7cfa2"/><path d="M200.723 188.541c-.192 14.492-4.896 39.46-8.012 53.572 0 0-.556-3.42-.488-8.572.72-18.384 4.712-35.692 8.5-45zm102.696 11.172c5.912 26.956 6.752 27.092 12.424 42.52-8.92-7.82-15.672-29.124-12.424-42.52z" fill="#4d535f"/></svg>