<svg version="1.1" id="Capa_1" xmlns="http://www.w3.org/2000/svg" x="0" y="0" viewBox="0 0 513.144 513.144" xml:space="preserve"><path d="M478.979.008H137.325c-18.88 0-34.165 15.296-34.165 34.165v341.664c0 18.88 15.296 34.165 34.165 34.165h341.653c18.869 0 34.165-15.296 34.165-34.165V34.173C513.144 15.304 497.837.008 478.979.008" fill="#ffd15c"/><path fill="#f8b64c" d="M257.464.008v105.6l16.437-20.416 17.131 21.269 17.12-21.269 17.131 21.269 17.12-21.269 16.416 20.373V.008z"/><g fill="#fff"><path d="M324.205 265.64h81.216v81.227h-81.216V265.64zm75.595 5.621h-69.984v69.984H399.8v-69.984zm-101.152 5.419c-.021-.021-.021-.043-.043-.064h-16.981l.672 6.272.139 1.227-.672.544-8.331 6.688 2.997 8.117-4.715-8.021-.256-.437.437-.512 6.4-7.627-1.963-6.251h-29.728c1.056 16.267 10.208 29.397 21.995 31.84v19.328h-9.131v8.085h26.336v-8.085h-9.109v-19.328c11.745-2.464 20.897-15.541 21.953-31.776m-166.933-24.171c.267 2.464.267 4.96-.064 7.424h65.141v92.619h-75.253c1.248 2.315 2.101 4.832 2.656 7.435h80.032V252.509h-72.512z"/><path d="M301.315 352.552h-74.987v-92.608h68.619c.171-2.539.587-5.056 1.376-7.435h-77.44v107.477h82.421a30.918 30.918 0 0 1 .011-7.434m-143.712-13.141h-14.187v-42.528h-16.725l23.808-23.808 23.797 23.808h-16.693zm232.533-33.366c-.256-13.781-11.488-24.885-25.333-24.885s-25.077 11.104-25.333 24.885h50.666z"/><path d="M360.696 331.336a5.95 5.95 0 0 1-5.941-5.941v-1.035h3.808v1.035c0 1.152.96 2.112 2.123 2.112 1.152 0 2.101-.96 2.101-2.112v-29.536h3.819v29.536c.01 3.274-2.657 5.941-5.91 5.941"/></g><path transform="rotate(-134.999 117.86 394.677)" fill="#e8eaea" d="M96.885 373.64h41.952v42.069H96.885z"/><path d="M124.525 387.944c-46.549-46.56-46.549-122.304 0-168.853 46.539-46.539 122.283-46.539 168.832.021 46.539 46.528 46.539 122.272 0 168.832-46.538 46.539-122.293 46.539-168.832 0m146.102-146.101c-34.016-34.016-89.355-34.016-123.371-.021-34.005 34.016-34.005 89.355.011 123.371 34.005 34.005 89.355 34.005 123.36 0 34.005-33.996 34.005-89.345 0-123.35" fill="#40596b"/><path d="M124.461 420.723L92.44 388.701c-4.224-4.235-11.093-4.235-15.317 0L9.016 456.797c-12.021 12.011-12.021 31.488 0 43.488l3.84 3.851c12.011 12 31.488 12 43.499 0l68.096-68.107c4.245-4.224 4.245-11.082.01-15.306" fill="#ff7058"/><path d="M121.656 438.909l-47.392-47.413c-3.392-3.392-3.392-8.917 0-12.299 3.392-3.403 8.917-3.403 12.309 0l47.392 47.403c3.403 3.381 3.403 8.896 0 12.309-3.392 3.392-8.896 3.392-12.309 0" fill="#f1543f"/></svg>