<svg version="1.1" id="Capa_1" xmlns="http://www.w3.org/2000/svg" x="0" y="0" viewBox="0 0 512 512" xml:space="preserve"><path d="M431.387 22.517H80.603c-17.675 0-32 14.325-32 32V480c0 17.675 14.325 32 32 32h350.795c17.675 0 32-14.325 32-32V54.517c-.011-17.674-14.326-32-32.011-32" fill="#ffd15c"/><path fill="#f2f2f2" d="M91.259 65.173h329.472v404.149H91.259z"/><path d="M133.925 397.653h43.093v29.035h-43.093zm75.766 0h168.363v29.035H209.691z" fill="#cdd6e0"/><path d="M133.925 309.867h43.093v29.035h-43.093zm75.766 0h168.363v29.035H209.691z" fill="#4cdbc4"/><path d="M133.925 222.176h43.093v29.035h-43.093zm75.766 0h168.363v29.035H209.691z" fill="#ff7058"/><path d="M133.925 134.453h43.093v29.035h-43.093zm75.766 0h168.363v29.035H209.691z" fill="#84dbff"/><path d="M353.861 96.075H158.117V14.336C158.117 6.411 164.539 0 172.453 0h167.072c7.915 0 14.336 6.411 14.336 14.336v81.739z" fill="#40596b"/></svg>