<svg version="1.1" id="Capa_1" xmlns="http://www.w3.org/2000/svg" x="0" y="0" viewBox="0 0 512 512" xml:space="preserve"><path d="M462.443 142.773h-92.565v-57.92h-21.333v102.688H113.877V83.669H92.544v114.539c0 5.899 4.779 10.667 10.667 10.667h83.915V342.88H86.155v21.333h111.648a10.657 10.657 0 0 0 10.667-10.667V208.875h32.757v197.088h21.333V281.269h85.995v181.184c0 5.877 4.779 10.667 10.667 10.667h68.245v-21.333h-57.579V270.603a10.657 10.657 0 0 0-10.667-10.667H262.56v-51.061h96.661a10.657 10.657 0 0 0 10.667-10.667v-34.101h81.899v109.856h21.333V153.44a10.666 10.666 0 0 0-10.677-10.667" fill="#40596b"/><path d="M152.779 49.557c0 27.371-22.187 49.557-49.557 49.557S53.664 76.928 53.664 49.557 75.84 0 103.221 0s49.558 22.187 49.558 49.557" fill="#f2f2f2"/><path d="M129.291 49.557c0 14.4-11.669 26.059-26.069 26.059S77.163 63.947 77.163 49.557s11.669-26.059 26.059-26.059c14.399.001 26.069 11.67 26.069 26.059" fill="#ffd15c"/><path d="M408.779 49.557c0 27.371-22.187 49.557-49.557 49.557-27.371 0-49.557-22.187-49.557-49.557S331.84 0 359.221 0c27.382 0 49.558 22.187 49.558 49.557" fill="#f2f2f2"/><path d="M385.291 49.557c0 14.4-11.669 26.059-26.069 26.059-14.4 0-26.059-11.669-26.059-26.059s11.669-26.059 26.059-26.059c14.399.001 26.069 11.67 26.069 26.059" fill="#ff7058"/><path d="M512 462.443c0 27.37-22.187 49.557-49.557 49.557-27.371 0-49.557-22.187-49.557-49.557 0-27.349 22.187-49.547 49.557-49.547S512 435.083 512 462.443" fill="#f2f2f2"/><path d="M488.512 462.443c0 14.421-11.669 26.08-26.059 26.08s-26.069-11.669-26.069-26.08c0-14.4 11.68-26.059 26.069-26.059s26.059 11.659 26.059 26.059" fill="#ff7058"/><path d="M512 310.645c0 27.349-22.187 49.547-49.557 49.547-27.371 0-49.557-22.187-49.557-49.547 0-27.371 22.187-49.557 49.557-49.557S512 283.275 512 310.645" fill="#f2f2f2"/><path d="M488.512 310.645c0 14.4-11.669 26.059-26.059 26.059s-26.069-11.669-26.069-26.059 11.68-26.08 26.069-26.08 26.059 11.68 26.059 26.08" fill="#84dbff"/><path d="M301.451 437.963c0 27.371-22.187 49.557-49.557 49.557s-49.557-22.187-49.557-49.557c0-27.371 22.187-49.557 49.557-49.557s49.557 22.175 49.557 49.557" fill="#f2f2f2"/><path d="M277.973 437.963c0 14.4-11.669 26.059-26.069 26.059-14.4 0-26.069-11.669-26.069-26.059 0-14.389 11.669-26.059 26.069-26.059 14.4 0 26.069 11.659 26.069 26.059" fill="#ffd15c"/><path d="M99.115 353.547c0 27.371-22.187 49.557-49.557 49.557S0 380.917 0 353.547c0-27.371 22.187-49.557 49.557-49.557 27.371-.011 49.558 22.175 49.558 49.557" fill="#f2f2f2"/><path d="M75.637 353.547c0 14.4-11.68 26.059-26.08 26.059s-26.059-11.669-26.059-26.059c0-14.389 11.669-26.08 26.059-26.08 14.4-.011 26.08 11.68 26.08 26.08" fill="#3dc9ae"/></svg>