<svg version="1.1" id="Capa_1" xmlns="http://www.w3.org/2000/svg" x="0" y="0" viewBox="0 0 512.003 512.003" xml:space="preserve"><path fill="#40596b" d="M76.806 222.477h356.971V511.97H76.806z"/><path fill="#334a5e" d="M76.806 222.477h356.971v19.851H76.806z"/><path fill="#ffd15c" d="M112.006 400.28h128.427v111.723H112.006z"/><path fill="#f2f2f2" d="M156.219 444.323v-44.032h39.926v43.978l-19.958-16.778z"/><path fill="#ffd15c" d="M271.27 400.28h128.427v111.723H271.27z"/><path fill="#f2f2f2" d="M315.473 444.323v-44.032h39.925v43.978l-19.957-16.778z"/><path fill="#f8b64c" d="M191.633 288.536H320.06v111.723H191.633z"/><g fill="#f2f2f2"><path d="M235.835 332.6v-44.032h39.936v43.979l-19.968-16.779z"/><path d="M475.462 154.52v357.483h-43.819V225.677H80.006v286.326H36.177V154.52z"/></g><path fill="#e8eaea" d="M36.177 154.52h439.36v27.872H36.177z"/><path d="M8.219 130.019L248.731 1.816a15.46 15.46 0 0 1 14.539 0l240.523 128.203c14.197 7.573 8.821 29.099-7.285 29.099H15.483c-16.096-.001-21.472-21.526-7.264-29.099" fill="#ff7058"/></svg>