<?xml version="1.0" encoding="iso-8859-1"?>
<!-- Generator: Adobe Illustrator 19.0.0, SVG Export Plug-In . SVG Version: 6.00 Build 0)  -->
<svg version="1.1" id="Capa_1" xmlns="http://www.w3.org/2000/svg" xmlns:xlink="http://www.w3.org/1999/xlink" x="0px" y="0px"
	 viewBox="0 0 512 512" style="enable-background:new 0 0 512 512;" xml:space="preserve">
<path style="fill:#ACB3BA;" d="M328.939,270.059l21.589-51.552l-31.168-29.365c0.789-8.811,0.832-17.461,0.064-26.112l31.456-29.259
	l-21.141-51.659l-42.944,1.205c-5.515-6.709-11.616-12.853-18.357-18.571l1.611-42.795l-51.541-21.6l-29.376,31.179
	c-8.789-0.8-17.461-0.843-26.101-0.075L133.771,0L82.112,21.141L83.36,64c-6.699,5.515-12.992,11.669-18.603,18.453l-42.805-1.632
	L0.341,132.373l31.189,29.376c-0.896,8.757-0.885,17.557-0.128,26.208L0,217.12l21.152,51.648l42.933-1.205
	c5.525,6.709,11.616,12.853,18.357,18.571l-1.621,42.805l51.541,21.6l29.387-31.179c8.8,0.789,17.461,0.832,26.112,0.064
	l29.248,31.467l51.648-21.152l-1.184-42.944c6.699-5.525,12.843-11.627,18.56-18.368L328.939,270.059z M146.752,243.915
	c-37.792-15.84-55.616-59.371-39.776-97.163s59.371-55.616,97.163-39.787c37.792,15.84,55.627,59.371,39.776,97.173
	C228.085,241.931,184.544,259.755,146.752,243.915"/>
<g>
	<path style="fill:#4CDBC4;" d="M512,407.296v-38.965l-27.968-10.485c-1.856-5.877-4.16-11.456-6.976-16.811l12.331-27.296
		l-27.499-27.509l-27.307,12.341c-5.355-2.827-10.923-5.131-16.8-6.987l-10.475-27.957H368.32l-10.475,27.957
		c-5.877,1.856-11.456,4.16-16.811,6.987l-27.296-12.341l-27.509,27.509l12.341,27.221c-2.837,5.355-5.205,11.008-6.987,16.885
		l-27.968,10.485v38.965l27.968,10.485c1.781,5.877,4.16,11.52,6.987,16.875l-12.341,27.221l27.509,27.52l27.296-12.352
		c5.355,2.827,10.933,5.131,16.811,6.997L368.32,512h38.976l10.475-27.957c5.877-1.867,11.445-4.171,16.8-6.997l27.307,12.352
		l27.499-27.52l-12.331-27.296c2.827-5.344,5.12-10.923,6.976-16.8L512,407.296z M387.808,448.672
		c-33.589,0-60.864-27.264-60.864-60.864c0-33.589,27.275-60.853,60.864-60.853s60.864,27.264,60.864,60.853
		C448.672,421.408,421.408,448.672,387.808,448.672"/>
	<path style="fill:#4CDBC4;" d="M387.808,414.368c-14.656,0-26.56-11.904-26.56-26.56s11.904-26.56,26.56-26.56
		s26.549,11.904,26.549,26.56S402.464,414.368,387.808,414.368"/>
</g>
<g>
</g>
<g>
</g>
<g>
</g>
<g>
</g>
<g>
</g>
<g>
</g>
<g>
</g>
<g>
</g>
<g>
</g>
<g>
</g>
<g>
</g>
<g>
</g>
<g>
</g>
<g>
</g>
<g>
</g>
</svg>
