<svg version="1.1" id="Capa_1" xmlns="http://www.w3.org/2000/svg" x="0" y="0" viewBox="0 0 512 512" xml:space="preserve"><path d="M328.939 270.059l21.589-51.552-31.168-29.365c.789-8.811.832-17.461.064-26.112l31.456-29.259-21.141-51.659-42.944 1.205c-5.515-6.709-11.616-12.853-18.357-18.571l1.611-42.795-51.541-21.6-29.376 31.179c-8.789-.8-17.461-.843-26.101-.075L133.771 0 82.112 21.141 83.36 64c-6.699 5.515-12.992 11.669-18.603 18.453l-42.805-1.632L.341 132.373l31.189 29.376c-.896 8.757-.885 17.557-.128 26.208L0 217.12l21.152 51.648 42.933-1.205c5.525 6.709 11.616 12.853 18.357 18.571l-1.621 42.805 51.541 21.6 29.387-31.179c8.8.789 17.461.832 26.112.064l29.248 31.467 51.648-21.152-1.184-42.944c6.699-5.525 12.843-11.627 18.56-18.368l42.806 1.632zm-182.187-26.144c-37.792-15.84-55.616-59.371-39.776-97.163s59.371-55.616 97.163-39.787c37.792 15.84 55.627 59.371 39.776 97.173-15.83 37.793-59.371 55.617-97.163 39.777" fill="#acb3ba"/><g fill="#4cdbc4"><path d="M512 407.296v-38.965l-27.968-10.485c-1.856-5.877-4.16-11.456-6.976-16.811l12.331-27.296-27.499-27.509-27.307 12.341c-5.355-2.827-10.923-5.131-16.8-6.987l-10.475-27.957H368.32l-10.475 27.957c-5.877 1.856-11.456 4.16-16.811 6.987l-27.296-12.341-27.509 27.509 12.341 27.221c-2.837 5.355-5.205 11.008-6.987 16.885l-27.968 10.485v38.965l27.968 10.485c1.781 5.877 4.16 11.52 6.987 16.875l-12.341 27.221 27.509 27.52 27.296-12.352c5.355 2.827 10.933 5.131 16.811 6.997L368.32 512h38.976l10.475-27.957c5.877-1.867 11.445-4.171 16.8-6.997l27.307 12.352 27.499-27.52-12.331-27.296c2.827-5.344 5.12-10.923 6.976-16.8L512 407.296zm-124.192 41.376c-33.589 0-60.864-27.264-60.864-60.864 0-33.589 27.275-60.853 60.864-60.853s60.864 27.264 60.864 60.853c0 33.6-27.264 60.864-60.864 60.864"/><path d="M387.808 414.368c-14.656 0-26.56-11.904-26.56-26.56s11.904-26.56 26.56-26.56 26.549 11.904 26.549 26.56-11.893 26.56-26.549 26.56"/></g></svg>