<svg version="1.1" id="Capa_1" xmlns="http://www.w3.org/2000/svg" x="0" y="0" viewBox="0 0 507.264 507.264" xml:space="preserve"><path d="M475.376 131.024V55.76c0-17.68-14.336-32-32-32H63.888c-17.68 0-32 14.32-32 32v75.264h443.488z" fill="#d8d9d8"/><path d="M31.888 451.504c0 17.664 14.32 32 32 32h379.504c17.664 0 32-14.336 32-32v-320.48H31.888v320.48z" fill="#464646"/><path fill="#6f7070" d="M79.888 179.024h347.504v256.48H79.888z"/><circle cx="90.128" cy="77.392" r="20.656" fill="#3789c9"/><circle cx="148.448" cy="77.392" r="20.656" fill="#6f7070"/><circle cx="206.752" cy="77.392" r="20.656" fill="#3789c9"/><path d="M330.432 77.392c0 8.832 7.152 16 16 16h76.064c8.848 0 16-7.168 16-16s-7.152-16-16-16h-76.064c-8.832 0-16 7.168-16 16zm-66.352 0c0 8.832 7.152 16 16 16h18.736c8.848 0 16-7.168 16-16s-7.152-16-16-16H280.08c-8.848 0-16 7.168-16 16z" fill="#e5e5e5"/><path d="M374.528 201.584c-10.256 0-18.56 7.76-18.56 17.328s8.32 17.328 18.56 17.328h8.304c8.592 0 15.568 6.56 15.536 14.576v.192c0 .352.016.704.032 1.056.512 7.904-6.208 14.56-14.688 14.56H324.4c-10.048 0-19.072 7.024-19.6 16.4-.56 10 7.952 18.256 18.544 18.256h53.12c8.624 0 15.616 6.56 15.568 14.608v1.216c.048 8.48-7.328 15.408-16.416 15.408h-20.304c-10.048 0-19.072 7.024-19.584 16.4-.56 10 7.952 18.256 18.544 18.256h38.096c8.976 0 15.664 7.04 15.552 15.408v.416c.112 8.368-6.592 15.408-15.552 15.408h-15.344c-10.048 0-19.072 7.024-19.584 16.4-.56 10 7.952 18.256 18.544 18.256h51.424V201.584h-52.88z" fill="#7b7b7b"/><path d="M475.376 143.472H31.888v102.672c1.456.176 2.896.448 4.4.448 19.84 0 35.92-15.952 36.224-35.712.304 19.776 16.384 35.712 36.224 35.712s35.92-15.952 36.224-35.712c.304 19.776 16.368 35.712 36.224 35.712 19.84 0 35.92-15.952 36.224-35.712.304 19.776 16.384 35.712 36.224 35.712s35.92-15.952 36.224-35.712c.304 19.776 16.368 35.712 36.224 35.712 19.936 0 36.096-16.096 36.24-36 .16 19.904 16.304 36 36.256 36 19.84 0 35.92-15.952 36.224-35.712.304 19.776 16.384 35.712 36.224 35.712 1.504 0 2.944-.272 4.4-.448V143.472h-.048z" fill="#010101" opacity=".1"/><path fill="#e95454" d="M289.888 169.584h-72.56l4.304-39.12h63.952z"/><path fill="#f3f3f3" d="M72.56 169.584H0l30.064-39.12h63.968z"/><path fill="#e95454" d="M144.992 169.584H72.448l21.472-39.12h63.952z"/><path d="M217.44 169.584h-72.56l12.896-39.12h63.952zm144.88 0h-72.56l-4.272-39.12h63.952z" fill="#f3f3f3"/><path fill="#e95454" d="M434.816 169.584h-72.544l-12.88-39.12h63.952z"/><path fill="#f3f3f3" d="M507.264 169.584h-72.56l-21.472-39.12H477.2z"/><path d="M253.6 233.584c-20.032 0-36.272-16.24-36.272-36.272v-27.728h72.56v27.728c0 20.032-16.256 36.272-36.288 36.272z" fill="#cd494c"/><path d="M36.288 233.584c-20.032 0-36.272-16.24-36.272-36.272v-27.728h72.56v27.728c-.016 20.032-16.256 36.272-36.288 36.272z" fill="#e5e5e5"/><path d="M108.72 233.584c-20.032 0-36.272-16.24-36.272-36.272v-27.728h72.544v27.728c0 20.032-16.24 36.272-36.272 36.272z" fill="#cd494c"/><path d="M181.168 233.584c-20.032 0-36.272-16.24-36.272-36.272v-27.728h72.56v27.728c-.016 20.032-16.256 36.272-36.288 36.272zm144.88 0c-20.032 0-36.272-16.24-36.272-36.272v-27.728h72.56v27.728c-.016 20.032-16.256 36.272-36.288 36.272z" fill="#e5e5e5"/><path d="M398.544 233.584c-20.032 0-36.272-16.24-36.272-36.272v-27.728h72.56v27.728c-.016 20.032-16.256 36.272-36.288 36.272z" fill="#cd494c"/><path d="M470.976 233.584c-20.032 0-36.272-16.24-36.272-36.272v-27.728h72.56v27.728c0 20.032-16.24 36.272-36.288 36.272z" fill="#e5e5e5"/><path d="M186.16 316.064v82.096c0 14.432 11.696 26.112 26.112 26.112h82.72c14.432 0 26.112-11.696 26.112-26.112v-82.096H186.16z" fill="#fee218"/><path d="M186.16 396.752v1.408c0 14.432 11.696 26.112 26.112 26.112h82.72c14.432 0 26.112-11.696 26.112-26.112v-1.408H186.16z" fill="#f2cd1b"/><g fill="#464646"><circle cx="211.264" cy="331.136" r="10.144"/><circle cx="295.952" cy="331.136" r="10.144"/></g><path d="M302.464 302.752v27.776c0 3.568-2.88 6.528-6.528 6.528-3.568 0-6.528-2.96-6.528-6.528v-27.776c0-19.76-16.016-35.792-35.776-35.792s-35.872 16.016-35.872 35.792v27.776a6.514 6.514 0 0 1-6.528 6.528c-3.568 0-6.528-2.96-6.528-6.528v-27.776c0-26.896 21.936-48.848 48.928-48.848 26.896 0 48.832 21.936 48.832 48.848z" fill="#fff"/><path d="M92.144 151.136c0 8.832 7.152 16 16 16h140.064c8.848 0 16-7.168 16-16s-7.152-16-16-16H108.144c-8.848 0-16 7.168-16 16z" fill="#fff" opacity=".3"/></svg>