<?xml version="1.0" encoding="iso-8859-1"?>
<!-- Generator: Adobe Illustrator 19.0.0, SVG Export Plug-In . SVG Version: 6.00 Build 0)  -->
<svg version="1.1" id="Capa_1" xmlns="http://www.w3.org/2000/svg" xmlns:xlink="http://www.w3.org/1999/xlink" x="0px" y="0px"
	 viewBox="0 0 513.144 513.144" style="enable-background:new 0 0 513.144 513.144;" xml:space="preserve">
<path style="fill:#FFD15C;" d="M478.979,0.008H137.325c-18.88,0-34.165,15.296-34.165,34.165v341.664
	c0,18.88,15.296,34.165,34.165,34.165h341.653c18.869,0,34.165-15.296,34.165-34.165V34.173
	C513.144,15.304,497.837,0.008,478.979,0.008"/>
<polygon style="fill:#F8B64C;" points="257.464,0.008 257.464,105.608 273.901,85.192 291.032,106.461 308.152,85.192 
	325.283,106.461 342.403,85.192 358.819,105.565 358.819,0.008 "/>
<g>
	<path style="fill:#FFFFFF;" d="M324.205,265.64h81.216v81.227h-81.216V265.64z M399.8,271.261h-69.984v69.984H399.8V271.261z"/>
	<path style="fill:#FFFFFF;" d="M298.648,276.68c-0.021-0.021-0.021-0.043-0.043-0.064h-16.981l0.672,6.272l0.139,1.227
		l-0.672,0.544l-8.331,6.688l2.997,8.117l-4.715-8.021l-0.256-0.437l0.437-0.512l6.4-7.627l-1.963-6.251h-29.728
		c1.056,16.267,10.208,29.397,21.995,31.84v19.328h-9.131v8.085h26.336v-8.085h-9.109v-19.328
		C288.44,305.992,297.592,292.915,298.648,276.68"/>
	<path style="fill:#FFFFFF;" d="M131.715,252.509c0.267,2.464,0.267,4.96-0.064,7.424h65.141v92.619h-75.253
		c1.248,2.315,2.101,4.832,2.656,7.435h80.032V252.509H131.715z"/>
	<path style="fill:#FFFFFF;" d="M301.315,352.552h-74.987v-92.608h68.619c0.171-2.539,0.587-5.056,1.376-7.435h-77.44v107.477
		h82.421C301.005,357.523,301.016,355.027,301.315,352.552"/>
	<polygon style="fill:#FFFFFF;" points="157.603,339.411 143.416,339.411 143.416,296.883 126.691,296.883 150.499,273.075 
		174.296,296.883 157.603,296.883 	"/>
	<path style="fill:#FFFFFF;" d="M390.136,306.045c-0.256-13.781-11.488-24.885-25.333-24.885s-25.077,11.104-25.333,24.885H390.136z
		"/>
	<path style="fill:#FFFFFF;" d="M360.696,331.336c-3.275,0-5.941-2.667-5.941-5.941v-1.035h3.808v1.035
		c0,1.152,0.96,2.112,2.123,2.112c1.152,0,2.101-0.96,2.101-2.112v-29.536h3.819v29.536
		C366.616,328.669,363.949,331.336,360.696,331.336"/>
</g>
<rect x="96.885" y="373.64" transform="matrix(-0.7071 -0.7071 0.7071 -0.7071 -77.8758 757.0925)" style="fill:#E8EAEA;" width="41.952" height="42.069"/>
<path style="fill:#40596B;" d="M124.525,387.944c-46.549-46.56-46.549-122.304,0-168.853
	c46.539-46.539,122.283-46.539,168.832,0.021c46.539,46.528,46.539,122.272,0,168.832
	C246.819,434.483,171.064,434.483,124.525,387.944 M270.627,241.843c-34.016-34.016-89.355-34.016-123.371-0.021
	c-34.005,34.016-34.005,89.355,0.011,123.371c34.005,34.005,89.355,34.005,123.36,0
	C304.632,331.197,304.632,275.848,270.627,241.843"/>
<path style="fill:#FF7058;" d="M124.461,420.723L92.44,388.701c-4.224-4.235-11.093-4.235-15.317,0L9.016,456.797
	c-12.021,12.011-12.021,31.488,0,43.488l3.84,3.851c12.011,12,31.488,12,43.499,0l68.096-68.107
	C128.696,431.805,128.696,424.947,124.461,420.723"/>
<path style="fill:#F1543F;" d="M121.656,438.909l-47.392-47.413c-3.392-3.392-3.392-8.917,0-12.299
	c3.392-3.403,8.917-3.403,12.309,0l47.392,47.403c3.403,3.381,3.403,8.896,0,12.309
	C130.573,442.301,125.069,442.301,121.656,438.909"/>
<g>
</g>
<g>
</g>
<g>
</g>
<g>
</g>
<g>
</g>
<g>
</g>
<g>
</g>
<g>
</g>
<g>
</g>
<g>
</g>
<g>
</g>
<g>
</g>
<g>
</g>
<g>
</g>
<g>
</g>
</svg>
