<?xml version="1.0" encoding="iso-8859-1"?>
<!-- Generator: Adobe Illustrator 19.0.0, SVG Export Plug-In . SVG Version: 6.00 Build 0)  -->
<svg version="1.1" id="Capa_1" xmlns="http://www.w3.org/2000/svg" xmlns:xlink="http://www.w3.org/1999/xlink" x="0px" y="0px"
	 viewBox="0 0 512 512" style="enable-background:new 0 0 512 512;" xml:space="preserve">
<path style="fill:#FFD15C;" d="M431.387,22.517H80.603c-17.675,0-32,14.325-32,32V480c0,17.675,14.325,32,32,32h350.795
	c17.675,0,32-14.325,32-32V54.517C463.387,36.843,449.072,22.517,431.387,22.517"/>
<rect x="91.259" y="65.173" style="fill:#F2F2F2;" width="329.472" height="404.149"/>
<g>
	<rect x="133.925" y="397.653" style="fill:#CDD6E0;" width="43.093" height="29.035"/>
	<rect x="209.691" y="397.653" style="fill:#CDD6E0;" width="168.363" height="29.035"/>
</g>
<g>
	<rect x="133.925" y="309.867" style="fill:#4CDBC4;" width="43.093" height="29.035"/>
	<rect x="209.691" y="309.867" style="fill:#4CDBC4;" width="168.363" height="29.035"/>
</g>
<g>
	<rect x="133.925" y="222.176" style="fill:#FF7058;" width="43.093" height="29.035"/>
	<rect x="209.691" y="222.176" style="fill:#FF7058;" width="168.363" height="29.035"/>
</g>
<g>
	<rect x="133.925" y="134.453" style="fill:#84DBFF;" width="43.093" height="29.035"/>
	<rect x="209.691" y="134.453" style="fill:#84DBFF;" width="168.363" height="29.035"/>
</g>
<path style="fill:#40596B;" d="M353.861,96.075H158.117V14.336C158.117,6.411,164.539,0,172.453,0h167.072
	c7.915,0,14.336,6.411,14.336,14.336V96.075z"/>
<g>
</g>
<g>
</g>
<g>
</g>
<g>
</g>
<g>
</g>
<g>
</g>
<g>
</g>
<g>
</g>
<g>
</g>
<g>
</g>
<g>
</g>
<g>
</g>
<g>
</g>
<g>
</g>
<g>
</g>
</svg>
