<?xml version="1.0" encoding="iso-8859-1"?>
<!-- Generator: Adobe Illustrator 19.0.0, SVG Export Plug-In . SVG Version: 6.00 Build 0)  -->
<svg version="1.1" id="Capa_1" xmlns="http://www.w3.org/2000/svg" xmlns:xlink="http://www.w3.org/1999/xlink" x="0px" y="0px"
	 viewBox="0 0 512 512" style="enable-background:new 0 0 512 512;" xml:space="preserve">
<path style="fill:#40596B;" d="M462.443,142.773h-92.565v-57.92h-21.333v102.688H113.877V83.669H92.544v114.539
	c0,5.899,4.779,10.667,10.667,10.667h83.915V342.88H86.155v21.333h111.648c5.899,0,10.667-4.768,10.667-10.667V208.875h32.757
	v197.088h21.333V281.269h85.995v181.184c0,5.877,4.779,10.667,10.667,10.667h68.245v-21.333h-57.579V270.603
	c0-5.899-4.768-10.667-10.667-10.667H262.56v-51.061h96.661c5.899,0,10.667-4.768,10.667-10.667v-34.101h81.899v109.856h21.333
	V153.44C473.109,147.52,468.331,142.773,462.443,142.773"/>
<path style="fill:#F2F2F2;" d="M152.779,49.557c0,27.371-22.187,49.557-49.557,49.557S53.664,76.928,53.664,49.557
	S75.84,0,103.221,0S152.779,22.187,152.779,49.557"/>
<path style="fill:#FFD15C;" d="M129.291,49.557c0,14.4-11.669,26.059-26.069,26.059S77.163,63.947,77.163,49.557
	s11.669-26.059,26.059-26.059C117.621,23.499,129.291,35.168,129.291,49.557"/>
<path style="fill:#F2F2F2;" d="M408.779,49.557c0,27.371-22.187,49.557-49.557,49.557c-27.371,0-49.557-22.187-49.557-49.557
	S331.84,0,359.221,0C386.603,0,408.779,22.187,408.779,49.557"/>
<path style="fill:#FF7058;" d="M385.291,49.557c0,14.4-11.669,26.059-26.069,26.059c-14.4,0-26.059-11.669-26.059-26.059
	s11.669-26.059,26.059-26.059C373.621,23.499,385.291,35.168,385.291,49.557"/>
<path style="fill:#F2F2F2;" d="M512,462.443C512,489.813,489.813,512,462.443,512c-27.371,0-49.557-22.187-49.557-49.557
	c0-27.349,22.187-49.547,49.557-49.547C489.813,412.896,512,435.083,512,462.443"/>
<path style="fill:#FF7058;" d="M488.512,462.443c0,14.421-11.669,26.08-26.059,26.08s-26.069-11.669-26.069-26.08
	c0-14.4,11.68-26.059,26.069-26.059S488.512,448.043,488.512,462.443"/>
<path style="fill:#F2F2F2;" d="M512,310.645c0,27.349-22.187,49.547-49.557,49.547c-27.371,0-49.557-22.187-49.557-49.547
	c0-27.371,22.187-49.557,49.557-49.557C489.813,261.088,512,283.275,512,310.645"/>
<path style="fill:#84DBFF;" d="M488.512,310.645c0,14.4-11.669,26.059-26.059,26.059s-26.069-11.669-26.069-26.059
	s11.68-26.08,26.069-26.08S488.512,296.245,488.512,310.645"/>
<path style="fill:#F2F2F2;" d="M301.451,437.963c0,27.371-22.187,49.557-49.557,49.557s-49.557-22.187-49.557-49.557
	c0-27.371,22.187-49.557,49.557-49.557S301.451,410.581,301.451,437.963"/>
<path style="fill:#FFD15C;" d="M277.973,437.963c0,14.4-11.669,26.059-26.069,26.059c-14.4,0-26.069-11.669-26.069-26.059
	c0-14.389,11.669-26.059,26.069-26.059C266.304,411.904,277.973,423.563,277.973,437.963"/>
<path style="fill:#F2F2F2;" d="M99.115,353.547c0,27.371-22.187,49.557-49.557,49.557S0,380.917,0,353.547
	c0-27.371,22.187-49.557,49.557-49.557C76.928,303.979,99.115,326.165,99.115,353.547"/>
<path style="fill:#3DC9AE;" d="M75.637,353.547c0,14.4-11.68,26.059-26.08,26.059s-26.059-11.669-26.059-26.059
	c0-14.389,11.669-26.08,26.059-26.08C63.957,327.456,75.637,339.147,75.637,353.547"/>
<g>
</g>
<g>
</g>
<g>
</g>
<g>
</g>
<g>
</g>
<g>
</g>
<g>
</g>
<g>
</g>
<g>
</g>
<g>
</g>
<g>
</g>
<g>
</g>
<g>
</g>
<g>
</g>
<g>
</g>
</svg>
