<?xml version="1.0" encoding="iso-8859-1"?>
<!-- Generator: Adobe Illustrator 19.0.0, SVG Export Plug-In . SVG Version: 6.00 Build 0)  -->
<svg version="1.1" id="Capa_1" xmlns="http://www.w3.org/2000/svg" xmlns:xlink="http://www.w3.org/1999/xlink" x="0px" y="0px"
	 viewBox="0 0 523.029 523.029" style="enable-background:new 0 0 523.029 523.029;" xml:space="preserve">
<circle style="fill:#7EC359;" cx="261.515" cy="267.029" r="256"/>
<path style="fill:#353944;" d="M135.079,390.089l0.796,27.664c0,0-0.888,10.816,5.584,12.944c0,0,10.64,1.952,13.476-3.724
	l0.532-12.06c0,0-0.796-18.62-3.104-22.432L135.079,390.089z"/>
<g>
	<path style="fill:#F7CFA3;" d="M136.235,416.245c0,0,8.6,6.296,18.708-0.708l-2.836-22.164h-15.432L136.235,416.245z"/>
	<path style="fill:#F7CFA3;" d="M139.247,426.441l4.04-3.672c1.36-1.236,3.376-1.416,4.932-0.436l5.124,3.22
		C153.343,425.553,145.187,430.341,139.247,426.441z"/>
	<path style="fill:#F7CFA3;" d="M58.299,395.673l-5.232,22.256v9.488c0,0,6.828,4.876,12.68-2.216l6.116-6.916v-12.856
		c0,0-0.2-2.196,0.972-3.516c1.004-1.132,1.628-2.54,1.576-4.052l-0.332-9.28L58.299,395.673z"/>
</g>
<g>
	<path style="fill:#353944;" d="M53.067,416.601c0,0,5.408,8.156,19.504,0.62l-1.152,7.448c0,0-0.088,8.688-10.904,7.18
		c0,0-4.788,1.152-7.98-1.152C52.535,430.697,48.723,424.933,53.067,416.601z"/>
	<polygon style="fill:#353944;" points="71.867,421.785 73.547,421.785 73.903,407.469 79.755,389.445 76.387,390.889 
		71.419,396.737 70.447,406.937 	"/>
</g>
<rect x="105.455" y="45.589" style="fill:#F0B97C;" width="27.596" height="40.928"/>
<path style="fill:#F7CFA3;" d="M113.435,9.693c0,0-13.084,12.092-10.736,28.424c0,0,1.264,11.64,10.108,18.048
	c0,0,2.528,4.332,12.632,1.984c0,0,6.044-1.264,10.828-9.836c6.692-11.992,4.956-15.936,2.528-36.544l-8.572-7.852l-7.04-0.992
	L113.435,9.693z"/>
<path style="fill:#FDFEFF;" d="M104.415,62.365c1.948,2.036,10.324,14.82,28.636-1.94c9.62,68.164,6.992,47.244,12.512,98.728
	l1.812,5.692c0,0-29.76,19.28-50.724,10.48l-6.728-3.104c1.432-54.98,0.284-33.928,5.564-98.988L104.415,62.365z"/>
<path style="fill:#656D7A;" d="M170.003,212.161c0,0,0.5,22.088-5.644,36.632c0,0-7.38,32.18-2.692,45.54
	c0,0,3.356,36.48-2.652,58.392l-6.416,42.488c0,0-11.224,8.016-17.372-1.868c0,0-4.14-11.496,1.876-30.204l-2.672-12.692
	l-1.336-35.276c0,0,0.664-7.348-2.408-15.632l-1.072-29.4l-6.144-42.312c0,0-11.76,29.62-17.24,52.064
	c0,0-5.212,22.848-11.488,34.612l-9.096,44.492l-3.868,18.576c0,0,2.54,8.956-4.008,17.636c0,0-10.956,9.22-20.576,1.336
	l1.204-26.056l2.408-5.744l0.936-19.512l1.196-2.94c0,0,1.204-24.32,3.344-30.196c0,0,0.664-16.3,6.012-17.24
	c2.94-106.82,2.416-27.28,3.876-115.572l4.004-3.604l5.48-4.932c0,0,22.104,11.984,60.024-4.876l12.14,3.9l7.632,2.456l6.688,22.376
	L170.003,212.161z"/>
<path style="fill:#353944;" d="M53.047,210.261c0,0,9.788,8.98,19.02-1.04l-3.104-11.684l-8.592,3.004L53.047,210.261z"/>
<path style="fill:#F7CFA3;" d="M72.775,240.213c3.276,6.224,0.848,6.544,0.848,6.544c-6.64-0.996-12.912-5.108-15.472-8.796v-0.012
	c-4.396-6.176,0.608-18.14,0.48-37.744l11.772,1.008c0.168,2.872,0.56,10.596,2.396,12.7
	C79.615,221.709,77.931,232.193,72.775,240.213z"/>
<path style="fill:#353944;" d="M157.815,169.781l-9.892,6.572c-46.364,18.304-67.348,1.272-67.348,1.272l-0.404-1.936l5.48-4.932
	c0,0,22.104,11.984,60.024-4.876L157.815,169.781z"/>
<path style="fill:#4D535F;" d="M99.543,64.377c-6.788,3.552-14.4,6.432-21.824,8.252c-9.312,2.284-14.476,24.576-15.616,34.244
	c-3.108,48.292-1.972,32.92-5.308,72.332c0,0,1.424,25.752-3.748,31.056c0,0,16.688-8.152,19.02-1.04c0,0-1.552-10.608,1.032-17.208
	c0,0,8.544,2.976,16.82,3.496c0,0,4.276,1.552,7.512-12.424c6.344-54.228,4.416-26.592,8.024-122.148
	C105.451,60.941,103.335,62.397,99.543,64.377z M79.251,158.761c0,0-3.564,22.908-4.856,16.952
	c5.868-36.364,2.048-13.332,5.952-38.176C83.219,141.805,80.867,153.293,79.251,158.761z"/>
<path style="fill:#656D7A;" d="M105.455,60.941l-2.912,77.188L90.575,79.705l8.276-3.496l-6.136-1.944l6.832-9.884
	C103.339,62.397,105.455,60.941,105.455,60.941z"/>
<g>
	<path style="fill:#F7CFA3;" d="M53.067,427.521l4.04-3.672c1.36-1.236,3.376-1.416,4.932-0.436l5.124,3.22
		C67.163,426.633,59.007,431.421,53.067,427.521z"/>
	<path style="fill:#F7CFA3;" d="M172.031,209.253c0,0-6.64,7.444-6.54,13.076c0,0-0.804,6.336-3.824,10.964
		c0,0,1.912,6.236,5.18-1.608c4.488-15.36,11.204-6.636,0.736,5.596c0,0-5.316,5.196-4.18,8.24c0,0-0.732,5.56,3.492,2.192
		c12.136-12.36,15.1-14.028,15.708-20.984v-19.768L172.031,209.253z"/>
</g>
<path style="fill:#4D535F;" d="M184.839,213.961c0,0-11.908-5.06-14.84-1.8c0,0,2.844-13.876-2.576-22.82l-8.936,4.212
	c0,0-7.82,4.3-10.144-3.864c-14.048-39.424-18.216-49.252-17.936-61l1.584-68.272c4,2.56,15.076,7.96,29.176,11.16
	c4.772,1.084,11.348,14.472,12.42,30.008C180.195,158.673,177.795,134.893,184.839,213.961z"/>
<path style="fill:#656D7A;" d="M146.555,79.033l-16.148,49.656l1.584-68.272c0,0,3.856,2.468,10.792,5.332l1.348,7.264l-4.332,1.056
	L146.555,79.033z"/>
<path style="fill:#353944;" d="M152.163,42.305c-6.216-14.208-3.08-16.632-9.444-29.76c-16.028-26.108-43.172-8.096-47.488,23.16
	c-6.08,13.456,0.776,20.184,0.776,20.184c1.352,4.868,1.056,9.36-1.552,13.328c11.968,11.236,14.504-14.896,11.004-22.12
	c0-11.232-2.076-28.92,12.672-37.636c10.592-6.26,18.608,8.084,18.188,20.268c-1.04,2.968-0.464,6.8,0.352,9.852
	c0.9,3.368-2.02,10.236-3.62,13.336c-7.764,15.044-6.712,22.852,7.076,24.324c-0.368-5.264,1.136-9.536,4.788-12.68
	C159.667,55.245,152.163,42.305,152.163,42.305z"/>
<g>
	<path style="fill:#F0B97C;" d="M71.547,223.689c1.316,4.316,1.84,12.632,1.228,16.16C71.771,235.793,71.071,227.753,71.547,223.689
		z"/>
	<path style="fill:#F0B97C;" d="M69.719,245.853c-2.412-4.092-3.12-8.856-2.724-13.724c0.156,5.716,1.004,9.64,4.548,14.096
		l-0.128,0.1L69.719,245.853z"/>
	<path style="fill:#F0B97C;" d="M64.471,243.193l-0.216,0.108c-0.524-0.328-1.02-0.664-1.488-1.008
		c-0.848-3.108-0.372-7.012,0.564-9.132C62.371,237.477,63.071,240.193,64.471,243.193z"/>
	<path style="fill:#F0B97C;" d="M59.631,239.301l-0.26,0.068c-0.468-0.468-0.848-0.876-1.224-1.412c0-2.248,0.284-4.1,1.332-6.188
		C58.907,235.769,58.547,234.913,59.631,239.301z"/>
</g>
<g>
	<path style="fill:#353944;" d="M159.827,71.229c-9.74,40.852-3.6,77.468,7.6,118.132
		C153.779,151.421,147.639,110.041,159.827,71.229z"/>
	<path style="fill:#353944;" d="M81.191,139.877c-0.372-1.64-0.844-2.336-0.844-2.336c-0.488,3.104-0.892,5.712-1.228,7.884
		c1.36-30.088,1.368-44.756,1.552-73.572C82.315,94.185,82.455,116.945,81.191,139.877z"/>
</g>
<path style="fill:#F0B97C;" d="M175.163,233.593c-2.088,3.856-7.432,10.624-11.756,11.924
	C167.315,243.461,172.259,237.073,175.163,233.593z"/>
<g>
	<polygon style="fill:#343943;" points="341.167,415.861 346.563,392.685 361.059,391.841 363.335,411.057 357.099,414.345 
		342.431,417.389 	"/>
	<polygon style="fill:#343943;" points="445.911,419.821 440.239,398.137 424.999,397.345 422.607,415.325 429.163,418.401 
		444.579,421.249 	"/>
</g>
<path style="fill:#896D61;" d="M338.451,402.513c0,0-4.024,13.864-16.432,15.492c0,0-4.452,0.512-4.792,5.22
	c0,0-1.068,3.064,4.688,3.88l14.436,0.28l8.4-1.656c4.672-2.4,7.672-4.168,8.484-4.58c4.316-0.108,2.508,0.016,8.484-0.644
	l3.4-1.768c0,0,1.348-9.072-2.332-12.076c0,0,1.052,4.168-4.924,2.864c-4.5-0.98-6.948-4.704-11.196,0.816
	c0,0,3.54-5.764,1.068-7.824C347.727,402.513,341.479,396.181,338.451,402.513z"/>
<path style="fill:#424854;" d="M317.303,422.581c0,0-1.564,0.9-0.768,3.084c0,0,2.896,4.028,12.172,3.272
	c4-0.324,16.732,0.168,19.768-3.86l4.088-3.22l2.136,1.46c0,0,8.236,0.844,10.66-2.724c0,0,1.752-1.628-0.408-3.2
	c0,0-2.304,3.68-10.84,2.612c0,0-2.668-0.268-6.572,3.208C340.979,426.885,318.551,428.037,317.303,422.581z"/>
<path style="fill:#896D61;" d="M448.767,407.333c0,0,4.228,12.972,17.276,14.492c0,0,4.68,0.48,5.04,4.884
	c1.772,4.528-10.816,3.732-20.108,3.892l-8.828-1.552c-6.048-2.764-9.132-4.38-8.916-4.284c-4.536-0.1-2.636,0.016-8.916-0.604
	l-3.572-1.656c0,0-1.416-8.488,2.452-11.3c-1.148,4.044,5.416,3.288,9.668,1.176c1.268-0.632,4.128-1.376,7.28,2.264
	c0,0-3.72-5.392-1.12-7.32C439.015,407.333,445.583,401.405,448.767,407.333z"/>
<path style="fill:#424854;" d="M470.995,426.105c0,0,1.648,0.84,0.808,2.884c0,0-3.044,3.768-12.792,3.064
	c-4-0.288-17.56,0.188-20.78-3.612l-4.296-3.012l-2.244,1.368c0,0-8.656,0.788-11.208-2.548c0,0-1.844-1.524,0.432-2.996
	c0,0,2.42,3.444,11.396,2.444c0,0,2.804-0.252,6.908,3C446.103,430.133,469.687,431.213,470.995,426.105z"/>
<polygon style="fill:#F0B97C;" points="358.359,51.409 357.439,92.037 357.439,105.581 389.447,105.581 390.219,46.329 "/>
<path style="fill:#E8E7E8;" d="M334.295,183.925l32.912,4.792h27.296l17.94-0.548c0,0-2.524-28.492-1.908-32.168
	c0.616-3.68-1.936-47.208-1.692-48.112c0.244-0.904,5.792-22.164,5.792-22.164l-21.776-16.456l-6.684,8.904l-2.832,5.616
	l-12.868,0.948l-7.308-1.724l-2.736-6.196l-4.036-6.044l-4.096,3.916l-12.004,16.068c-11.124,37-6.388,21.564-6.388,70.468
	C333.907,163.549,334.295,183.925,334.295,183.925z"/>
<path style="fill:#656C7A;" d="M350.359,18.869c0,0-1.14-11.876,8.752-12.256c0,0,5.404-15.072,35.088,0.38
	c0,0-1.98,0.152-1.98,1.292c0,0,3.28,1.5,5.104,3.86c0,0-1.04-0.224-1.656,0.504c0,0,3.828,7.308,1.656,18.136l-2.8,8.944
	l0.14,1.304l-7.264,0.86c0,0-11.564-0.14-13.256,0c-1.692,0.14-19.02-0.348-19.02-0.348l-3.072-0.512
	C349.923,30.665,350.359,35.333,350.359,18.869z"/>
<polygon style="fill:#D64331;" points="369.747,97.673 361.295,156.937 368.927,176.149 377.919,158.285 377.331,97.897 
	376.799,91.549 370.731,94.137 "/>
<path style="fill:#F1592F;" d="M365.371,90.765l6.96-9.324l1.496-0.176l2.688,0.596l5.084,5.252c0,0-1.404,7.724-4.268,10.784
	c0,0-4.608,3.172-7.584-0.224C369.747,97.673,368.775,93.489,365.371,90.765z"/>
<g>
	<path style="fill:#FDFEFF;" d="M358.043,65.417c0,0,0.004,4.004,15.784,15.848c0,0-9.156,8.464-9.156,13.852
		C364.671,95.117,351.567,77.577,358.043,65.417z"/>
	<path style="fill:#FDFEFF;" d="M389.955,66.697c0,0-2.26,4.64-16.124,14.568c0,0,9.26,8.168,8.868,13.852
		C382.695,95.117,399.435,73.097,389.955,66.697z"/>
</g>
<path style="fill:#4D535F;" d="M338.687,185.285l69.364,3.028l13.316,28.28l-2.244,6.644l10.468,77.916l10.16,48.236l10.1,57.688
	c0,0-20.688,6.464-30.124,4.656c0,0-1.036-31.548-5.172-34.908c0,0-4.268-9.052-5.688-26.248l-8.7-28.064
	c-0.312-1.008-0.348-2.084-0.096-3.112l0,0c0.376-1.56,0.116-3.208-0.768-4.548c-1-1.516-2.088-3.724-1.652-5.716
	c0.284-1.3,0.248-2.652-0.408-3.812c-1.044-1.848-2.308-4.536-2.064-6.372c0.408-3.052-14.52-50.3-14.52-50.3
	s-1.048-9.136-9.136-8.016l-6.216,55.8c0,0-1.828,5.672-0.592,10.136c0.288,1.036,0.292,2.124-0.024,3.148l-0.732,2.368
	c-2.56,5.6,1.912,8.684,1.6,14.464c-0.512,9.44-1.74,34.764-0.4,37.74l0.972,44.64c-10.712,0.676-18.724-6.74-30.184-4.792v-72.828
	c0-9.312-4.528-18.864-3.296-35.852l-2.108-73.392l-3.74-6.596L338.687,185.285z"/>
<path style="fill:#F7CFA3;" d="M358.755,54.641l7.508,10.152c3.24,4.384,10.432,5.612,14.432,0.516l8.8-11.208
	c0,0,1.776-3.008,3.36-9.784c0,0,1.156,2.796,3.196-1.72c0,0,3.672-5.616,2.352-12.232c0,0-2.96-3.652-4.324,5.444l-0.356,3.716
	l-1.172-0.456c0,0,1.272-8.088-0.356-12.516l-0.204-7.224c0,0-1.832-8.804-11.956-4.832c0,0-6.664,2.952-12.62-0.56
	c0,0-10.276-2.596-10.532,5.496c0,0,0.052,4.884-1.372,9.564l0.356,9.516l-0.916,1.528c0,0,0.612-10.788-4.324-11.396
	c0,0-1.984,0.408-0.456,7.732c0,0,0.144,4.356,2.848,7.888c0,0,1.796,2.644,2.34-0.56C355.363,43.701,356.503,51.593,358.755,54.641
	z"/>
<path style="fill:#896D61;" d="M409.923,190.701c0,0-16.68,1.008-35.232,0.54c-3.812-0.088-7.692-0.252-11.524-0.484
	c-10.428-0.664-20.492-1.96-27.612-4.296l3.128-6.38c0,0,9.6,2.588,24.484,3.848c3.56,0.324,7.424,0.54,11.524,0.648
	c9.976,0.252,21.372-0.268,33.38-2.3L409.923,190.701z"/>
<path style="fill:#F5EA07;" d="M374.691,184.573v6.668c-3.812-0.088-7.692-0.252-11.524-0.484v-6.832
	C366.727,184.249,370.591,184.465,374.691,184.573z"/>
<path style="fill:#4D535F;" d="M352.527,139.181c0.556,14.956-12.24,43.932-12.24,43.932c-6.564,7.28-9.2,29.724-9.744,38.952
	l-17.564-6.488c4.152-10.212,14.04-58.528,14.04-58.528c6.092-23.828-6.216-42.68-1.132-77.944
	c2.16-2.104,13.948-5.952,19.864-7.336c1.796-0.412,3.432-1.276,4.872-2.408c0.468-0.36,0.952-0.72,1.44-1.06
	c0.016,0,0.016-0.016,0.016-0.016c2.336-1.616,6.044-2.744,6.044-2.744L352.527,139.181z"/>
<path style="fill:#656D7A;" d="M321.531,208.137c0,0,3.468,1.452,7.484-0.46c0,0,0.676-7.748,9.672-15.24
	c-13.316-1.82-10.368-3.6-18.208,9.356L321.531,208.137z"/>
<path style="fill:#4D535F;" d="M431.063,214.357l-12.8,5.824c-13.524-34.94-18.148-41.16-22.468-81.556l-5.784-71.964
	c0,0,0.144,0,0.412,0.072c0.7,0.196,3.336-1,5.62,1.032c0.036,0.016,0.072,0.036,0.088,0.072c0.196,0.216,0.432,0.432,0.664,0.612
	l0.052,0.052c1.348,1.116,2.948,1.904,4.656,2.372c14.972,3.956,27.972,11.128,27.972,11.128
	C406.111,160.429,431.063,214.357,431.063,214.357z"/>
<path style="fill:#656D7A;" d="M409.923,191.845c0,0,0.024,15.568,17.828,15.504l1.84-6.7l-4.86-8.016l-9.656-1.396L409.923,191.845
	z"/>
<path style="fill:#F7CFA3;" d="M406.611,193.849l13.144-1.372l8.04,11.04l-7.712,10.988
	C420.083,214.505,411.579,195.909,406.611,193.849z"/>
<path style="fill:#FFFFFF;" d="M409.923,191.845c3.176-4.632,2.756-3.98,3.836-5.388l12.676,4.904l6.372,5.804
	c-1.356,3.708-0.368,1.56-5.06,10.18C427.751,207.349,423.559,194.669,409.923,191.845z"/>
<path style="fill:#F7CFA3;" d="M321.531,202.357c0,0,2.616,9.772,6.26,11.36c0,0,4.28-13.364,8.504-18.7l-8.876-5.44
	L321.531,202.357z"/>
<path style="fill:#FFFFFF;" d="M321.531,208.137l-3.548-7.816l4.532-7.752c7.648-5.984,5.352-4.476,10.84-7.224l2.364,0.788
	l2.968,6.308C338.687,192.437,321.795,200.189,321.531,208.137z"/>
<path style="fill:#656D7A;" d="M352.527,139.181c0.556,14.956-12.24,43.932-12.24,43.932c-0.988,1.096-1.888,2.516-2.696,4.188
	l-0.936,0.304c7.084-10.624,9.544-38.324,9.544-38.324c1.688-14.616-8.468-48.624-8.468-48.624l12.168-5.536l-12.168-2.624
	c6.76-13.68,11.38-20.636,14.328-24.196c0.016,0,0.016-0.016,0.016-0.016c2.336-1.616,6.044-2.744,6.044-2.744L352.527,139.181z"/>
<g>
	<path style="fill:#4D535F;" d="M327.027,157.049l11.66,33.116c-16.1,1.328-19.916,15.604-19.916,15.604l-12.116-39.172
		c-8.944-17.184,12.604-87.496,19.236-87.484C320.847,114.105,333.031,133.453,327.027,157.049z"/>
	<path style="fill:#4D535F;" d="M429.479,82.001c0,0,4.964,3.124,10.588,24.352l12.88,44.272c0,0,4.716,9.252-6.896,29.212
		l-16.576,25.932c0,0,1.732-14.332-18.424-16.636l16.276-36.104l-7.656-13.42C420.087,120.693,423.667,99.869,429.479,82.001z"/>
</g>
<path style="fill:#656D7A;" d="M411.055,99.905c0,0-10.892,37.768-10.012,47.512c0,0,2.372,26.46,5.628,43.284
	c-6.884-14.776-10.876-52.076-10.876-52.076l-5.784-71.964c0,0,0.144,0,0.412,0.072c0.7,0.196,3.336-1,5.62,1.032
	c0.036,0.016,0.072,0.036,0.088,0.072c0.216,0.196,0.448,0.396,0.664,0.612l0.052,0.052c3.576,3.488,8.556,10.32,14.2,23.656
	l-12.492,2.968L411.055,99.905z"/>
<polygon style="fill:#E8E7E8;" points="290.671,81.845 269.647,68.357 230.047,73.537 206.547,86.889 206.547,252.209 
	290.671,252.209 "/>
<g>
	<path style="fill:#353944;" d="M197.311,484.281l13.584-9.748l14.224-14.384l7.512-11.028l23.972-0.8v17.98v5.992l-13.104,5.112
		l-0.48-4.796c0,0-8.312,3.996-11.188,12.784c0,0-6.468,6.856-18.332,7.348c-11.864,0.488-16.188-5.824-16.188-5.824
		L197.311,484.281L197.311,484.281z"/>
	<path style="fill:#353944;" d="M280.663,481.681c0,0-15.468-1.516-17.588-5.1l1.628-6.844c0,0-2.28-10.104,4.888-14.344l28.848,4.4
		l6.356,8.72c0,0,10.104,8.396,30.804,13.12l0.652,4.236c0,0-7.008,6.192-17.116,6.844c-10.104,0.652-21.516-4.4-26.24-7.496
		c-4.728-3.096-11.86-7.564-11.86-7.564L280.663,481.681z"/>
</g>
<path style="fill:#4D535F;" d="M254.971,220.641c-24.868-0.02-53.992-5.896-53.992-5.896l-3.048,4.768l0.912,25.908l-0.912,22.86
	c12.424,92.132,6.488,61.964,20.416,117.308l3.544,46.84c0.16,2.092,1.14,3.988,2.568,5.528c0.04,0.04,0.076,0.084,0.112,0.124
	c2.368,2.616,3.136,6.308,2.348,9.748l-2.088,9.076c1.128,4.368,12.12,6.484,12.12,6.484c13.892,1.152,20.468-4.004,20.468-4.004
	c-1.292-2.772,0.328-8.88,0.328-8.88c2.42-8.236-2.012-18.524-4.508-23.364c-1-1.94-1.4-4.12-1.192-6.292l0.748-7.784
	c1.912-74.208,4.98-115.82,4.956-115.376c8.372,112.468,3.388,34.796,9.324,114.26c0,0-2.22,11.1-1.332,19.388
	c0,0-1.036,8.288,0.592,13.912c0,0-2.88,9.412,0.524,17.676c0,0,9.096,9.708,28.632,5.416c0,0,6.66-2.812,5.032-11.84
	s-5.032-11.1-5.032-11.1l0,0c4.732-8.736,7.356-18.448,7.42-28.384c0.012-1.976-0.036-4.064-0.168-6.248
	c0,0-0.148-32.412,3.7-39.812c6.044-33.672,4.876-60.512,6.092-107.896v-35.232c0,0-10.384-13.132-10.976-13.076
	C300.967,214.801,270.095,220.653,254.971,220.641z"/>
<path style="fill:#343943;" d="M301.559,214.745c-0.592,0.056-31.464,5.908-46.588,5.896c-24.868-0.02-53.992-5.896-53.992-5.896
	l-3.048,4.768l0.344,9.784l2.704-4.228c0,0,29.124,5.876,53.992,5.896c15.124,0.012,45.996-5.84,46.588-5.896
	s10.98,13.076,10.98,13.076v-10.324C312.539,227.821,302.151,214.689,301.559,214.745z"/>
<path style="fill:#F0BA7B;" d="M230.247,53.353v24.86c3.68,0.616,6.612,2.264,8.8,4.536c2.64,0.564,4.904,1.636,6.732,3.128
	c2.528-0.22,4.584-0.236,7.472,0.7c2.42-4.752,6.972-8.348,13.72-8.696V53.349h-36.724V53.353z"/>
<path style="fill:#656D7A;" d="M271.123,18.161c0.46-15.824-18.604-17.384-18.604-17.384c-21.216-3.996-22.272,9.38-22.272,9.38
	c-10.432,5.072-6.664,28.848-6.664,28.848l5.64,2.376l7.332-14.308c0.148-4.416,0.032-6.892-0.204-8.228
	c7.388-2.976,13.52,4.176,13.52,4.176c-0.02,2.144,10.304-0.924,10.304-0.924c10.388,2.576,4.54,24.004,6.8,23.364l3.504-7.168
	C272.947,32.109,272.035,28.085,271.123,18.161z"/>
<path style="fill:#D64331;" d="M260.703,232.793l-11.9-10.332c-3.424-57.648-8.68-114.588-1.016-127.7l1.308-7.256
	c7.296,9.42,7.764,16.388,24.528,135.856L260.703,232.793z"/>
<path style="fill:#F7CFA2;" d="M269.211,49.665c-0.836,10.452-8.432,15.084-8.432,15.084c-4.98,7.524-12.82,7.28-12.82,7.28
	s-7.872,0.244-12.888-7.28c0,0-7.524-4.632-8.396-15.084c-5.2-0.436-6.584-21.636-0.556-14.456l1.74-8.152
	c0.712-13.424,6.132-15.816,6.376-15.816c4.288-2.016,8.068-1.388,10.836-0.188c7.492,3.244,9.616-0.528,15.116,2.312
	c10.38,2.576,7.348,22.468,9.58,21.84C275.755,28.025,274.419,49.229,269.211,49.665z"/>
<path style="fill:#F1592F;" d="M258.063,87.377c0,0,0,0-0.036,0.036c-3.788,4.976-2.804,3.024-3.184,11.912
	c0,0-5.952-3.392-8.532-0.848c0,0-1.484-9.008-6.988-11.344c-0.244-0.104-0.452-0.176-0.628-0.28l3.52-4.284
	c0,0,1.74,1.148,5.016,1.464l1.392-0.94l2.056,0.94c1.812-0.172,3.868-0.628,6.2-1.464L258.063,87.377z"/>
<g>
	<path style="fill:#FDFEFF;" d="M266.971,64.749c0,0,1.628,7.28-18.36,18.34c0,0,6.936,8.52,8.184,13.212
		c0,0,9.048-8.668,12.192-15.776C268.987,80.525,273.591,71.033,266.971,64.749z"/>
	<path style="fill:#FDFEFF;" d="M230.247,64.749c0,0-1.628,7.28,18.36,18.34c0,0-7.172,8.52-8.416,13.212
		c0,0-9.34-9.328-11.12-16.704C229.071,79.601,226.975,71.901,230.247,64.749z"/>
</g>
<g>
	<path style="fill:#656D7A;" d="M240.191,175.685c-3.764-20.448-11.984-70.436-9.928-110.948c-2.3,3.136-4.424,9.336-7.836,11.112
		c-1.044,0.556-2.124,1.044-3.24,1.428c-3.448,1.184-7.628,2.788-11.392,4.668c-2.3,1.148-4.704,1.952-7.244,2.332
		c-5.644,0.872-15.816,3.624-16.72,12.368c0,0-2.264,7.42-1.288,12.156c0.66,3.064,0.348,6.272-0.416,9.3
		c-1.604,6.688-3.868,17.104-4.252,24.316c-0.212,4.552-3.212,12.084-3.1,19.088c0.104,7.124-7.736,22.496-3.936,33.896
		c0,0,2.856,33.824,15.012,57.896c1.388,2.888,2.676,5.148,6.408,4.632c0.036,0,0.036,0,0.068,0c0,0,7.56,11.74,19.02,16.684
		c11.46,4.912,17.904,0.416,19.784-4.668c9.9-21.708,8.664-29.212,11.148-83.604C242.283,186.341,241.447,182.405,240.191,175.685z
		 M200.723,190.105l-0.88-6.336c-0.904-3.448,0.74-7.248,1.016-10.068c0.66-6.828,3.728-11.356,3.728-11.356l1.464,4.32
		L200.723,190.105z"/>
	<path style="fill:#656D7A;" d="M334.627,188.397c-1.624-7.036,1.092-23.364-3.168-37.656c-1.428-4.88,0.756-20.26-5.084-32.676
		c-1.056-2.284-0.7-1.596-5.436-28.984c0,0,1.392-8.116-12.96-8.5c-3.38-0.068-6.62-1.184-9.476-2.96
		c-3.064-1.916-8.536-4.076-18.08-4.704c-0.244,0-0.452-0.036-0.696-0.068c-2.196-0.244-4.248-1.148-5.956-2.612l-6.164-5.296
		l-0.592-0.172c0.696,0.524,9.788,9.196-3.24,99.452c0,0,0.14,7.976,0.628,18.844c0.8,17.348,2.612,42.012,6.408,53.4
		c0,0,7.14,31.176,14.248,34.868c7.108,3.692,7.7,5.54,18.496-2.472c0,0,4.808-3.728,10.172-9.16c1.88-1.844,3.796-3.9,5.608-6.096
		c4.388-5.26,8.188-11.216,9.024-16.684c0,0,2.856-5.224,1.74-10.696c-1.284-6.28,2.108-9.376,2.3-13.968
		C332.615,207.773,337.423,200.973,334.627,188.397z M306.867,181.709c0,0-5.468,12.228-2.96,21.144
		c-0.556-1.044-5.816-11.564-3.276-25.884c0,0,4.284-6.48,4.388-13.064c0,0,0.14,9.268,2.336,9.648L306.867,181.709z"/>
</g>
<g>
	<path style="fill:#4D535F;" d="M284.155,91.593l-19.752,91.476c-0.488-10.868-0.628-18.844-0.628-18.844
		c13.552-93.808,3.196-99.472,3.196-99.472l0.636,0.192l6.164,5.296c1.708,1.464,3.764,2.368,5.956,2.612
		c1.672,3.204,3.032,7.456,2.228,11.844l-5.016,3.448L284.155,91.593z"/>
	<path style="fill:#4D535F;" d="M217.235,93.405l7.212-3.448l-5.016-3.484c-0.664-3.484,0.836-7.244,2.996-10.624
		c3.412-1.776,5.524-7.96,7.82-11.096c-2.056,40.512,6.18,90.484,9.944,110.932C229.639,154.677,223.403,125.245,217.235,93.405z"/>
	<path style="fill:#4D535F;" d="M204.591,162.341c0,0-3.064,4.528-3.728,11.356c-3.992-11.244-7.304-13.056-4.772-39.328
		c0.036-0.488,0.592-2.088,0.592-2.088C198.739,144.473,201.559,153.321,204.591,162.341z"/>
	<path style="fill:#4D535F;" d="M174.703,180.537c4-2.808,12.624-3.832,18.404-1.184c4.852,1.956,6.736,5.62,6.736,5.62
		C194.319,182.957,194.479,181.509,174.703,180.537z"/>
	<path style="fill:#4D535F;" d="M198.839,195.089c-3.168-1.012-10.472-4.496-13.564-6.476c-0.4-0.264-0.632-0.448-0.632-0.448
		C189.455,185.957,197.771,190.113,198.839,195.089z"/>
	<path style="fill:#4D535F;" d="M191.631,254.201c0.104,1.324,0.28,2.576,0.628,3.728c-3.732,0.516-5.02-1.744-6.408-4.632
		c1.4-2.908,4.364-9.1,6.864-11.18C192.711,242.113,191.179,248.417,191.631,254.201z"/>
</g>
<path style="fill:#F7CFA2;" d="M191.631,254.201c-2.5-0.444-3.332-1.848-4.32-3.936c1.708-3.308,3.728-6.76,5.4-8.152
	C192.711,242.113,191.179,248.417,191.631,254.201z"/>
<g>
	<path style="fill:#4D535F;" d="M188.203,222.049c2.404-1.748,3.66-1.608,6.136-0.584
		C194.299,224.757,189.003,225.117,188.203,222.049z"/>
	<path style="fill:#4D535F;" d="M185.063,231.397c-0.184-3.876,4.968-8.1,8.764-7.16
		C192.359,227.381,188.379,230.557,185.063,231.397z"/>
	<path style="fill:#4D535F;" d="M195.923,220.641c8.228,2.516,24.128,14.408,27.048,30.276
		C215.891,240.597,213.771,237.141,195.923,220.641z"/>
	<path style="fill:#4D535F;" d="M290.579,252.209c0,0-0.068-2.396,0.44-5.88c1.276-9.372,5.904-22.604,13.14-28.356
		C301.107,224.613,293.283,246.809,290.579,252.209z"/>
	<path style="fill:#4D535F;" d="M304.391,166.617c1.744-14.912-0.488-13.844,0.68-29.832l2.936,15.096
		c0.776,4,0.036,14.608,3.048,20.664l-4.164,2.812L304.391,166.617z"/>
	<path style="fill:#4D535F;" d="M319.343,253.637c-1.8,2.2-3.7,4.204-5.604,6.104l0.8-6.304l1.3-11.204c0,0,0.8,4.1,2,7.604
		C318.243,251.333,318.843,252.737,319.343,253.637z"/>
</g>
<path style="fill:#F7CFA2;" d="M317.843,249.833c-1.1,1.3-2.2,2.5-3.3,3.6l1.3-11.204
	C315.843,242.233,316.643,246.333,317.843,249.833z"/>
<g>
	<path style="fill:#4D535F;" d="M200.723,188.541c-0.192,14.492-4.896,39.46-8.012,53.572c0,0-0.556-3.42-0.488-8.572
		C192.943,215.157,196.935,197.849,200.723,188.541z"/>
	<path style="fill:#4D535F;" d="M303.419,199.713c5.912,26.956,6.752,27.092,12.424,42.52
		C306.923,234.413,300.171,213.109,303.419,199.713z"/>
</g>
<g>
</g>
<g>
</g>
<g>
</g>
<g>
</g>
<g>
</g>
<g>
</g>
<g>
</g>
<g>
</g>
<g>
</g>
<g>
</g>
<g>
</g>
<g>
</g>
<g>
</g>
<g>
</g>
<g>
</g>
</svg>
