<svg version="1.1" id="Capa_1" xmlns="http://www.w3.org/2000/svg" x="0" y="0" viewBox="0 0 60 60" xml:space="preserve"><path fill="#ecf0f1" d="M1 4.5h55v42H1z"/><path d="M57 47.5H0v-44h57v44zm-55-2h53v-40H2v40z" fill="#545e73"/><path fill="#545e73" d="M5 8.5h47v34H5z"/><path d="M53 43.5H4v-36h49v36zm-47-2h45v-32H6v32z" fill="#ecf0f1"/><circle cx="15" cy="17.069" r="4.569" fill="#f3d55a"/><path fill="#11a085" d="M51 32.611L50 31.5l-12-11L27.5 32l5.483 5.483L37 41.5h14z"/><path fill="#26b999" d="M6 41.5h31l-4.017-4.017-10.966-10.966L6 40.5z"/><path d="M58.761 56.5H35.07a1.238 1.238 0 0 1-1.069-1.861l11.845-20.306a1.237 1.237 0 0 1 2.138 0L59.83 54.639a1.238 1.238 0 0 1-1.069 1.861z" fill="#efc41a"/><path d="M47 49.5a1 1 0 0 1-1-1v-8a1 1 0 0 1 2 0v8a1 1 0 0 1-1 1zm0 4c-.26 0-.52-.11-.71-.29-.18-.19-.29-.45-.29-.71 0-.26.11-.52.29-.71.38-.37 1.04-.37 1.42 0 .18.19.29.45.29.71 0 .26-.11.52-.29.71-.19.18-.44.29-.71.29z" fill="#fff"/></svg>