<svg height="544" viewBox="0 -32 408 408" width="544" xmlns="http://www.w3.org/2000/svg"><path d="M8 208h224a8 8 0 0 0 8-8V8a8 8 0 0 0-8-8H8a8 8 0 0 0-8 8v192a8 8 0 0 0 8 8zm96-192h32v32h-32zm-88 0h72v40a8 8 0 0 0 8 8h48a8 8 0 0 0 8-8V16h72v176H16zm0 0"/><path d="M72 112H40a8 8 0 0 0 0 16h32a8 8 0 0 0 0-16zm-16 32H40a8 8 0 0 0 0 16h16a8 8 0 0 0 0-16zM3.414 286.55l80 56a7.995 7.995 0 0 0 8.281.54A7.993 7.993 0 0 0 96 336v-24h272c22.082-.027 39.973-17.918 40-40V112c-.027-22.082-17.918-39.973-40-40h-40a8 8 0 0 0-8 8v48a8 8 0 0 0 8 8h16v112H96v-16a7.992 7.992 0 0 0-4.063-6.96 7.994 7.994 0 0 0-8.058.105l-80 48a7.998 7.998 0 0 0-.465 13.406zM80 246.138V256a8 8 0 0 0 8 8h264a8 8 0 0 0 8-8V128a8 8 0 0 0-8-8h-16V88h32c13.254 0 24 10.746 24 24v160c0 13.254-10.746 24-24 24H88a8 8 0 0 0-8 8v16.633l-57.313-40.121zm0 0"/><path d="M288 72h16v64h-16zm-32 0h16v64h-16zm0 0"/></svg>