<svg version="1.1" id="Capa_1" xmlns="http://www.w3.org/2000/svg" x="0" y="0" viewBox="0 0 512 512" xml:space="preserve"><path d="M512 256c0 19.508-2.184 38.494-6.311 56.738a254.304 254.304 0 0 1-32.496 78.817 248.15 248.15 0 0 1-1.943 3.072C425.681 465.251 346.3 512 256 512S86.319 465.251 40.751 394.627c-19.822-30.699-33.249-65.912-38.4-103.769a256.423 256.423 0 0 1-2.215-26.624A239.652 239.652 0 0 1 0 256c0-24.9 3.553-48.964 10.177-71.722a252.129 252.129 0 0 1 9.415-26.645 254.152 254.152 0 0 1 21.159-40.26C86.319 46.749 165.7 0 256 0s169.681 46.749 215.249 117.373a255.218 255.218 0 0 1 25.59 51.618 256.203 256.203 0 0 1 8.004 26.645 251.66 251.66 0 0 1 4.953 26.645A257.12 257.12 0 0 1 512 256z" fill="#5c5e70"/><path d="M471.249 127.76v266.867C425.681 465.251 346.3 512 256 512S86.319 465.251 40.751 394.627V22.8c0-12.591 10.209-22.8 22.8-22.8H343.49l127.759 127.76z" fill="#f9eed7"/><path d="M343.489 104.958V0l127.76 127.76H366.291c-12.593 0-22.802-10.209-22.802-22.802z" fill="#e8dbc4"/><path d="M471.249 330.961v63.666C425.681 465.251 346.3 512 256 512S86.319 465.251 40.751 394.627v-63.666h430.498zM150.505 189.965l43.046-27.963c.847-.678 2.033-.848 3.219-.848 5.084 0 11.524 5.424 11.524 12.372 0 2.881-1.186 5.422-3.051 6.609l-29.827 19.319 29.827 19.32c1.864 1.186 3.051 3.728 3.051 6.609 0 6.949-6.44 12.371-11.524 12.371-1.186 0-2.373-.169-3.219-.847l-43.046-27.963c-3.897-2.542-5.253-6.609-5.253-9.491-.001-2.879 1.356-6.946 5.253-9.488zm144.217-65.415c0 1.018-.169 2.203-.678 3.219L234.39 249.955c-1.186 2.542-4.406 4.236-7.626 4.236-5.762 0-9.489-4.745-9.489-8.982 0-1.016.339-2.203.847-3.219l59.483-122.185c1.355-2.882 4.067-4.237 7.118-4.237 4.746 0 9.999 3.559 9.999 8.982zm66.773 84.394l-43.044 27.963c-.848.678-2.034.847-3.219.847-5.084 0-11.524-5.422-11.524-12.371 0-2.881 1.185-5.422 3.049-6.609l29.827-19.32-29.827-19.319c-1.864-1.186-3.049-3.728-3.049-6.609 0-6.949 6.44-12.372 11.524-12.372 1.185 0 2.372.17 3.219.848l43.044 27.963c3.897 2.542 5.253 6.609 5.253 9.489.001 2.881-1.356 6.948-5.253 9.49z" fill="#ff525d"/><path d="M162.671 414.688h-23.71v32.288c0 3.813-4.647 5.72-9.294 5.72s-9.294-1.906-9.294-5.72v-75.778c0-3.932 4.647-5.6 9.294-5.6 4.648 0 9.294 1.668 9.294 5.6v29.191h23.71v-29.191c0-3.932 4.647-5.6 9.294-5.6s9.294 1.668 9.294 5.6v75.778c0 3.813-4.647 5.72-9.294 5.72s-9.294-1.906-9.294-5.72v-32.288zm89.004-49.09c3.932 0 5.6 4.289 5.6 8.221 0 4.528-2.025 8.46-5.6 8.46h-16.443v64.697c0 3.813-4.647 5.72-9.294 5.72-4.646 0-9.293-1.906-9.293-5.72v-64.697h-16.443c-3.575 0-5.6-3.932-5.6-8.46 0-3.932 1.669-8.221 5.6-8.221h51.473zm60.884 56.238c-1.549 2.622-3.932 3.455-6.196 3.455-2.145 0-4.408-.715-5.838-3.455l-11.319-20.732v45.872c0 3.813-4.647 5.72-9.294 5.72s-9.294-1.906-9.294-5.72v-72.084c0-6.792 4.647-9.293 9.294-9.293 6.673 0 9.532.715 14.418 9.293l12.272 21.447 12.271-21.447c4.886-8.579 7.745-9.293 14.418-9.293 4.767 0 9.294 2.503 9.294 9.293v72.084c0 3.813-4.647 5.72-9.294 5.72s-9.294-1.906-9.294-5.72v-44.681l-11.438 19.541zm56.952 30.86c-4.051 0-8.102-1.906-8.102-5.72v-75.778c0-3.932 4.647-5.6 9.294-5.6s9.294 1.668 9.294 5.6v65.294h27.165c3.575 0 5.362 4.051 5.362 8.102s-1.788 8.102-5.362 8.102h-37.651z" fill="#f9eed7"/></svg>