<svg xmlns="http://www.w3.org/2000/svg" viewBox="0 0 512 512"><path fill="#a9a9a9" d="M256 0C177.3 82.7 46.7 64 46.7 64v224C46.7 420 256 512 256 512s209.3-92 209.3-224V64S334.7 82.7 256 0z"/><path fill="#696969" d="M256 73.7c-56 59-149 45.6-149 45.6v159.5c0 94 149 159.5 149 159.5s149-65.5 149-159.5V119.3s-93 13.3-149-45.6z" opacity=".1"/><path fill="#ef806f" d="M293.8 240c10.2 10 16.5 23.7 16.5 39 0 30-24.3 54.4-54.3 54.4-30 0-54.3-24.3-54.3-54.3 0-15 6.3-29 16.5-39 4-3.5 8.5-7 13.5-9.2 7.3-3.7 15.6-5.8 24.3-5.8 8.8 0 17 2 24.3 5.7 5 2.5 9.5 5.7 13.5 9.5z"/><path fill="#b3b3b3" d="M293.8 216.4V240c-4-3.8-8.5-7-13.5-9.5v-14c0-6.6-2.5-12.7-7-17.3-4.7-4.6-10.8-7.2-17.3-7.2-13.4 0-24.3 11-24.3 24.4v14c-5 2.6-9.5 5.8-13.5 9.6v-23.6c0-21 17-37.8 37.8-37.8 10 0 19.6 4 26.7 11 7 7.2 11 16.7 11 26.8z"/><path fill="#fff" d="M260 279l14.8-14.7-4-4L256 275l-14.7-14.7-4 4L252 279l-14.8 15 4 4 14.8-14.7 14.8 15 4-4.2"/></svg>