<svg version="1.1" id="Capa_1" xmlns="http://www.w3.org/2000/svg" x="0" y="0" viewBox="0 0 511.988 511.988" xml:space="preserve"><circle cx="307.149" cy="162.113" r="17.066"/><path d="M250.926 191.287l12.663-25.334-15.265-7.637-17.066 34.132a8.548 8.548 0 0 0-.247 7.082 8.509 8.509 0 0 0 5.179 4.83l25.599 8.533 5.401-16.187-16.264-5.419zm-46.078 98.846v35.736c.026 4.326-3.183 7.995-7.458 8.533l-76.796 9.557c-30.087 3.737-52.597 29.413-52.366 59.662v108.368h17.075V403.552c-.162-21.648 15.914-39.994 37.408-42.665l76.805-9.557c12.868-1.604 22.501-12.612 22.399-25.53v-35.668h-17.067zm186.546 54.243l-76.788-9.557c-4.284-.538-7.492-4.207-7.458-8.601v-36.086h-17.066v36.026c-.102 12.979 9.531 23.995 22.416 25.599l76.796 9.557c21.486 2.679 37.57 21.017 37.4 42.733v107.941h17.066V404.107c.231-30.309-22.279-55.993-52.366-59.731zM358.346 136.54h-8.533v17.066h8.533c9.412 0 17.066 7.654 17.066 17.066 0 9.412-7.654 17.066-17.066 17.066h-8.533v17.066h8.533c18.824 0 34.132-15.308 34.132-34.132 0-18.824-15.308-34.132-34.132-34.132zm-80.602 86.225a72.615 72.615 0 0 1-32.34 7.637h-6.511v17.066h6.511c13.798 0 27.621-3.268 39.977-9.437l-7.637-15.266z"/><circle cx="204.754" cy="162.113" r="17.066"/><path d="M353.628 137.445c-29.686-14.847-37.954-69.825-38.031-70.379a8.549 8.549 0 0 0-3.968-6.041 8.568 8.568 0 0 0-7.185-.836l-17.663 5.888c-3.021-6.929-8.55-16.204-17.723-21.238-7.287-4.002-15.709-4.582-24.336-1.715-21.827 7.253-24.506 24.797-26.862 40.275-2.133 14.003-4.147 27.237-18.226 37.792-27.809 20.854-37.263 23.653-38.432 23.935a8.546 8.546 0 0 0-5.376 2.696 8.56 8.56 0 0 0-2.244 6.459l4.676 59.432c2.312 52.426 45.224 93.486 97.693 93.486 52.477 0 95.389-41.069 97.685-93.273l4.693-68.263a8.555 8.555 0 0 0-4.701-8.218zm-17.024 75.516c-1.903 43.27-37.323 77.172-80.645 77.172-43.322 0-78.742-33.901-80.662-77.47l-4.173-53.058c8.985-3.942 22.262-12.407 38.765-24.763 19.66-14.745 22.544-33.662 24.856-48.868 2.338-15.334 3.968-22.868 15.385-26.665 4.147-1.391 7.552-1.237 10.692.469 7.202 3.925 11.434 15.137 12.458 19.105a8.516 8.516 0 0 0 4.164 5.41 8.576 8.576 0 0 0 6.809.614l16.358-5.453c3.968 17.68 14.941 54.005 40.327 70.362l-4.334 63.145z"/><path d="M374.678 61.144c-11.605-26.145-37.314-43.287-65.814-44.038L285.791 7.83c-18.926-9.472-41.077-10.385-60.626-2.551-63.656 24.455-103.572 86.609-99.323 154.633 1.314 22.732-2.969 45.711-12.39 66.446-18.175 39.934-13.61 86.899 11.903 122.55l4.181 5.888 13.917-9.864-4.198-5.922c-21.998-30.736-25.923-71.19-10.265-105.586 10.555-23.252 15.359-49.013 13.883-74.543-3.789-60.584 31.742-115.911 88.52-137.721 15.129-6.075 32.178-5.367 47.392 2.21l25.172 10.154a8.352 8.352 0 0 0 3.157.623c22.459.085 42.852 13.397 51.974 33.935 10.325 23.175 13.567 48.663 9.326 73.938l-1.451 10.41 16.895 2.346 1.417-10.171c4.763-28.356 1.093-57.223-10.597-83.461zm20.146 188.09c-7.236-19.199-10.905-39.345-10.879-59.875v-1.621h-17.066v1.613c-.026 22.595 4.002 44.764 11.972 65.883 8.345 22.348 7.765 46.726-1.647 68.664l-9.642 22.612 15.701 6.698 9.625-22.595c11.143-25.983 11.835-54.875 1.936-81.379z"/><path d="M394.492 352.858c-76.651 76.387-201.163 76.173-277.55-.486l-12.091 12.048C146.397 406.112 201.042 427 255.772 427c54.653 0 109.392-20.837 151.28-62.572l-12.56-11.57zM234.423 52.244l-8.14 15.001a55.057 55.057 0 0 1 22.168 22.168l15.001-8.14a72.082 72.082 0 0 0-29.029-29.029z"/></svg>