<?xml version="1.0" encoding="iso-8859-1"?>
<!-- Generator: Adobe Illustrator 19.0.0, SVG Export Plug-In . SVG Version: 6.00 Build 0)  -->
<svg version="1.1" id="Capa_1" xmlns="http://www.w3.org/2000/svg" xmlns:xlink="http://www.w3.org/1999/xlink" x="0px" y="0px"
	 viewBox="0 0 468.293 468.293" style="enable-background:new 0 0 468.293 468.293;" xml:space="preserve">
<path style="fill:#FCD462;" d="M468.293,103.024H0V46.829c0-10.345,8.386-18.732,18.732-18.732h430.829
	c10.345,0,18.732,8.386,18.732,18.732V103.024z"/>
<path style="fill:#EBF0F3;" d="M449.561,440.195H18.732C8.386,440.195,0,431.809,0,421.463V103.024h468.293v318.439
	C468.293,431.809,459.906,440.195,449.561,440.195z"/>
<circle style="fill:#27A2DB;" cx="46.829" cy="65.561" r="21.854"/>
<circle style="fill:#44C4A1;" cx="109.268" cy="65.561" r="21.854"/>
<path style="fill:#EBF0F3;" d="M424.585,84.293H215.369c-10.345,0-18.732-8.386-18.732-18.732v0
	c0-10.345,8.386-18.732,18.732-18.732h209.216c10.345,0,18.732,8.386,18.732,18.732v0C443.317,75.906,434.931,84.293,424.585,84.293
	z"/>
<g>
	<path style="fill:#64798A;" d="M281.571,75.403h-4.737l-6.808-19.684h4.294l4.884,14.874l4.884-14.874h4.291l4.884,14.874
		l4.884-14.874h4.291l-6.808,19.684h-4.734l-4.664-13.469L281.571,75.403z"/>
	<path style="fill:#64798A;" d="M315.314,75.403h-4.737l-6.808-19.684h4.294l4.884,14.874l4.884-14.874h4.291l4.884,14.874
		l4.884-14.874h4.291l-6.808,19.684h-4.734l-4.664-13.469L315.314,75.403z"/>
	<path style="fill:#64798A;" d="M349.061,75.403h-4.737l-6.808-19.684h4.294l4.884,14.874l4.884-14.874h4.291l4.884,14.874
		l4.884-14.874h4.291l-6.808,19.684h-4.734l-4.664-13.469L349.061,75.403z"/>
</g>
<g>
	<rect x="178.576" y="147.606" style="fill:#D5D6DB;" width="252.066" height="18.732"/>
	<rect x="223.032" y="204.987" style="fill:#D5D6DB;" width="207.672" height="18.732"/>
	<rect x="273.795" y="262.338" style="fill:#D5D6DB;" width="156.909" height="18.732"/>
	<rect x="326.85" y="319.719" style="fill:#D5D6DB;" width="103.824" height="18.732"/>
	<rect x="279.789" y="377.094" style="fill:#D5D6DB;" width="150.915" height="18.732"/>
	<path style="fill:#D5D6DB;" d="M195.379,360.579l16.797,16.797l36.226,10.243l29.312,8.251c4.547,1.28,9.716-3.889,8.436-8.436
		l-8.251-29.312l-10.243-36.226L250.858,305.1L195.379,360.579z"/>
</g>
<path style="fill:#44C4A1;" d="M217.087,374.363l0.732-6.599c0.18-1.625,1.644-3.089,3.269-3.269l10.761-1.194
	c1.625-0.18,3.089-1.644,3.269-3.269l1.194-10.761c0.18-1.625,1.644-3.089,3.269-3.269l10.761-1.194
	c1.625-0.18,3.089-1.644,3.269-3.269l1.194-10.761c0.18-1.625,1.644-3.089,3.269-3.269l6.599-0.732
	c2.622-0.291,4.286-3.606,2.638-5.254L117.852,172.06l-55.48,55.48l149.461,149.462
	C213.481,378.649,216.796,376.985,217.087,374.363z"/>
<rect x="56.694" y="197.43" transform="matrix(0.7071 -0.7071 0.7071 0.7071 -117.2986 128.0531)" style="fill:#27A2DB;" width="78.461" height="16.378"/>
<path style="fill:#E56353;" d="M62.372,227.539l55.48-55.48l-21.251-21.251c-4.877-4.877-12.784-4.877-17.66,0l-37.819,37.819
	c-4.877,4.877-4.877,12.784,0,17.66L62.372,227.539z"/>
<path style="fill:#64798A;" d="M248.401,387.619l29.312,8.251c4.547,1.28,9.716-3.889,8.436-8.436l-8.251-29.312L248.401,387.619z"
	/>
<g>
</g>
<g>
</g>
<g>
</g>
<g>
</g>
<g>
</g>
<g>
</g>
<g>
</g>
<g>
</g>
<g>
</g>
<g>
</g>
<g>
</g>
<g>
</g>
<g>
</g>
<g>
</g>
<g>
</g>
</svg>
