<svg version="1.1" id="Capa_1" xmlns="http://www.w3.org/2000/svg" x="0" y="0" viewBox="0 0 468.293 468.293" xml:space="preserve"><path d="M468.293 103.024H0V46.829c0-10.345 8.386-18.732 18.732-18.732h430.829c10.345 0 18.732 8.386 18.732 18.732v56.195z" fill="#fcd462"/><path d="M449.561 440.195H18.732C8.386 440.195 0 431.809 0 421.463V103.024h468.293v318.439c0 10.346-8.387 18.732-18.732 18.732z" fill="#ebf0f3"/><circle cx="46.829" cy="65.561" r="21.854" fill="#27a2db"/><circle cx="109.268" cy="65.561" r="21.854" fill="#44c4a1"/><path d="M424.585 84.293H215.369c-10.345 0-18.732-8.386-18.732-18.732 0-10.345 8.386-18.732 18.732-18.732h209.216c10.345 0 18.732 8.386 18.732 18.732 0 10.345-8.386 18.732-18.732 18.732z" fill="#ebf0f3"/><path d="M281.571 75.403h-4.737l-6.808-19.684h4.294l4.884 14.874 4.884-14.874h4.291l4.884 14.874 4.884-14.874h4.291l-6.808 19.684h-4.734l-4.664-13.469-4.661 13.469zm33.743 0h-4.737l-6.808-19.684h4.294l4.884 14.874 4.884-14.874h4.291l4.884 14.874 4.884-14.874h4.291l-6.808 19.684h-4.734l-4.664-13.469-4.661 13.469zm33.747 0h-4.737l-6.808-19.684h4.294l4.884 14.874 4.884-14.874h4.291l4.884 14.874 4.884-14.874h4.291l-6.808 19.684h-4.734l-4.664-13.469-4.661 13.469z" fill="#64798a"/><g fill="#d5d6db"><path d="M178.576 147.606h252.066v18.732H178.576zm44.456 57.381h207.672v18.732H223.032zm50.763 57.351h156.909v18.732H273.795zm53.055 57.381h103.824v18.732H326.85zm-47.061 57.375h150.915v18.732H279.789z"/><path d="M195.379 360.579l16.797 16.797 36.226 10.243 29.312 8.251c4.547 1.28 9.716-3.889 8.436-8.436l-8.251-29.312-10.243-36.226-16.798-16.796-55.479 55.479z"/></g><path d="M217.087 374.363l.732-6.599c.18-1.625 1.644-3.089 3.269-3.269l10.761-1.194c1.625-.18 3.089-1.644 3.269-3.269l1.194-10.761c.18-1.625 1.644-3.089 3.269-3.269l10.761-1.194c1.625-.18 3.089-1.644 3.269-3.269l1.194-10.761c.18-1.625 1.644-3.089 3.269-3.269l6.599-.732c2.622-.291 4.286-3.606 2.638-5.254L117.852 172.06l-55.48 55.48 149.461 149.462c1.648 1.647 4.963-.017 5.254-2.639z" fill="#44c4a1"/><path transform="rotate(-45.001 95.923 205.62)" fill="#27a2db" d="M56.694 197.43h78.461v16.378H56.694z"/><path d="M62.372 227.539l55.48-55.48-21.251-21.251c-4.877-4.877-12.784-4.877-17.66 0l-37.819 37.819c-4.877 4.877-4.877 12.784 0 17.66l21.25 21.252z" fill="#e56353"/><path d="M248.401 387.619l29.312 8.251c4.547 1.28 9.716-3.889 8.436-8.436l-8.251-29.312-29.497 29.497z" fill="#64798a"/></svg>